<?xml version="1.0" standalone="no"?>
<!DOCTYPE svg PUBLIC "-//W3C//DTD SVG 1.1//EN" "http://www.w3.org/Graphics/SVG/1.1/DTD/svg11.dtd" >
<svg xmlns="http://www.w3.org/2000/svg" xmlns:xlink="http://www.w3.org/1999/xlink" version="1.1">
<metadata>
Created by Christoph Koeberlin (http://christoph.koe.berlin)
Copyright (c) 2014 Swiss Typefaces Sa`rl. All rights reserved.
</metadata>
<defs>
<font id="Font" horiz-adv-x="717" >
  <font-face 
    font-family="Font"
    font-weight="400"
    font-stretch="normal"
    units-per-em="1000"
    panose-1="2 7 5 0 8 0 0 0 0 3"
    ascent="800"
    descent="-200"
    x-height="430"
    cap-height="692"
    bbox="-90 -332 1039 927"
    underline-thickness="20"
    underline-position="-110"
    unicode-range="U+0020-FB02"
  />
<missing-glyph horiz-adv-x="396" 
d="M396 0h-396v711h396v-711zM372 23v665h-348v-665h348z" />
    <glyph glyph-name=".notdef" horiz-adv-x="396" 
d="M396 0h-396v711h396v-711zM372 23v665h-348v-665h348z" />
    <glyph glyph-name=".null" horiz-adv-x="0" 
 />
    <glyph glyph-name="nonmarkingreturn" horiz-adv-x="200" 
 />
    <glyph glyph-name="space" unicode=" " horiz-adv-x="200" 
 />
    <glyph glyph-name="exclam" unicode="!" horiz-adv-x="320" 
d="M222 672q0 -52 -3.5 -90t-9 -70t-11.5 -63t-11.5 -70t-9 -90.5t-3.5 -124.5h-19q0 73 -3.5 124.5t-9 91t-11.5 70.5t-11.5 63t-9 69.5t-3.5 89.5q0 28 17 37t40 9t40.5 -9t17.5 -37zM230 54q0 -28 -19 -47t-45 -19q-28 0 -47 19t-19 45q0 28 19 47t45 19q28 0 47 -19
t19 -45z" />
    <glyph glyph-name="quotedbl" unicode="&#x22;" horiz-adv-x="334" 
d="M245 475h-15l-39 236h93zM104 475h-15l-39 236h93z" />
    <glyph glyph-name="numbersign" unicode="#" horiz-adv-x="634" 
d="M175 264l27 196h-123l3 23h124l32 228h23l-32 -228h208l32 228h23l-32 -228h124l-3 -23h-125l-27 -196h127l-3 -23h-127l-34 -241h-23l34 241h-208l-34 -241h-23l34 241h-122l3 23h122zM198 264h208l27 196h-208z" />
    <glyph glyph-name="dollar" unicode="$" horiz-adv-x="591" 
d="M298 805v-102h4q34 0 67 -8.5t59 -25.5t42.5 -42.5t16.5 -58.5q0 -44 -20 -66t-43 -22q-17 0 -31 10t-14 33q0 19 10 29t22 17.5t22 15t10 21.5q0 18 -12 32.5t-32 24.5t-45.5 15t-51.5 5h-4v-263l43 -21q34 -17 66.5 -35.5t57.5 -43.5t40.5 -58t15.5 -78
q0 -52 -18.5 -88.5t-49 -60t-71 -35t-84.5 -12.5v-79h-20v79q-40 1 -76.5 13t-64.5 33t-45 50.5t-17 66.5q0 41 20.5 63.5t43.5 22.5q17 0 30.5 -10t13.5 -33q0 -20 -10 -29.5t-22 -17t-22 -16t-10 -24.5t11 -33t31.5 -31t50 -24t66.5 -11v304l-33 16q-32 15 -60 35t-48 45
t-31.5 55.5t-11.5 67.5q0 40 15 70.5t40.5 52t59 33.5t69.5 15v103h20zM298 302v-294q36 1 66 9t52 23t34 38.5t12 55.5q0 53 -36 88.5t-108 70.5zM151 581q0 -30 9.5 -52.5t26.5 -40.5t40.5 -32t50.5 -27v253q-25 -2 -48 -9t-40.5 -19t-28 -30t-10.5 -43z" />
    <glyph glyph-name="percent" unicode="%" horiz-adv-x="835" 
d="M40 512q0 48 13 87t34.5 67t50 43.5t60.5 15.5q31 0 60 -15.5t51 -43.5t34.5 -67t12.5 -87q0 -47 -13 -86.5t-35 -67.5t-50.5 -43.5t-59.5 -15.5q-32 0 -60.5 15.5t-50 43.5t-34.5 67.5t-13 86.5zM128 512q0 -60 4.5 -98.5t13.5 -61.5t22 -32t30 -9t30 9t22 32t14 61.5
t5 98.5t-5 98.5t-14 61.5t-22 32t-30 9t-30 -9t-22 -32t-13.5 -61.5t-4.5 -98.5zM623 713l-396 -726l-20 12l395 726zM474 206q0 48 13 87t34.5 67t50 43.5t60.5 15.5q31 0 60 -15.5t51 -43.5t34.5 -67t12.5 -87q0 -47 -13 -86.5t-35 -67.5t-50.5 -43.5t-59.5 -15.5
q-32 0 -60.5 15.5t-50 43.5t-34.5 67.5t-13 86.5zM562 206q0 -60 4.5 -98.5t13.5 -61.5t22 -32t30 -9t30 9t22 32t14 61.5t5 98.5t-5 98.5t-14 61.5t-22 32t-30 9t-30 -9t-22 -32t-13.5 -61.5t-4.5 -98.5z" />
    <glyph glyph-name="ampersand" unicode="&#x26;" horiz-adv-x="721" 
d="M302 -12q-62 0 -110 19.5t-81.5 51.5t-51 71.5t-17.5 80.5t15 76t42 64t64.5 52.5t81.5 43.5q-9 31 -14 60.5t-5 56.5q0 40 13.5 69.5t35 49.5t49.5 30t57 10q45 0 75.5 -22.5t30.5 -70.5q0 -29 -13 -53t-34 -44t-48.5 -37t-56.5 -31q26 -82 73.5 -168t103.5 -162
q61 99 61 244v32h-86v19h200v-19h-91v-27q0 -85 -18 -149t-53 -117q42 -56 84 -99h82v-19h-181q-10 10 -21 22.5t-24 27.5q-33 -29 -74 -45.5t-89 -16.5zM454 64q-27 34 -56.5 77t-57 90.5t-51 98t-39.5 100.5h-1q-34 -18 -54.5 -41t-31 -48t-14 -52.5t-3.5 -54.5
q0 -38 9 -78t29.5 -72t54 -52.5t82.5 -20.5q37 0 70.5 14t62.5 39zM311 599q0 -27 5 -56t14 -61q24 12 48 27t43 33.5t30.5 40.5t11.5 47q0 38 -22.5 56.5t-52.5 18.5q-21 0 -35.5 -9.5t-24 -24.5t-13.5 -34t-4 -38z" />
    <glyph glyph-name="quotesingle" unicode="'" horiz-adv-x="193" 
d="M104 475h-15l-39 236h93z" />
    <glyph glyph-name="parenleft" unicode="(" horiz-adv-x="288" 
d="M37 235q0 86 20.5 159t50 133.5t63 109t59.5 86.5l18 -14q-40 -60 -64 -118t-36.5 -116t-16.5 -117.5t-4 -122.5t4 -122.5t16.5 -117.5t36.5 -116t64 -118l-18 -14q-26 37 -59.5 86t-63 109.5t-50 133.5t-20.5 159z" />
    <glyph glyph-name="parenright" unicode=")" horiz-adv-x="288" 
d="M251 234q0 -86 -20.5 -159t-50 -133.5t-63 -109.5t-59.5 -86l-18 14q40 60 64 118t36.5 116t16.5 117.5t4 122.5q0 64 -4 123.5t-16.5 117.5t-36.5 116t-64 118l18 14q26 -38 59.5 -86.5t63 -109t50 -133.5t20.5 -160z" />
    <glyph glyph-name="asterisk" unicode="*" horiz-adv-x="403" 
d="M299 446q-12 7 -18.5 17.5t-14 22.5t-21 26.5t-39.5 31.5l3 5l-3 5h-6q0 31 -5 50t-11 32.5t-11 24.5t-5 26q0 14 8.5 24.5t26.5 10.5t26.5 -10.5t8.5 -24.5q0 -15 -5 -26t-11 -24.5t-11 -32.5t-5 -50q26 16 39.5 31t21 27t14 22t18.5 18t25.5 6.5t22.5 -17.5
q10 -15 6 -27.5t-17 -19.5q-12 -8 -23.5 -9.5t-25.5 -4t-32.5 -8.5t-45.5 -23q27 -17 45.5 -23t32.5 -8.5t25.5 -4t23.5 -9.5q13 -7 17 -19.5t-6 -27.5q-9 -16 -22.5 -17.5t-25.5 6.5zM200 544q-26 -17 -39.5 -31.5t-22 -26.5t-15 -22.5t-18.5 -17.5q-12 -8 -25.5 -6.5
t-22.5 17.5q-10 15 -6 27.5t17 19.5q12 8 23.5 9.5t26 4t33.5 8.5t46 23q-27 17 -46 23t-33.5 8.5t-26 4t-23.5 9.5q-13 7 -17 19.5t6 27.5q9 16 22.5 17.5t25.5 -6.5t18.5 -18t15 -22t22 -27t39.5 -31l-3 -5zM203 376q-18 0 -26.5 10.5t-8.5 24.5q0 15 5 25.5t11 24t11 33
t5 50.5h6q0 -31 5 -50.5t11 -33t11 -24t5 -25.5q0 -14 -8.5 -24.5t-26.5 -10.5z" />
    <glyph glyph-name="plus" unicode="+" horiz-adv-x="536" 
d="M30 212v23h227v226h23v-226h226v-23h-226v-226h-23v226h-227z" />
    <glyph glyph-name="comma" unicode="," horiz-adv-x="254" 
d="M60 47q0 25 17.5 43t49.5 18q21 0 36.5 -8.5t25 -23.5t14.5 -34.5t5 -41.5q0 -32 -9 -59.5t-24 -50t-35 -40.5t-42 -32l-11 16q41 28 66.5 64t25.5 79q0 15 -6 21.5t-15 6.5q-12 0 -20.5 -8.5t-26.5 -8.5q-24 0 -37.5 17.5t-13.5 41.5z" />
    <glyph glyph-name="hyphen" unicode="-" horiz-adv-x="331" 
d="M50 193v62h231v-62h-231z" />
    <glyph glyph-name="period" unicode="." horiz-adv-x="236" 
d="M190 54q0 -28 -19 -47t-45 -19q-28 0 -47 19t-19 45q0 28 19 47t45 19q28 0 47 -19t19 -45z" />
    <glyph glyph-name="slash" unicode="/" horiz-adv-x="417" 
d="M417 713l-396 -726l-21 12l395 726z" />
    <glyph glyph-name="zero" unicode="0" horiz-adv-x="600" 
d="M50 346q0 86 21 152.5t55.5 112t79.5 69t94 23.5t94 -23.5t79.5 -69t55.5 -112t21 -152.5t-21 -152.5t-55.5 -112.5t-79.5 -69.5t-94 -23.5t-94 23.5t-79.5 69.5t-55.5 112.5t-21 152.5zM156 346q0 -98 11 -163.5t30.5 -105t45.5 -56.5t57 -17t57 17t45.5 56.5t30.5 105
t11 163.5q0 97 -11 162.5t-30.5 105.5t-45.5 56.5t-57 16.5t-57 -16.5t-45.5 -56.5t-30.5 -105.5t-11 -162.5z" />
    <glyph glyph-name="one" unicode="1" horiz-adv-x="405" 
d="M66 0v19h108v627q-38 -12 -69 -23t-70 -23l-5 20q30 9 65 21t66.5 24t55.5 21.5t32 12.5h15v-680h91v-19h-289z" />
    <glyph glyph-name="two" unicode="2" horiz-adv-x="551" 
d="M243 703q40 0 81 -11.5t74.5 -35.5t54.5 -62t21 -90q0 -67 -38 -126t-94 -112t-119 -99.5t-114 -87.5l1 -1q8 2 23.5 2.5t34.5 0.5h176q41 0 65 16t32 39q10 28 21 43.5t22 15.5h2v-195h-476v15q21 19 57 48.5t77 67.5t83 83t75.5 93.5t55 100t21.5 103.5q0 78 -35.5 125
t-110.5 47q-38 0 -70 -12.5t-54.5 -34t-35 -51t-12.5 -63.5q0 -47 19.5 -77t45.5 -30q17 0 25.5 10.5t15.5 23t16.5 23t30.5 10.5q19 0 31 -11t12 -33q0 -16 -8 -28t-20 -20t-27 -12t-30 -4q-23 0 -46.5 8.5t-43 26.5t-32 46t-12.5 66q0 40 15 73.5t42.5 57.5t65 37.5
t82.5 13.5z" />
    <glyph glyph-name="three" unicode="3" horiz-adv-x="495" 
d="M211 -12q-45 0 -81 13.5t-61.5 36t-39.5 52.5t-14 63q0 40 20 60.5t46 20.5q17 0 31 -11t14 -31q0 -18 -9.5 -27.5t-20.5 -17.5t-20.5 -17.5t-9.5 -28.5q0 -21 12.5 -38.5t33 -29.5t45.5 -19t50 -7q31 0 57.5 9.5t45.5 30t29.5 54t10.5 81.5q0 49 -10.5 82t-28 53t-40 28
t-46.5 8q-14 0 -33.5 -4t-40.5 -12v19l26 8q34 10 62 23.5t48.5 33.5t31.5 49.5t11 72.5q0 68 -28 104.5t-97 36.5q-23 0 -46.5 -7t-42.5 -19t-31 -28.5t-12 -35.5q0 -16 10 -24.5t22 -16.5t22 -18t10 -28q0 -23 -14 -33t-31 -10q-23 0 -43 21t-20 62q0 31 13.5 59.5
t38.5 50t60 34t78 12.5q37 0 75 -9.5t68 -28.5t49 -48.5t19 -69.5q0 -45 -22.5 -76.5t-54 -52t-64.5 -31.5t-54 -16v-2q40 0 79 -11t70.5 -34.5t51 -58.5t19.5 -83q0 -44 -22 -79.5t-57 -61t-78.5 -39.5t-86.5 -14z" />
    <glyph glyph-name="four" unicode="4" horiz-adv-x="520" 
d="M369 177h121v-21h-121v-137h92v-19h-279v19h97v137h-279v19q51 57 90.5 108.5t71.5 105.5q30 51 53.5 115.5t37.5 130.5q4 18 7 30t8.5 19t14.5 9.5t25 2.5h13q25 0 37.5 -3.5t15 -12t-3 -23.5t-15.5 -37q-16 -37 -42 -79t-57 -85t-64 -85t-64.5 -79t-58.5 -67t-45 -48
h255v151q25 23 44.5 48.5t30.5 56.5h15v-256z" />
    <glyph glyph-name="five" unicode="5" horiz-adv-x="511" 
d="M219 7q30 0 57.5 9t48 32.5t32.5 64t12 102.5q0 96 -32 151t-110 55q-46 0 -82 -24t-52 -62h-27l49 357h16q16 -20 53.5 -38t90.5 -18q24 0 46.5 3t43 12.5t38 28t32.5 49.5l16 -5q-8 -33 -24 -65.5t-41 -58t-59 -41t-79 -15.5q-27 0 -62.5 6t-64.5 20l-27 -199h1
q17 31 56 51t91 20q48 0 90.5 -16.5t73.5 -46t49 -71t18 -92.5q0 -57 -24.5 -99.5t-62 -71t-82.5 -43t-85 -14.5q-42 0 -76 12t-59 33t-38.5 50t-13.5 63q0 41 19.5 62.5t44.5 21.5q17 0 32 -11.5t15 -32.5t-9.5 -30.5t-21 -17t-21 -16.5t-9.5 -29t12 -36t31 -27t43.5 -17
t50.5 -6z" />
    <glyph glyph-name="six" unicode="6" horiz-adv-x="551" 
d="M340 703q37 0 64.5 -10.5t46.5 -28t28.5 -40t9.5 -46.5q0 -35 -16 -58t-44 -23q-20 0 -33.5 11t-13.5 28q0 20 9.5 29t21.5 15.5t21.5 13.5t9.5 23q0 31 -31 49t-75 18q-33 0 -67 -16.5t-62 -58t-45.5 -113t-17.5 -181.5v-5h3q17 52 56 81t94 29q38 0 74.5 -14t65 -41.5
t45.5 -67.5t17 -92q0 -49 -19 -89t-49.5 -68.5t-68.5 -44t-77 -15.5q-53 0 -97 20.5t-75 61.5t-48 102t-17 142q0 79 23.5 150t63 124t92 84t111.5 31zM155 202q0 -48 10.5 -85t28 -62.5t40.5 -38.5t49 -13q23 0 44 9t37 32t25.5 62t9.5 99q0 59 -9.5 96.5t-26 59t-38 29.5
t-45.5 8q-22 0 -44 -10.5t-40 -34t-29.5 -60.5t-11.5 -91z" />
    <glyph glyph-name="seven" unicode="7" horiz-adv-x="490" 
d="M172 619q-28 0 -45.5 -4t-28.5 -12.5t-16.5 -21t-8.5 -29.5q-11 -54 -41 -54h-2v194h480v-19q-78 -72 -138 -135.5t-99 -134.5t-56 -160t-9 -212q2 -18 -9.5 -27.5t-45.5 -9.5h-4q-21 0 -31.5 4.5t-15 12t-4.5 18t1 22.5q7 81 37.5 159.5t75 151t98.5 137.5t108 120h-246
z" />
    <glyph glyph-name="eight" unicode="8" horiz-adv-x="525" 
d="M30 173q0 34 12 62t31.5 51t45.5 40.5t55 29.5q-54 30 -85.5 75t-31.5 102q0 34 15.5 65t43 54.5t66 37t85.5 13.5q85 0 134 -40t49 -106q0 -30 -11 -55.5t-29 -45.5t-41.5 -35.5t-48.5 -25.5l5 -2q38 -18 69 -39t53.5 -46.5t35 -57t12.5 -71.5q0 -39 -18 -73.5
t-50.5 -61t-77.5 -41.5t-98 -15q-44 0 -84 12.5t-70.5 36t-48.5 58t-18 78.5zM196 344q-64 -24 -103.5 -66.5t-39.5 -104.5q0 -39 16 -69.5t43 -52.5t63 -33.5t75 -11.5q36 0 67.5 8.5t55 26t37 44t13.5 63.5q0 51 -38.5 87t-115.5 74zM120 573q0 -48 33 -80.5t91 -60.5
l53 -26q67 23 98.5 65t31.5 86q0 31 -12.5 55t-34 40t-51 24.5t-62.5 8.5q-32 0 -58.5 -8t-46.5 -23t-31 -35.5t-11 -45.5z" />
    <glyph glyph-name="nine" unicode="9" horiz-adv-x="528" 
d="M194 -12q-37 0 -65 10.5t-46.5 28t-28 40t-9.5 46.5q0 35 16 58t44 23q20 0 33.5 -11t13.5 -28q0 -20 -9.5 -29t-21.5 -15.5t-21.5 -13.5t-9.5 -23q0 -31 31 -49t75 -18q33 0 67 16.5t62 58t45.5 113t17.5 181.5v5h-3q-17 -52 -56 -81t-94 -29q-38 0 -74.5 14t-65 41.5
t-45.5 67.5t-17 92q0 49 19 89t49.5 68.5t68.5 44t77 15.5q53 0 97 -20.5t75 -61.5t48 -102t17 -142q0 -80 -23.5 -150.5t-63 -123.5t-92.5 -84t-111 -31zM379 489q0 48 -10.5 85t-28 62.5t-41 38.5t-48.5 13q-23 0 -44 -9t-37 -32t-25.5 -62t-9.5 -99q0 -59 9.5 -96.5
t26 -59t38 -29.5t45.5 -8q22 0 44 10.5t40 34t29.5 60.5t11.5 91z" />
    <glyph glyph-name="colon" unicode=":" horiz-adv-x="256" 
d="M210 377q0 -28 -19 -47t-45 -19q-28 0 -47 19t-19 45q0 28 19 47t45 19q28 0 47 -19t19 -45zM210 54q0 -28 -19 -47t-45 -19q-28 0 -47 19t-19 45q0 28 19 47t45 19q28 0 47 -19t19 -45z" />
    <glyph glyph-name="semicolon" unicode=";" horiz-adv-x="274" 
d="M80 47q0 25 17.5 43t49.5 18q21 0 36.5 -8.5t25 -23.5t14.5 -34.5t5 -41.5q0 -32 -9 -59.5t-24 -50t-35 -40.5t-42 -32l-11 16q41 28 66.5 64t25.5 79q0 15 -6 21.5t-15 6.5q-12 0 -20.5 -8.5t-26.5 -8.5q-24 0 -37.5 17.5t-13.5 41.5zM214 377q0 -28 -19 -47t-45 -19
q-28 0 -47 19t-19 45q0 28 19 47t45 19q28 0 47 -19t19 -45z" />
    <glyph glyph-name="equal" unicode="=" horiz-adv-x="556" 
d="M40 127v23h476v-23h-476zM40 294v23h476v-23h-476z" />
    <glyph glyph-name="question" unicode="?" horiz-adv-x="513" 
d="M367 577q0 58 -33.5 92t-103.5 34q-36 0 -67 -10.5t-53 -29t-34.5 -43.5t-12.5 -55q0 -13 3.5 -27t9.5 -26t14 -19.5t17 -7.5q7 0 13 5.5t13 12.5t16 12.5t23 5.5q17 0 31.5 -8.5t14.5 -34.5q0 -23 -18.5 -36.5t-44.5 -13.5q-23 0 -43.5 11t-36.5 29.5t-25.5 43.5
t-9.5 53q0 32 13.5 60.5t39.5 50.5t63.5 34.5t85.5 12.5q52 0 93 -12t69.5 -32.5t43.5 -48.5t15 -59q0 -42 -17.5 -72t-43 -53.5t-56 -43.5t-56 -44.5t-43 -55.5t-17.5 -75v-63h-20v58q0 55 11.5 91.5t29 62.5t38 45.5t38 40.5t29 48t11.5 67zM288 54q0 -28 -19 -47t-45 -19
q-28 0 -47 19t-19 45q0 28 19 47t45 19q28 0 47 -19t19 -45z" />
    <glyph glyph-name="at" unicode="@" horiz-adv-x="863" 
d="M778 411q0 68 -23.5 122.5t-64 92t-95.5 57.5t-118 20q-89 0 -161 -30.5t-123 -81t-79 -116.5t-28 -137t26.5 -131.5t74.5 -105t115 -69.5t148 -25q87 0 152 27t112 68l16 -22q-17 -14 -42.5 -30.5t-61 -31.5t-82 -25t-103.5 -10q-77 0 -147 25.5t-123 72t-84.5 112.5
t-31.5 147t33 151.5t90 123t133.5 83t162.5 30.5q67 0 127.5 -21.5t106.5 -62t73 -99.5t27 -134q0 -54 -15.5 -105t-45 -90.5t-70.5 -64t-92 -24.5q-37 0 -60.5 9.5t-37 24t-18.5 31.5t-5 33h-1q-8 -16 -19.5 -31.5t-27 -27.5t-34 -19.5t-40.5 -7.5q-29 0 -54 12.5t-44 34
t-29.5 51t-10.5 63.5q0 58 24.5 110t61.5 90.5t81.5 61t83.5 22.5q22 0 36 -8t23 -20.5t12.5 -27.5t4.5 -28h1l21 69h89l-82 -297q-15 -54 -8.5 -87.5t44.5 -33.5q43 0 77 24.5t57.5 63t35.5 84.5t12 88zM352 159q30 0 51.5 17.5t37 44.5t26 58.5l19.5 58.5q4 12 9.5 34
t10 47t6.5 51t-2 47t-15 34.5t-32 13.5q-20 0 -40 -13.5t-38.5 -37t-34.5 -54.5t-28 -65.5t-18.5 -70t-6.5 -68.5q0 -48 13 -72.5t42 -24.5z" />
    <glyph glyph-name="A" unicode="A" horiz-adv-x="677" 
d="M265 627q11 34 23.5 55t44.5 21q14 0 23.5 -5.5t17 -16.5t14 -28.5t14.5 -41.5l199 -592h76v-19h-274v19h92l-82 248h-233l-76 -248h87v-19h-191v19h77zM187 290h219l-113 344h-1z" />
    <glyph glyph-name="B" unicode="B" horiz-adv-x="677" 
d="M623 192q0 -51 -22 -87.5t-58 -60.5t-83 -35t-96 -11q-23 0 -52.5 0.5t-59.5 0.5t-59 0.5t-50 0.5h-105v19h101v654h-101v19h98q17 0 41 0.5t50 0.5t52 0.5t48 0.5q55 0 102.5 -8.5t82.5 -27t55.5 -49t20.5 -75.5q0 -32 -12.5 -60.5t-35 -50.5t-54 -37t-68.5 -20v-1
q97 -7 151 -50t54 -123zM482 524q0 44 -8.5 73t-27.5 46t-49 24t-73 7h-85v-304h90q48 0 78 12.5t46.5 34t22.5 49.5t6 58zM239 18h106q42 0 74 8.5t53.5 28.5t32.5 53.5t11 83.5q0 42 -9.5 72t-31.5 49.5t-58 29t-89 9.5h-89v-334z" />
    <glyph glyph-name="C" unicode="C" horiz-adv-x="701" 
d="M377 703q40 0 70 -8.5t52 -18t37.5 -18t27.5 -8.5q11 0 16.5 7t10.5 15.5t10.5 15.5t16.5 7h3v-240h-4q-11 0 -20.5 11.5t-17 28.5t-14 36.5t-12.5 35.5q-19 52 -62.5 83.5t-108.5 31.5q-96 0 -154 -84.5t-58 -251.5q0 -84 16 -146.5t45 -104.5t69.5 -63t90.5 -21
q103 0 161.5 56.5t70.5 156.5l23 -4q-3 -34 -17 -74.5t-44 -75.5t-78.5 -58.5t-121.5 -23.5q-65 0 -125 26.5t-105.5 74t-72.5 113.5t-27 144t26.5 144t70.5 113t102.5 73.5t122.5 26.5z" />
    <glyph glyph-name="D" unicode="D" horiz-adv-x="746" 
d="M691 339q0 -86 -29.5 -150t-80 -106.5t-117 -63.5t-140.5 -21q-19 0 -45.5 0.5t-54.5 0.5t-53.5 0.5t-43.5 0.5h-89v19h101v654h-101v19h90q13 0 38 0.5t52 0.5t51.5 0.5t38.5 0.5q81 0 150.5 -23.5t121.5 -68.5t81.5 -111t29.5 -152zM577 339q0 87 -18 150.5
t-52.5 104.5t-84 60.5t-112.5 19.5h-71v-656h77q64 0 112.5 17.5t81.5 55.5t50 99.5t17 148.5z" />
    <glyph glyph-name="E" unicode="E" horiz-adv-x="674" 
d="M285 375q27 0 44.5 3t28.5 9.5t18 17.5t14 26q12 28 19 48t23 20h5v-267h-5q-16 0 -23 20t-19 48q-8 17 -15 28t-18 17t-28 8.5t-44 2.5h-46v-337h152q39 0 64.5 6t42 17t26.5 28t19 39t13.5 43t9 38t11 27.5t18.5 10.5h4v-228h-561v19h101v654h-101v19h531v-213h-4
q-12 0 -18 8.5t-10 23.5t-8 34.5t-13 41.5q-9 23 -19 39.5t-26.5 27t-41.5 15t-65 4.5h-125v-298h46z" />
    <glyph glyph-name="F" unicode="F" horiz-adv-x="621" 
d="M601 479h-4q-12 0 -18 8.5t-10 23.5t-8 34.5t-13 41.5q-9 23 -19 39.5t-26.5 27t-41.5 15t-65 4.5h-157v-298h56q27 0 44.5 3t28.5 9.5t18 17.5t14 26q12 28 19 48t23 20h5v-267h-5q-16 0 -23 20t-19 48q-8 17 -15 28t-18 17t-28 8.5t-44 2.5h-56v-337h131v-19h-332v19
h101v654h-101v19h563v-213z" />
    <glyph glyph-name="G" unicode="G" horiz-adv-x="760" 
d="M386 703q40 0 69 -8.5t49.5 -18t34.5 -18t26 -8.5q11 0 16.5 7t10.5 15.5t10.5 15.5t16.5 7h3v-240h-4q-11 0 -20.5 11.5t-17 28.5t-14 36.5t-12.5 35.5q-19 52 -59 83.5t-105 31.5q-102 0 -161 -84t-59 -252q0 -84 15.5 -147t43.5 -105t67.5 -63.5t87.5 -21.5q27 0 57 6
t55 20.5t41 39t16 62.5v145h-82v18h254v-18h-72v-286h-5q-20 0 -30 8.5t-16.5 18t-13 18t-18.5 8.5q-11 0 -25.5 -9.5t-36.5 -21t-53 -21t-75 -9.5q-64 0 -123 26.5t-104 74t-71.5 113.5t-26.5 144t26.5 144t71.5 113t105 73.5t128 26.5z" />
    <glyph glyph-name="H" unicode="H" horiz-adv-x="811" 
d="M471 0v19h101v339h-333v-339h101v-19h-302v19h101v654h-101v19h302v-19h-101v-292h333v292h-101v19h302v-19h-101v-654h101v-19h-302z" />
    <glyph glyph-name="I" unicode="I" horiz-adv-x="378" 
d="M38 0v19h101v654h-101v19h302v-19h-101v-654h101v-19h-302z" />
    <glyph glyph-name="J" unicode="J" horiz-adv-x="495" 
d="M166 6q57 0 80.5 42t23.5 124v501h-116v19h317v-19h-101v-371q0 -84 -10.5 -143.5t-34.5 -97.5t-62.5 -55.5t-93.5 -17.5q-36 0 -65 12t-50 32t-32.5 46t-11.5 54q0 38 20 62.5t53 24.5q18 0 34.5 -12t16.5 -37q0 -18 -10 -28t-22.5 -18t-22.5 -17.5t-10 -26.5
q0 -15 8 -28.5t21 -23.5t30.5 -16t37.5 -6z" />
    <glyph glyph-name="K" unicode="K" horiz-adv-x="732" 
d="M38 0v19h101v654h-101v19h302v-19h-101v-302h46q24 0 43 3t37 15.5t38.5 38t47.5 71.5l102 174h-93v19h213v-19h-92l-126 -214q-27 -46 -49 -66.5t-41 -27.5v-2q30 -3 55 -19t56 -61l179 -264h77v-19h-295v19h97l-220 333h-75v-333h101v-19h-302z" />
    <glyph glyph-name="L" unicode="L" horiz-adv-x="629" 
d="M38 0v19h101v654h-101v19h316v-19h-115v-654h132q39 0 64.5 6t42 17t26.5 28t19 39t13.5 44.5t9 41.5t11 31t18.5 12h4v-238h-541z" />
    <glyph glyph-name="M" unicode="M" horiz-adv-x="900" 
d="M38 19h101v654h-101v19h131q25 0 44 -4t34 -16.5t27.5 -35.5t24.5 -60l163 -485h1l162 535q6 19 12 31.5t14.5 20t20.5 11t29 3.5h161v-19h-101v-654h100v-19h-300v19h100v638h-1l-170 -557q-14 -47 -26 -63t-37 -16q-27 0 -41.5 19.5t-28.5 60.5l-190 555h-1v-637h101
v-19h-229v19z" />
    <glyph glyph-name="N" unicode="N" horiz-adv-x="743" 
d="M629 94q0 -20 -1 -39t-6 -34t-15.5 -24t-30.5 -9q-26 0 -46.5 18t-45.5 62l-317 538h-1v-587h101v-19h-229v19h101v654h-101v19h100q35 0 56 -4t36 -15.5t27 -30.5t30 -49l314 -526h1v606h-101v19h229v-19h-101v-579z" />
    <glyph glyph-name="O" unicode="O" horiz-adv-x="770" 
d="M170 346q0 -80 15 -143t43 -107t68 -67t89 -23t89 23t68 67t43 107t15 143t-15 143t-43 106.5t-68 66.5t-89 23t-89 -23t-68 -66.5t-43 -106.5t-15 -143zM55 346q0 76 25.5 141.5t70 113.5t104.5 75t130 27t130 -27t104.5 -75t70 -113.5t25.5 -141.5t-25.5 -141.5
t-70 -113.5t-104.5 -75.5t-130 -27.5t-130 27.5t-104.5 75.5t-70 113.5t-25.5 141.5z" />
    <glyph glyph-name="P" unicode="P" horiz-adv-x="627" 
d="M38 692h93q17 0 44.5 0.5t57.5 0.5t59.5 0.5t51.5 0.5q52 0 99.5 -13t84 -38t58 -61.5t21.5 -84.5q0 -46 -20 -82.5t-54 -62t-78.5 -39t-93.5 -13.5h-122v-281h113v-19h-314v19h101v654h-101v19zM495 497q0 51 -9.5 85t-29 54.5t-49.5 29t-70 8.5h-98v-356h94
q40 0 70 7.5t50.5 27.5t31 54.5t10.5 89.5z" />
    <glyph glyph-name="Q" unicode="Q" horiz-adv-x="770" 
d="M656 -215q-43 0 -72 10t-50 25t-36 32t-29.5 32t-31 25t-40.5 10q-23 0 -39 -9t-41 -25l-10 17l147 93q-17 -3 -34 -5t-35 -2q-70 0 -130 27.5t-104.5 75.5t-70 113.5t-25.5 141.5t25.5 141.5t70 113.5t104.5 75t130 27t130 -27t104.5 -75t70 -113.5t25.5 -141.5
q0 -53 -11 -96t-28 -77t-38 -59.5t-41 -44t-37 -30t-26 -16.5l-145 -89l1 -2q31 12 80 12q34 0 57.5 -9.5t41 -24t32.5 -31t30.5 -31t34 -24t45.5 -9.5q23 0 34 1.5t19 5.5l5 -17q-5 -2 -33 -11t-80 -9zM170 346q0 -80 15 -143t43 -107t68 -67t89 -23t89 23t68 67t43 107
t15 143t-15 143t-43 106.5t-68 66.5t-89 23t-89 -23t-68 -66.5t-43 -106.5t-15 -143z" />
    <glyph glyph-name="R" unicode="R" horiz-adv-x="720" 
d="M38 692h93q17 0 40.5 0.5t49 0.5t51.5 0.5t48 0.5q47 0 94 -9t84.5 -29.5t61 -52t23.5 -76.5q0 -36 -14 -63.5t-38 -48t-57 -33.5t-71 -20v-2q76 -11 126 -59.5t55 -143.5l1 -21q3 -66 14 -94.5t37 -28.5q40 0 56 64l18 -5q-11 -38 -33.5 -61t-71.5 -23q-57 0 -90 37.5
t-39 118.5l-3 39q-5 60 -16 93t-29 49t-43.5 19.5t-58.5 3.5h-87v-329h94v-19h-295v19h101v654h-101v19zM471 526q0 45 -12 74t-33 45.5t-50 22.5t-63 6h-74v-308h92q28 0 53.5 6t44.5 23t30.5 48.5t11.5 82.5z" />
    <glyph glyph-name="S" unicode="S" horiz-adv-x="598" 
d="M476 467q-10 0 -17 7.5t-12.5 20t-10.5 29.5t-12 36q-8 21 -18.5 42.5t-28 39t-43 29t-63.5 11.5q-24 0 -47 -7t-40 -21.5t-27.5 -35t-10.5 -47.5t10 -48.5t28.5 -38t44 -29.5t56.5 -24l58 -21q44 -16 79 -35t59 -44.5t37 -59t13 -78.5q0 -44 -15.5 -81.5t-44 -65
t-67.5 -43t-87 -15.5q-41 0 -70.5 9t-51 19.5t-36 19.5t-25.5 9t-17 -8t-10.5 -18t-10.5 -18t-17 -8h-4v239h4q17 0 30 -22.5t27 -67.5q19 -62 63.5 -97.5t124.5 -35.5q25 0 51.5 7t48 23t35 41t13.5 60q0 52 -37 89t-115 66l-63 23q-84 31 -125.5 86t-41.5 127
q0 36 14 67.5t39 54.5t58.5 36.5t71.5 13.5q36 0 62 -9t44 -19.5t29 -19t18 -8.5q8 0 13.5 7.5t10.5 16.5t11.5 16.5t17.5 7.5h2v-228h-5z" />
    <glyph glyph-name="T" unicode="T" horiz-adv-x="658" 
d="M633 692v-228h-4q-12 0 -19 11t-12 28.5t-10 39.5t-14 44q-9 23 -19 39.5t-26.5 27t-41.5 15.5t-65 5h-43v-655h111v-19h-322v19h111v655h-43q-40 0 -65 -5t-41.5 -15.5t-26.5 -27t-19 -39.5q-9 -22 -14 -44t-10 -39.5t-12 -28.5t-19 -11h-4v228h608z" />
    <glyph glyph-name="U" unicode="U" 
d="M576 673h-101v19h231v-19h-101v-409q0 -38 -3 -68t-8.5 -53t-14 -41t-19.5 -33q-34 -45 -85.5 -63t-111.5 -18q-110 0 -173 48q-41 31 -60.5 82t-19.5 135v420h-100v19h301v-19h-101v-402q0 -81 8.5 -124t28.5 -69q20 -28 53 -42.5t81 -14.5q46 0 88.5 15.5t69.5 53.5
q17 24 27 60.5t10 102.5v420z" />
    <glyph glyph-name="V" unicode="V" horiz-adv-x="704" 
d="M435 64q-10 -34 -22.5 -55t-42.5 -21t-44 22t-30 70l-202 593h-94v19h302v-19h-101l205 -613h1l182 613h-92v19h207v-19h-87z" />
    <glyph glyph-name="W" unicode="W" horiz-adv-x="912" 
d="M912 692v-19h-93l-116 -609q-8 -41 -22 -58.5t-40 -17.5q-17 0 -29 5.5t-20.5 18t-15 33.5t-13.5 52l-115 511h-1l-108 -541q-3 -17 -7 -31.5t-11 -25t-18 -16.5t-29 -6q-29 0 -44.5 21.5t-26.5 76.5l-119 587h-84v19h274v-19h-81l117 -618h1l105 538q9 47 24 63.5
t46 16.5q17 0 28 -6.5t18.5 -19.5t13.5 -33.5t12 -48.5l115 -517h1l117 625h-94v19h215z" />
    <glyph glyph-name="X" unicode="X" horiz-adv-x="732" 
d="M342 317l-219 -298h101v-19h-219v19h89l235 321l-190 333h-94v19h310v-19h-97l144 -251l185 251h-101v19h219v-19h-89l-202 -273l219 -381h94v-19h-311v19h97z" />
    <glyph glyph-name="Y" unicode="Y" horiz-adv-x="640" 
d="M527 673h-83v19h196v-19h-84l-190 -366v-288h101v-19h-302v19h101v289l-175 365h-91v19h299v-19h-95l153 -334z" />
    <glyph glyph-name="Z" unicode="Z" horiz-adv-x="647" 
d="M363 19q39 0 64.5 6t42 17t26.5 28t19 39t14.5 43t11 38t13 27.5t19.5 10.5h4v-228h-532l425 673h-153q-39 0 -64.5 -4.5t-42 -14.5t-26.5 -25.5t-19 -37.5t-14.5 -42.5t-11 -36.5t-13 -25.5t-19.5 -9.5h-4v215h489l-427 -673h198z" />
    <glyph glyph-name="bracketleft" unicode="[" horiz-adv-x="313" 
d="M100 -240v951h183v-19h-106v-913h106v-19h-183z" />
    <glyph glyph-name="bracketright" unicode="]" horiz-adv-x="313" 
d="M30 -240v19h106v913h-106v19h183v-951h-183z" />
    <glyph glyph-name="underscore" unicode="_" horiz-adv-x="522" 
d="M34 -23v23h454v-23h-454z" />
    <glyph glyph-name="grave" unicode="`" horiz-adv-x="232" 
d="M187 520l-177 152v9h110l82 -160v-1h-15z" />
    <glyph glyph-name="a" unicode="a" horiz-adv-x="489" 
d="M308 210q-85 8 -125 -17t-40 -88q0 -44 14.5 -70t46.5 -26q19 0 38 10.5t33.5 33.5t23.5 59.5t9 88.5v9zM314 88q-6 -19 -16.5 -37t-25.5 -32t-35 -22.5t-44 -8.5q-29 0 -56 7t-49 21.5t-35 35.5t-13 50q0 36 23.5 61.5t61 40.5t85 21t95.5 4v83q0 36 -6.5 58.5t-18.5 35
t-29 16.5t-37 4q-37 0 -62 -9.5t-25 -25.5q0 -9 6 -14t12.5 -10.5t12.5 -13t6 -21.5q0 -18 -13 -31t-33 -13t-35.5 15.5t-15.5 40.5q0 21 12 39t33 31.5t50 21.5t63 8q35 0 66 -5.5t54 -22t36 -46t13 -76.5l-1 -229q0 -26 6 -38t24 -12q14 0 29 12t21 42l17 -4
q-8 -38 -32 -56.5t-59 -18.5q-17 0 -32.5 5t-26.5 16.5t-17.5 30t-6.5 46.5h-2z" />
    <glyph glyph-name="b" unicode="b" horiz-adv-x="536" 
d="M391 211q0 100 -26 155t-76 55q-27 0 -48 -17.5t-35 -46t-21.5 -65.5t-7.5 -77q0 -37 7 -74t21.5 -66t35.5 -47.5t50 -18.5q25 0 44 16t31.5 43t18.5 64t6 79zM183 73l-2 -26l-3 -47h-159v19h76v673h-76v19h166v-305v-22.5t-1 -22.5h2q6 12 15 26t23 26t33 20.5t43 8.5
q36 0 71 -18.5t62.5 -50t44 -73t16.5 -88.5t-16 -88t-42 -71t-60 -47.5t-71 -17.5q-26 0 -46 8.5t-34.5 21t-24 27.5t-15.5 28h-2z" />
    <glyph glyph-name="c" unicode="c" horiz-adv-x="449" 
d="M145 215q0 -95 28 -150.5t87 -55.5q46 0 81 29.5t46 91.5l22 -4q-12 -67 -54 -102.5t-104 -35.5q-44 0 -82.5 17t-66.5 47t-44 71t-16 90q0 45 15.5 86.5t44.5 73.5t70 51t93 19q30 0 55.5 -8t44.5 -22.5t30 -34.5t11 -44t-16 -42.5t-40 -18.5q-21 0 -36 13t-15 34
q0 16 9.5 26.5t20.5 17.5q17 10 17 23t-20 25.5t-54 12.5q-39 0 -64 -21t-39 -52.5t-19 -68.5t-5 -68z" />
    <glyph glyph-name="d" unicode="d" horiz-adv-x="549" 
d="M365 216q0 39 -7.5 76t-22.5 66.5t-37 47t-51 17.5q-26 0 -45 -16t-31.5 -44t-18.5 -66t-6 -81q0 -44 6 -81.5t18.5 -65.5t31.5 -44t45 -16q29 0 51 17.5t37 47t22.5 66.5t7.5 76zM358 358q-1 12 -1 24v24v286h-80v19h170v-692h76v-19h-159l-3 43l-3 31h-2
q-7 -14 -17 -29t-25 -28t-35 -21t-45 -8q-39 0 -73.5 17.5t-61 48.5t-42 72.5t-15.5 89.5t15.5 89.5t42 72.5t61 48.5t73.5 17.5q25 0 45 -8t35 -21t25 -28t17 -29h2z" />
    <glyph glyph-name="e" unicode="e" horiz-adv-x="478" 
d="M145 234v-2v-20q0 -46 6.5 -83.5t21.5 -64t38.5 -41t57.5 -14.5q22 0 44 7.5t40.5 22.5t32.5 37.5t20 53.5l22 -4q-6 -33 -22 -59t-38.5 -43.5t-50.5 -26.5t-58 -9q-47 0 -86.5 16.5t-68.5 46.5t-45.5 71t-16.5 90q0 48 17 90t45.5 73.5t66 49.5t78.5 18q34 0 69 -13
t62 -39t42.5 -65.5t12.5 -91.5h-290zM249 427q-24 0 -43 -13t-32 -36.5t-20.5 -55.5t-8.5 -69h194q4 90 -20.5 132t-69.5 42z" />
    <glyph glyph-name="f" unicode="f" horiz-adv-x="327" 
d="M302 723q51 0 78 -27t27 -65q0 -26 -14 -44t-37 -18t-35.5 12.5t-12.5 32.5q0 16 7.5 25t15.5 14t12.5 11t4.5 15q0 14 -13.5 21.5t-30.5 7.5q-16 0 -41.5 -7t-47 -29.5t-33 -64t-0.5 -110.5l11 -67h130v-19h-128v-392h103v-19h-269v19h76v392h-76v19h76v27
q0 61 17 110.5t44.5 84t63 53t72.5 18.5z" />
    <glyph glyph-name="g" unicode="g" horiz-adv-x="556" 
d="M431 277q0 -29 -10.5 -53t-27.5 -43.5t-40 -33.5t-48 -22q20 -1 39.5 -4t34.5 -9.5t24.5 -16.5t9.5 -25q0 -21 -24.5 -35.5t-75.5 -18.5v-1q24 -2 51 -9t49.5 -21t37.5 -35.5t15 -52.5q0 -34 -19.5 -62t-51.5 -47.5t-72.5 -30t-82.5 -10.5q-41 0 -78 12t-65 34.5
t-45 53.5t-17 70q0 27 9.5 50.5t24.5 41t34.5 27.5t39.5 10q19 0 32 -10.5t13 -27.5q0 -23 -15 -33t-39 -16q-23 -6 -44 -21.5t-21 -44.5t14 -52.5t37 -40t53.5 -25t62.5 -8.5q60 0 97.5 31t37.5 97q0 34 -8 56t-22.5 34.5t-34.5 17.5t-44 5h-5l9 17h13q37 0 53 13t16 35
q0 23 -15.5 33.5t-43.5 13.5q-12 -2 -24 -3.5t-23 -1.5q-33 0 -67 11.5t-61 32.5t-44 51t-17 67q0 36 17 66.5t44 52.5t61 34t67 12q39 0 78 -17t67 -46q12 27 33.5 47t53.5 20q10 0 20.5 -3t19.5 -9.5t14.5 -16.5t5.5 -24q0 -17 -10 -31t-29 -14q-14 0 -24 9.5t-10 23.5
t6.5 22t6.5 15t-4.5 9t-9.5 2q-19 0 -36 -20t-25 -43q15 -19 23.5 -41t8.5 -48zM334 277q0 69 -23.5 109.5t-68.5 40.5t-68 -40.5t-23 -109.5q0 -70 22 -108.5t69 -38.5q45 0 68.5 38.5t23.5 108.5z" />
    <glyph glyph-name="h" unicode="h" horiz-adv-x="544" 
d="M19 19h76v673h-76v19h166v-315l-5 -73h1q20 52 57.5 85t89.5 33q39 0 64 -13.5t38.5 -36t18.5 -51.5t5 -61v-260h76v-19h-238v19h72v244q0 30 -0.5 57.5t-6 48.5t-17.5 33.5t-36 12.5q-27 0 -49 -17.5t-37.5 -42t-24 -50.5t-8.5 -42v-244h72v-19h-238v19z" />
    <glyph glyph-name="i" unicode="i" horiz-adv-x="297" 
d="M29 0v19h76v392h-76v19h166v-411h76v-19h-242zM206 634q0 -25 -17 -42t-42 -17t-42 17t-17 42t17 42t42 17t42 -17t17 -42z" />
    <glyph glyph-name="j" unicode="j" horiz-adv-x="295" 
d="M18 -239q17 0 33 5.5t29 22.5t20.5 50t7.5 89v483h-91v19h181v-422q0 -63 -14 -111.5t-38.5 -81.5t-57.5 -50.5t-71 -17.5q-21 0 -40.5 7.5t-34 20t-23.5 29t-9 35.5q0 29 17.5 45t38.5 16q22 0 34.5 -13t12.5 -33q0 -15 -6.5 -23t-14.5 -13.5t-14.5 -11.5t-6.5 -16
q0 -14 13.5 -21.5t33.5 -7.5zM210 634q0 -25 -17 -42t-42 -17t-42 17t-17 42t17 42t42 17t42 -17t17 -42z" />
    <glyph glyph-name="k" unicode="k" horiz-adv-x="548" 
d="M245 0h-226v19h76v673h-74v19h164v-456h34q35 0 62 11t51 46l66 99h-83v19h180v-19h-69l-72 -106q-17 -25 -31.5 -37t-32.5 -17v-1q30 -2 49 -16.5t42 -50.5l103 -164h59v-19h-229v19h68l-130 217h-67v-217h60v-19z" />
    <glyph glyph-name="l" unicode="l" horiz-adv-x="287" 
d="M19 0v19h76v673h-76v19h166v-692h76v-19h-242z" />
    <glyph glyph-name="m" unicode="m" horiz-adv-x="823" 
d="M267 0h-238v19h76v392h-76v19h159l2 -107h1q20 52 57.5 85t89.5 33q33 0 54.5 -9.5t35.5 -25.5t21 -37.5t10 -45.5h1q20 52 57.5 85t89.5 33q39 0 64 -13.5t38.5 -36t18.5 -51.5t5 -61v-260h76v-19h-238v19h72v244q0 30 -0.5 57.5t-6 48.5t-17.5 33.5t-36 12.5
q-27 0 -49 -17.5t-37.5 -42t-24 -50.5t-8.5 -42v-244h72v-19h-234v19h72v244q0 30 -0.5 57.5t-6 48.5t-17.5 33.5t-36 12.5q-27 0 -49 -17.5t-37.5 -42t-24 -50.5t-8.5 -42v-244h72v-19z" />
    <glyph glyph-name="n" unicode="n" horiz-adv-x="554" 
d="M29 19h76v392h-76v19h159l2 -107h1q20 52 57.5 85t89.5 33q39 0 64 -13.5t38.5 -36t18.5 -51.5t5 -61v-260h76v-19h-238v19h72v244q0 30 -0.5 57.5t-6 48.5t-17.5 33.5t-36 12.5q-27 0 -49 -17.5t-37.5 -42t-24 -50.5t-8.5 -42v-244h72v-19h-238v19z" />
    <glyph glyph-name="o" unicode="o" horiz-adv-x="504" 
d="M42 215q0 44 16.5 85.5t45 73t67 50.5t81.5 19t81.5 -19t67 -50.5t45 -73t16.5 -85.5t-16.5 -85t-45 -72.5t-67 -50.5t-81.5 -19t-81.5 19t-67 50.5t-45 72.5t-16.5 85zM146 215q0 -46 4.5 -84.5t16.5 -66.5t32.5 -44t52.5 -16t52.5 16t32.5 44t16.5 66.5t4.5 84.5
t-4.5 84.5t-16.5 67t-32.5 44.5t-52.5 16t-52.5 -16t-32.5 -44.5t-16.5 -67t-4.5 -84.5z" />
    <glyph glyph-name="p" unicode="p" horiz-adv-x="537" 
d="M181 358q7 14 17 29t25 28t34.5 21t45.5 8q39 0 73.5 -17.5t61 -48.5t42 -72.5t15.5 -89.5t-15.5 -89.5t-42 -72.5t-61 -48.5t-73.5 -17.5q-26 0 -45.5 8t-34.5 21t-25 28t-17 29h-2q0 -9 0.5 -25.5t0.5 -31.5v-238h100v-19h-263v19h73v632h-76v19h162l3 -72h2zM172 216
q0 -39 7.5 -76t22.5 -66.5t37 -47t51 -17.5q26 0 45 16t31.5 44t18.5 65.5t6 81.5q0 43 -6 81t-18.5 66t-31.5 44t-45 16q-29 0 -51 -17.5t-37 -47t-22.5 -66.5t-7.5 -76z" />
    <glyph glyph-name="q" unicode="q" horiz-adv-x="553" 
d="M361 430h162v-19h-76v-632h73v-19h-263v19h100v238q0 15 0.5 31.5t0.5 25.5h-2q-7 -14 -17 -29t-25 -28t-35 -21t-45 -8q-39 0 -73.5 17.5t-61 48.5t-42 72.5t-15.5 89.5t15.5 89.5t42 72.5t61 48.5t73.5 17.5q25 0 45 -8t35 -21t25 -28t17 -29h2zM365 216q0 39 -7.5 76
t-22.5 66.5t-37 47t-51 17.5q-26 0 -45 -16t-31.5 -44t-18.5 -66t-6 -81q0 -44 6 -81.5t18.5 -65.5t31.5 -44t45 -16q29 0 51 17.5t37 47t22.5 66.5t7.5 76z" />
    <glyph glyph-name="r" unicode="r" horiz-adv-x="422" 
d="M188 318h1q6 22 18.5 43.5t29 38t38 26.5t45.5 10q34 0 58 -20.5t24 -58.5q0 -29 -16.5 -44.5t-37.5 -15.5q-18 0 -30.5 11t-12.5 29q0 12 4.5 19.5t10.5 14t10.5 12.5t4.5 14q0 19 -26 19q-18 0 -38 -12.5t-37 -35.5t-28 -55t-11 -72v-222h107v-19h-273v19h76v392h-74
v19h157v-112z" />
    <glyph glyph-name="s" unicode="s" horiz-adv-x="441" 
d="M389 119q0 -30 -13 -54t-34.5 -41t-50.5 -26.5t-61 -9.5q-29 0 -50 6t-35.5 13.5t-24.5 13.5t-17 6t-10.5 -5.5t-7 -12t-8.5 -12t-14 -5.5h-3v174h3q16 0 28 -23t22 -53q16 -45 46 -64t70 -19q18 0 37 4.5t34.5 14t25.5 24t10 34.5q0 35 -29.5 53t-78.5 35l-35 12
q-67 23 -97 58.5t-30 83.5q0 26 11 47.5t29.5 37t43.5 24t52 8.5q24 0 42.5 -6t32 -12.5t23.5 -12.5t16 -6q7 0 10.5 5.5t6.5 11.5t6 11.5t10 5.5h5v-153h-5q-11 0 -23 17t-20 43q-14 42 -44.5 59.5t-61.5 17.5q-15 0 -30.5 -4t-28.5 -11.5t-21.5 -20t-8.5 -28.5
q0 -22 21 -42.5t78 -40.5l40 -14q30 -11 55.5 -23.5t44 -29t29 -39t10.5 -52.5z" />
    <glyph glyph-name="t" unicode="t" horiz-adv-x="342" 
d="M207 -12q-20 0 -40 4.5t-36 17.5t-25.5 36t-9.5 61v304h-86v19h86v67q24 21 42 41.5t35 44.5h13v-153h129v-19h-129v-319q0 -43 11.5 -61.5t38.5 -18.5q26 0 45.5 22t28.5 62l17 -4q-8 -34 -21.5 -54.5t-30 -31.5t-34.5 -14.5t-34 -3.5z" />
    <glyph glyph-name="u" unicode="u" horiz-adv-x="525" 
d="M174 140q0 -35 2.5 -59t8.5 -39t17.5 -21.5t29.5 -6.5q27 0 48 18t35.5 42.5t22 51.5t7.5 45v240h-72v19h162v-411h76v-19h-159l-1 106h-1q-20 -52 -54 -85t-87 -33q-24 0 -46.5 6t-40 22t-28 44.5t-10.5 72.5v278h-76v19h166v-290z" />
    <glyph glyph-name="v" unicode="v" horiz-adv-x="489" 
d="M338 430h146v-19h-59l-119 -348q-14 -41 -24.5 -58t-37.5 -17q-15 0 -25 6.5t-17.5 18.5t-13.5 28.5t-13 37.5l-114 332h-56v19h215v-19h-62l118 -358h1l122 358h-61v19z" />
    <glyph glyph-name="w" unicode="w" 
d="M566 430h146v-19h-59l-99 -348q-12 -41 -23.5 -58t-38.5 -17q-15 0 -25.5 6.5t-18 18t-13 28.5t-12.5 38l-62 197l-75 -213q-14 -41 -24.5 -58t-37.5 -17q-31 0 -44 24.5t-25 66.5l-94 332h-56v19h215v-19h-62l98 -358h1l91 263l-35 114h97l114 -377h1l102 358h-61v19z
" />
    <glyph glyph-name="x" unicode="x" horiz-adv-x="503" 
d="M5 0v19h69l136 181l-137 211h-60v19h227v-19h-64l90 -138l104 138h-65v19h162v-19h-67l-121 -159l153 -233h66v-19h-240v19h71l-105 160l-121 -160h68v-19h-166z" />
    <glyph glyph-name="y" unicode="y" horiz-adv-x="489" 
d="M61 411h-56v19h215v-19h-62l118 -358h1l122 358h-61v19h146v-19h-59l-120 -353q-7 -19 -12 -50.5t-5 -71.5v-15q0 -80 -36.5 -127t-114.5 -47q-22 0 -41.5 8.5t-34 23t-23 32.5t-8.5 38q0 29 15.5 45t38.5 16q20 0 34 -12t14 -32q0 -13 -6 -21t-13.5 -15t-13.5 -14.5
t-6 -19.5q0 -16 13.5 -25.5t33.5 -9.5q11 0 23.5 4.5t23 18.5t17.5 40t7 70v33q0 15 -1 27t-4 25.5t-8 30.5t-13 40z" />
    <glyph glyph-name="z" unicode="z" horiz-adv-x="474" 
d="M232 18q37 0 60 6t37 16.5t21 25t13 31.5l8 26t8.5 22.5t10.5 15.5t15 6h2v-167h-374v1l271 411h-88q-29 0 -47 -5t-30 -14.5t-19 -23t-13 -30.5q-5 -14 -8.5 -26.5t-8 -22t-10.5 -15.5t-15 -6h-2v161h349v-1l-272 -411h92z" />
    <glyph glyph-name="braceleft" unicode="{" horiz-adv-x="338" 
d="M112 235q19 -7 33.5 -17t24.5 -26t15 -38.5t5 -53.5v-196q0 -31 3 -54.5t11.5 -39t24.5 -23.5t42 -8h37v-19h-65q-36 0 -61 6t-40 21.5t-22 41t-7 64.5v218q0 24 -1.5 42.5t-9 32.5t-24.5 24t-48 17v18q31 7 47.5 17t24.5 24t9.5 32.5t1.5 42.5v217q0 39 7 64.5t22 41
t40 21.5t61 6h65v-19h-37q-26 0 -42 -8t-24.5 -23.5t-11.5 -39t-3 -54.5v-195q0 -62 -20.5 -92t-57.5 -43v-2z" />
    <glyph glyph-name="bar" unicode="|" horiz-adv-x="244" 
d="M110 -267v978h24v-978h-24z" />
    <glyph glyph-name="braceright" unicode="}" horiz-adv-x="338" 
d="M226 237q-38 13 -58 43t-20 92v195q0 31 -3 54.5t-11.5 39t-24.5 23.5t-42 8h-37v19h65q36 0 61 -6t40 -21.5t22 -41t7 -64.5v-217q0 -24 1.5 -42.5t9.5 -32.5t24.5 -24t47.5 -17v-18q-31 -7 -48 -17t-24.5 -24t-9 -32.5t-1.5 -42.5v-218q0 -39 -7 -64.5t-22 -41
t-40 -21.5t-61 -6h-65v19h37q26 0 42 8t24.5 23.5t11.5 39t3 54.5v196q0 31 5 53.5t15 38.5t24.5 26t33.5 17v2v0z" />
    <glyph glyph-name="uni00A0" unicode="&#xa0;" horiz-adv-x="200" 
 />
    <glyph glyph-name="exclamdown" unicode="&#xa1;" horiz-adv-x="310" 
d="M212 -207q0 -28 -17.5 -37t-40.5 -9t-40 9t-17 37q0 52 3.5 86.5t9 63t11.5 55t11.5 61.5t9 84t3.5 122h19q0 -73 3.5 -122t9 -84t11.5 -61.5t11.5 -54.5t9 -63t3.5 -87zM220 377q0 -28 -19 -47t-45 -19q-28 0 -47 19t-19 45q0 28 19 47t45 19q28 0 47 -19t19 -45z" />
    <glyph glyph-name="sterling" unicode="&#xa3;" horiz-adv-x="565" 
d="M117 -10q-38 0 -65 22.5t-27 60.5q0 19 8 37t24.5 32t41.5 22.5t60 8.5q29 0 54 -7t46 -18q10 37 10 75q0 27 -6 50.5t-17 44.5h-145v19h135l-3 5q-19 30 -42.5 55.5t-44.5 50.5t-35 51.5t-14 57.5q0 37 21.5 64.5t54 45.5t70 27t70.5 9q49 0 87.5 -12t64 -33t39 -48.5
t13.5 -58.5q0 -56 -31 -90t-74 -34q-10 0 -21.5 3t-21 9.5t-15.5 16t-6 23.5q0 23 16 34t32 11q14 0 22.5 -5t15.5 -11.5t12.5 -11.5t13.5 -5q9 0 15 6t10.5 15t6.5 19.5t2 19.5q0 30 -12.5 54t-34.5 41.5t-51.5 27t-63.5 9.5q-66 0 -98.5 -36t-32.5 -95q0 -27 7.5 -53.5
t18.5 -52.5t23.5 -53.5t22.5 -55.5h175v-19h-168q5 -20 8.5 -39.5t3.5 -40.5q0 -25 -3 -50t-11 -50q26 -16 48 -35.5t42 -36t38.5 -27.5t38.5 -11q26 0 44.5 16.5t25.5 53.5l18 -2q-10 -58 -43.5 -83t-82.5 -25q-45 0 -83.5 19t-71.5 47l-10 8q-23 -32 -55 -52t-70 -20z
M119 141q-32 0 -51.5 -19t-19.5 -48q0 -17 6.5 -29t16.5 -20t22 -12t23 -4q36 0 63.5 19t46.5 49q-26 25 -51.5 44.5t-55.5 19.5z" />
    <glyph glyph-name="yen" unicode="&#xa5;" horiz-adv-x="630" 
d="M517 673h-78v19h186v-19h-79l-190 -366v-32h131v-19h-131v-98h131v-19h-131v-120h96v-19h-282v19h96v120h-131v19h131v98h-131v19h131v33l-175 365h-86v19h279v-19h-90l153 -334z" />
    <glyph glyph-name="dieresis" unicode="&#xa8;" horiz-adv-x="352" 
d="M332 600q0 -23 -16 -39.5t-40 -16.5q-23 0 -39.5 16.5t-16.5 39.5q0 24 16.5 40t39.5 16q24 0 40 -16t16 -40zM132 600q0 -23 -16 -39.5t-40 -16.5q-23 0 -39.5 16.5t-16.5 39.5q0 24 16.5 40t39.5 16q24 0 40 -16t16 -40z" />
    <glyph glyph-name="copyright" unicode="&#xa9;" horiz-adv-x="850" 
d="M609 256q-14 -66 -62 -101t-118 -35q-47 0 -82.5 17t-59.5 46.5t-36.5 70.5t-12.5 89t12.5 88.5t37 70t60 46.5t82.5 17q69 0 116 -35t61 -101h-25q-14 58 -55.5 85.5t-97.5 27.5q-75 0 -120 -53.5t-45 -145.5q0 -45 12 -82t33.5 -63.5t52 -40.5t67.5 -14q62 0 102 30
t52 83h26zM780 343q0 -76 -28 -141t-76 -112.5t-112.5 -74.5t-138.5 -27t-138.5 27t-112.5 74.5t-76 112.5t-28 141t28 141t76 112.5t112.5 74.5t138.5 27t138.5 -27t112.5 -74.5t76 -112.5t28 -141zM755 343q0 71 -26 132t-70.5 106t-104.5 70.5t-129 25.5t-129 -25.5
t-104.5 -70.5t-70.5 -106t-26 -132t26 -132.5t70.5 -106.5t104.5 -70.5t129 -25.5t129 25.5t104.5 70.5t70.5 106.5t26 132.5z" />
    <glyph glyph-name="guillemotleft" unicode="&#xab;" horiz-adv-x="410" 
d="M213 223q0 28 8.5 53t22.5 45t30.5 35t33.5 23l10 -19q-38 -19 -58.5 -55t-20.5 -71q0 -26 15 -38t44 -15q38 -4 50 -20t12 -39q0 -19 -13.5 -33t-36.5 -14q-21 0 -39 11.5t-30.5 31.5t-20 47t-7.5 58zM40 223q0 28 8.5 53t22.5 45t30.5 35t33.5 23l10 -19
q-38 -19 -58.5 -55t-20.5 -71q0 -26 15 -38t44 -15q38 -4 50 -20t12 -39q0 -19 -13.5 -33t-36.5 -14q-21 0 -39 11.5t-30.5 31.5t-20 47t-7.5 58z" />
    <glyph glyph-name="uni00AD" unicode="&#xad;" horiz-adv-x="331" 
d="M50 193v62h231v-62h-231z" />
    <glyph glyph-name="macron" unicode="&#xaf;" horiz-adv-x="287" 
d="M22 568v49h234v-49h-234z" />
    <glyph glyph-name="degree" unicode="&#xb0;" horiz-adv-x="374" 
d="M60 597q0 26 10 49t27 40t40.5 27t49.5 10t49 -10t40.5 -27t27.5 -40t10 -49t-10 -49t-27.5 -40t-40.5 -27t-49 -10t-49.5 10t-40.5 27t-27 40t-10 49zM85 597q0 -20 7.5 -39t21 -33t32 -22.5t41.5 -8.5q48 0 75 29.5t27 73.5q0 45 -29.5 74t-72.5 29q-20 0 -38 -7
t-32.5 -20.5t-23 -32.5t-8.5 -43z" />
    <glyph glyph-name="acute" unicode="&#xb4;" horiz-adv-x="232" 
d="M30 520l82 161h110v-6l-177 -155h-15z" />
    <glyph glyph-name="periodcentered" unicode="&#xb7;" horiz-adv-x="230" 
d="M181 227q0 -28 -19 -47t-45 -19q-28 0 -47 19t-19 45q0 28 19 47t45 19q28 0 47 -19t19 -45z" />
    <glyph glyph-name="cedilla" unicode="&#xb8;" horiz-adv-x="268" 
d="M269 -167q0 -20 -9.5 -35.5t-25 -27t-35.5 -17.5t-41 -6q-35 0 -58.5 17t-34.5 48l17 7q9 -29 27 -42t43 -13q31 0 50 17.5t19 50.5q0 37 -18.5 51t-39.5 14q-17 0 -27.5 -5t-17.5 -10l-14 15l56 103h22l-51 -97l1 -1q21 13 47 13q13 0 29 -4.5t29.5 -14.5t22.5 -25.5
t9 -37.5z" />
    <glyph glyph-name="guillemotright" unicode="&#xbb;" horiz-adv-x="410" 
d="M370 227q0 -28 -8.5 -53t-22.5 -45t-31 -35t-33 -23l-10 19q38 19 58.5 55t20.5 71q0 26 -15 38t-44 15q-38 4 -50 20t-12 39q0 19 13.5 33t36.5 14q21 0 39 -11.5t30.5 -31.5t20 -47t7.5 -58zM197 227q0 -28 -8.5 -53t-22.5 -45t-31 -35t-33 -23l-10 19q38 19 58.5 55
t20.5 71q0 26 -15 38t-44 15q-38 4 -50 20t-12 39q0 19 13.5 33t36.5 14q21 0 39 -11.5t30.5 -31.5t20 -47t7.5 -58z" />
    <glyph glyph-name="questiondown" unicode="&#xbf;" horiz-adv-x="513" 
d="M141 -107q0 -58 33.5 -92t103.5 -34q36 0 67 10.5t53 29t34.5 43.5t12.5 55q0 13 -3.5 27t-9.5 26t-14 19.5t-17 7.5q-7 0 -13 -5.5t-13 -12.5t-16 -12.5t-23 -5.5q-17 0 -31.5 8.5t-14.5 34.5q0 23 18.5 36.5t44.5 13.5q22 0 43 -11t37 -30t25.5 -43.5t9.5 -52.5
q0 -32 -13.5 -60.5t-39.5 -50.5t-63.5 -34.5t-85.5 -12.5q-52 0 -93 12t-69.5 32.5t-43.5 48t-15 59.5q0 43 17.5 72.5t43 53t56 43.5t56 44.5t43 55t17.5 75.5v22h20v-17q0 -55 -11.5 -91.5t-29 -62.5t-38 -45.5t-38 -40.5t-29 -48t-11.5 -67zM350 377q0 -28 -19 -47
t-45 -19q-28 0 -47 19t-19 45q0 28 19 47t45 19q28 0 47 -19t19 -45z" />
    <glyph glyph-name="Agrave" unicode="&#xc0;" horiz-adv-x="677" 
d="M265 627q11 34 23.5 55t44.5 21q14 0 23.5 -5.5t17 -16.5t14 -28.5t14.5 -41.5l199 -592h76v-19h-274v19h92l-82 248h-233l-76 -248h87v-19h-191v19h77zM187 290h219l-113 344h-1zM338 743l-227 133v6h120l122 -138v-1h-15z" />
    <glyph glyph-name="Aacute" unicode="&#xc1;" horiz-adv-x="677" 
d="M265 627q11 34 23.5 55t44.5 21q14 0 23.5 -5.5t17 -16.5t14 -28.5t14.5 -41.5l199 -592h76v-19h-274v19h92l-82 248h-233l-76 -248h87v-19h-191v19h77zM187 290h219l-113 344h-1zM301 743v1l122 138h120v-6l-227 -133h-15z" />
    <glyph glyph-name="Acircumflex" unicode="&#xc2;" horiz-adv-x="677" 
d="M265 627q11 34 23.5 55t44.5 21q14 0 23.5 -5.5t17 -16.5t14 -28.5t14.5 -41.5l199 -592h76v-19h-274v19h92l-82 248h-233l-76 -248h87v-19h-191v19h77zM187 290h219l-113 344h-1zM332 882q12 -48 47.5 -80.5t74.5 -50.5l-3 -9q-35 7 -69 20t-56 33q-22 -20 -56 -33
t-69 -20l-3 9q39 18 74.5 50.5t47.5 80.5h12z" />
    <glyph glyph-name="Atilde" unicode="&#xc3;" horiz-adv-x="677" 
d="M265 627q11 34 23.5 55t44.5 21q14 0 23.5 -5.5t17 -16.5t14 -28.5t14.5 -41.5l199 -592h76v-19h-274v19h92l-82 248h-233l-76 -248h87v-19h-191v19h77zM187 290h219l-113 344h-1zM179 754q0 23 5 47t15.5 44t28 32.5t42.5 12.5q21 0 41 -11.5t39 -25t36.5 -25
t34.5 -11.5q27 0 40 19t15 51h15q0 -41 -7 -66.5t-18.5 -39.5t-26 -19.5t-30.5 -5.5q-25 0 -45.5 11.5t-39 25t-36 25t-37.5 11.5q-24 0 -39 -22t-17 -53h-16z" />
    <glyph glyph-name="Adieresis" unicode="&#xc4;" horiz-adv-x="677" 
d="M265 627q11 34 23.5 55t44.5 21q14 0 23.5 -5.5t17 -16.5t14 -28.5t14.5 -41.5l199 -592h76v-19h-274v19h92l-82 248h-233l-76 -248h87v-19h-191v19h77zM187 290h219l-113 344h-1zM484 814q0 -23 -16 -39.5t-40 -16.5q-23 0 -39.5 16.5t-16.5 39.5q0 24 16.5 40t39.5 16
q24 0 40 -16t16 -40zM284 814q0 -23 -16 -39.5t-40 -16.5q-23 0 -39.5 16.5t-16.5 39.5q0 24 16.5 40t39.5 16q24 0 40 -16t16 -40z" />
    <glyph glyph-name="Aring" unicode="&#xc5;" horiz-adv-x="677" 
d="M265 627q11 34 23.5 55t44.5 21q14 0 23.5 -5.5t17 -16.5t14 -28.5t14.5 -41.5l199 -592h76v-19h-274v19h92l-82 248h-233l-76 -248h87v-19h-191v19h77zM187 290h219l-113 344h-1zM325 927q19 0 35.5 -7t29 -20t19.5 -30t7 -36q0 -40 -26.5 -65.5t-64.5 -25.5t-64.5 25.5
t-26.5 65.5q0 19 7 36t19.5 30t29 20t35.5 7zM325 764q11 0 23 4t21.5 12.5t15.5 21.5t6 32t-6 32.5t-15.5 22t-21.5 12.5t-23 4t-23 -4t-21.5 -12.5t-15.5 -22t-6 -32.5t6 -32t15.5 -21.5t21.5 -12.5t23 -4z" />
    <glyph glyph-name="AE" unicode="&#xc6;" horiz-adv-x="1026" 
d="M637 375q27 0 44.5 3t28.5 9.5t18 17.5t14 26q12 28 19 48t23 20h5v-267h-5q-16 0 -23 20t-19 48q-8 17 -15 28t-18 17t-28 8.5t-44 2.5h-46v-337h152q39 0 64.5 6t42 17t26.5 28t19 39t13.5 43t9 38t11 27.5t18.5 10.5h4v-228h-556v19h96v248h-229l-146 -248h110v-19
h-226v19h87l357 605q13 22 23 35.5t23.5 20.5t32 9.5t47.5 2.5h351v-213h-4q-12 0 -18 8.5t-10 23.5t-8 34.5t-13 41.5q-9 23 -19 39.5t-26.5 27t-41.5 15t-65 4.5h-125v-298h46zM275 290h216v365h-1z" />
    <glyph glyph-name="Ccedilla" unicode="&#xc7;" horiz-adv-x="691" 
d="M377 703q40 0 70 -8.5t52 -18t37.5 -18t27.5 -8.5q11 0 16.5 7t10.5 15.5t10.5 15.5t16.5 7h3v-240h-4q-11 0 -20.5 11.5t-17 28.5t-14 36.5t-12.5 35.5q-19 52 -62.5 83.5t-108.5 31.5q-96 0 -154 -84.5t-58 -251.5q0 -84 16 -146.5t45 -104.5t69.5 -63t90.5 -21
q103 0 161.5 56.5t70.5 156.5l23 -4q-3 -34 -17 -74.5t-44 -75.5t-78.5 -58.5t-121.5 -23.5q-65 0 -125 26.5t-105.5 74t-72.5 113.5t-27 144t26.5 144t70.5 113t102.5 73.5t122.5 26.5zM459 -167q0 -20 -9.5 -35.5t-25 -27t-35.5 -17.5t-41 -6q-35 0 -58.5 17t-34.5 48
l17 7q9 -29 27 -42t43 -13q31 0 50 17.5t19 50.5q0 37 -18.5 51t-39.5 14q-17 0 -27.5 -5t-17.5 -10l-14 15l56 103h22l-51 -97l1 -1q21 13 47 13q13 0 29 -4.5t29.5 -14.5t22.5 -25.5t9 -37.5z" />
    <glyph glyph-name="Egrave" unicode="&#xc8;" horiz-adv-x="674" 
d="M285 375q27 0 44.5 3t28.5 9.5t18 17.5t14 26q12 28 19 48t23 20h5v-267h-5q-16 0 -23 20t-19 48q-8 17 -15 28t-18 17t-28 8.5t-44 2.5h-46v-337h152q39 0 64.5 6t42 17t26.5 28t19 39t13.5 43t9 38t11 27.5t18.5 10.5h4v-228h-561v19h101v654h-101v19h531v-213h-4
q-12 0 -18 8.5t-10 23.5t-8 34.5t-13 41.5q-9 23 -19 39.5t-26.5 27t-41.5 15t-65 4.5h-125v-298h46zM387 743l-227 133v6h120l122 -138v-1h-15z" />
    <glyph glyph-name="Eacute" unicode="&#xc9;" horiz-adv-x="674" 
d="M285 375q27 0 44.5 3t28.5 9.5t18 17.5t14 26q12 28 19 48t23 20h5v-267h-5q-16 0 -23 20t-19 48q-8 17 -15 28t-18 17t-28 8.5t-44 2.5h-46v-337h152q39 0 64.5 6t42 17t26.5 28t19 39t13.5 43t9 38t11 27.5t18.5 10.5h4v-228h-561v19h101v654h-101v19h531v-213h-4
q-12 0 -18 8.5t-10 23.5t-8 34.5t-13 41.5q-9 23 -19 39.5t-26.5 27t-41.5 15t-65 4.5h-125v-298h46zM290 743v1l122 138h120v-6l-227 -133h-15z" />
    <glyph glyph-name="Ecircumflex" unicode="&#xca;" horiz-adv-x="674" 
d="M285 375q27 0 44.5 3t28.5 9.5t18 17.5t14 26q12 28 19 48t23 20h5v-267h-5q-16 0 -23 20t-19 48q-8 17 -15 28t-18 17t-28 8.5t-44 2.5h-46v-337h152q39 0 64.5 6t42 17t26.5 28t19 39t13.5 43t9 38t11 27.5t18.5 10.5h4v-228h-561v19h101v654h-101v19h531v-213h-4
q-12 0 -18 8.5t-10 23.5t-8 34.5t-13 41.5q-9 23 -19 39.5t-26.5 27t-41.5 15t-65 4.5h-125v-298h46zM363 882q12 -48 47.5 -80.5t74.5 -50.5l-3 -9q-35 7 -69 20t-56 33q-22 -20 -56 -33t-69 -20l-3 9q39 18 74.5 50.5t47.5 80.5h12z" />
    <glyph glyph-name="Edieresis" unicode="&#xcb;" horiz-adv-x="674" 
d="M285 375q27 0 44.5 3t28.5 9.5t18 17.5t14 26q12 28 19 48t23 20h5v-267h-5q-16 0 -23 20t-19 48q-8 17 -15 28t-18 17t-28 8.5t-44 2.5h-46v-337h152q39 0 64.5 6t42 17t26.5 28t19 39t13.5 43t9 38t11 27.5t18.5 10.5h4v-228h-561v19h101v654h-101v19h531v-213h-4
q-12 0 -18 8.5t-10 23.5t-8 34.5t-13 41.5q-9 23 -19 39.5t-26.5 27t-41.5 15t-65 4.5h-125v-298h46zM512 814q0 -23 -16 -39.5t-40 -16.5q-23 0 -39.5 16.5t-16.5 39.5q0 24 16.5 40t39.5 16q24 0 40 -16t16 -40zM312 814q0 -23 -16 -39.5t-40 -16.5q-23 0 -39.5 16.5
t-16.5 39.5q0 24 16.5 40t39.5 16q24 0 40 -16t16 -40z" />
    <glyph glyph-name="Igrave" unicode="&#xcc;" horiz-adv-x="378" 
d="M38 0v19h101v654h-101v19h302v-19h-101v-654h101v-19h-302zM257 743l-227 133v6h120l122 -138v-1h-15z" />
    <glyph glyph-name="Iacute" unicode="&#xcd;" horiz-adv-x="378" 
d="M38 0v19h101v654h-101v19h302v-19h-101v-654h101v-19h-302zM110 743v1l122 138h120v-6l-227 -133h-15z" />
    <glyph glyph-name="Icircumflex" unicode="&#xce;" horiz-adv-x="378" 
d="M38 0v19h101v654h-101v19h302v-19h-101v-654h101v-19h-302zM195 882q12 -48 47.5 -80.5t74.5 -50.5l-3 -9q-35 7 -69 20t-56 33q-22 -20 -56 -33t-69 -20l-3 9q39 18 74.5 50.5t47.5 80.5h12z" />
    <glyph glyph-name="Idieresis" unicode="&#xcf;" horiz-adv-x="378" 
d="M38 0v19h101v654h-101v19h302v-19h-101v-654h101v-19h-302zM345 814q0 -23 -16 -39.5t-40 -16.5q-23 0 -39.5 16.5t-16.5 39.5q0 24 16.5 40t39.5 16q24 0 40 -16t16 -40zM145 814q0 -23 -16 -39.5t-40 -16.5q-23 0 -39.5 16.5t-16.5 39.5q0 24 16.5 40t39.5 16
q24 0 40 -16t16 -40z" />
    <glyph glyph-name="Eth" unicode="&#xd0;" horiz-adv-x="756" 
d="M50 377h99v296h-101v19h90q13 0 38 0.5t52 0.5t51.5 0.5t38.5 0.5q81 0 150.5 -23.5t121.5 -68.5t81.5 -111t29.5 -152t-29.5 -150t-80 -106.5t-117 -63.5t-140.5 -21q-19 0 -45.5 0.5t-54.5 0.5t-53.5 0.5t-43.5 0.5h-89v19h101v339h-99v19zM587 339q0 87 -18 150.5
t-52.5 104.5t-84 60.5t-112.5 19.5h-71v-297h102v-19h-102v-340h77q64 0 112.5 17.5t81.5 55.5t50 99.5t17 148.5z" />
    <glyph glyph-name="Ntilde" unicode="&#xd1;" horiz-adv-x="743" 
d="M629 94q0 -20 -1 -39t-6 -34t-15.5 -24t-30.5 -9q-26 0 -46.5 18t-45.5 62l-317 538h-1v-587h101v-19h-229v19h101v654h-101v19h100q35 0 56 -4t36 -15.5t27 -30.5t30 -49l314 -526h1v606h-101v19h229v-19h-101v-579zM246 754q0 23 5 47t15.5 44t28 32.5t42.5 12.5
q21 0 41 -11.5t39 -25t36.5 -25t34.5 -11.5q27 0 40 19t15 51h15q0 -41 -7 -66.5t-18.5 -39.5t-26 -19.5t-30.5 -5.5q-25 0 -45.5 11.5t-39 25t-36 25t-37.5 11.5q-24 0 -39 -22t-17 -53h-16z" />
    <glyph glyph-name="Ograve" unicode="&#xd2;" horiz-adv-x="770" 
d="M170 346q0 -80 15 -143t43 -107t68 -67t89 -23t89 23t68 67t43 107t15 143t-15 143t-43 106.5t-68 66.5t-89 23t-89 -23t-68 -66.5t-43 -106.5t-15 -143zM55 346q0 76 25.5 141.5t70 113.5t104.5 75t130 27t130 -27t104.5 -75t70 -113.5t25.5 -141.5t-25.5 -141.5
t-70 -113.5t-104.5 -75.5t-130 -27.5t-130 27.5t-104.5 75.5t-70 113.5t-25.5 141.5zM397 743l-227 133v6h120l122 -138v-1h-15z" />
    <glyph glyph-name="Oacute" unicode="&#xd3;" horiz-adv-x="770" 
d="M170 346q0 -80 15 -143t43 -107t68 -67t89 -23t89 23t68 67t43 107t15 143t-15 143t-43 106.5t-68 66.5t-89 23t-89 -23t-68 -66.5t-43 -106.5t-15 -143zM55 346q0 76 25.5 141.5t70 113.5t104.5 75t130 27t130 -27t104.5 -75t70 -113.5t25.5 -141.5t-25.5 -141.5
t-70 -113.5t-104.5 -75.5t-130 -27.5t-130 27.5t-104.5 75.5t-70 113.5t-25.5 141.5zM347 743v1l122 138h120v-6l-227 -133h-15z" />
    <glyph glyph-name="Ocircumflex" unicode="&#xd4;" horiz-adv-x="770" 
d="M170 346q0 -80 15 -143t43 -107t68 -67t89 -23t89 23t68 67t43 107t15 143t-15 143t-43 106.5t-68 66.5t-89 23t-89 -23t-68 -66.5t-43 -106.5t-15 -143zM55 346q0 76 25.5 141.5t70 113.5t104.5 75t130 27t130 -27t104.5 -75t70 -113.5t25.5 -141.5t-25.5 -141.5
t-70 -113.5t-104.5 -75.5t-130 -27.5t-130 27.5t-104.5 75.5t-70 113.5t-25.5 141.5zM391 882q12 -48 47.5 -80.5t74.5 -50.5l-3 -9q-35 7 -69 20t-56 33q-22 -20 -56 -33t-69 -20l-3 9q39 18 74.5 50.5t47.5 80.5h12z" />
    <glyph glyph-name="Otilde" unicode="&#xd5;" horiz-adv-x="770" 
d="M170 346q0 -80 15 -143t43 -107t68 -67t89 -23t89 23t68 67t43 107t15 143t-15 143t-43 106.5t-68 66.5t-89 23t-89 -23t-68 -66.5t-43 -106.5t-15 -143zM55 346q0 76 25.5 141.5t70 113.5t104.5 75t130 27t130 -27t104.5 -75t70 -113.5t25.5 -141.5t-25.5 -141.5
t-70 -113.5t-104.5 -75.5t-130 -27.5t-130 27.5t-104.5 75.5t-70 113.5t-25.5 141.5zM235 754q0 23 5 47t15.5 44t28 32.5t42.5 12.5q21 0 41 -11.5t39 -25t36.5 -25t34.5 -11.5q27 0 40 19t15 51h15q0 -41 -7 -66.5t-18.5 -39.5t-26 -19.5t-30.5 -5.5q-25 0 -45.5 11.5
t-39 25t-36 25t-37.5 11.5q-24 0 -39 -22t-17 -53h-16z" />
    <glyph glyph-name="Odieresis" unicode="&#xd6;" horiz-adv-x="770" 
d="M170 346q0 -80 15 -143t43 -107t68 -67t89 -23t89 23t68 67t43 107t15 143t-15 143t-43 106.5t-68 66.5t-89 23t-89 -23t-68 -66.5t-43 -106.5t-15 -143zM55 346q0 76 25.5 141.5t70 113.5t104.5 75t130 27t130 -27t104.5 -75t70 -113.5t25.5 -141.5t-25.5 -141.5
t-70 -113.5t-104.5 -75.5t-130 -27.5t-130 27.5t-104.5 75.5t-70 113.5t-25.5 141.5zM541 814q0 -23 -16 -39.5t-40 -16.5q-23 0 -39.5 16.5t-16.5 39.5q0 24 16.5 40t39.5 16q24 0 40 -16t16 -40zM341 814q0 -23 -16 -39.5t-40 -16.5q-23 0 -39.5 16.5t-16.5 39.5
q0 24 16.5 40t39.5 16q24 0 40 -16t16 -40z" />
    <glyph glyph-name="multiply" unicode="&#xd7;" horiz-adv-x="469" 
d="M250 219l170 -170l-17 -17l-170 170l-169 -169l-17 17l169 169l-176 176l17 17l176 -176l179 179l17 -17z" />
    <glyph glyph-name="Oslash" unicode="&#xd8;" horiz-adv-x="770" 
d="M55 346q0 76 25.5 141.5t70 113.5t104.5 75t130 27q65 0 121 -23.5t100 -65.5l80 92l16 -14l-81 -93q45 -48 69.5 -113t24.5 -140q0 -76 -25.5 -141.5t-70 -113.5t-104.5 -75.5t-130 -27.5q-63 0 -118 22t-99 62l-84 -97l-16 14l85 99q-46 48 -72 114t-26 144zM170 346
q0 -120 33 -201l357 415q-28 61 -72.5 93t-102.5 32q-49 0 -89 -23t-68 -66.5t-43 -106.5t-15 -143zM600 346q0 57 -8 105t-23 87l-357 -415q28 -57 72 -87t101 -30q49 0 89 23t68 67t43 107t15 143z" />
    <glyph glyph-name="Ugrave" unicode="&#xd9;" 
d="M576 673h-101v19h231v-19h-101v-409q0 -38 -3 -68t-8.5 -53t-14 -41t-19.5 -33q-34 -45 -85.5 -63t-111.5 -18q-110 0 -173 48q-41 31 -60.5 82t-19.5 135v420h-100v19h301v-19h-101v-402q0 -81 8.5 -124t28.5 -69q20 -28 53 -42.5t81 -14.5q46 0 88.5 15.5t69.5 53.5
q17 24 27 60.5t10 102.5v420zM417 743l-227 133v6h120l122 -138v-1h-15z" />
    <glyph glyph-name="Uacute" unicode="&#xda;" 
d="M576 673h-101v19h231v-19h-101v-409q0 -38 -3 -68t-8.5 -53t-14 -41t-19.5 -33q-34 -45 -85.5 -63t-111.5 -18q-110 0 -173 48q-41 31 -60.5 82t-19.5 135v420h-100v19h301v-19h-101v-402q0 -81 8.5 -124t28.5 -69q20 -28 53 -42.5t81 -14.5q46 0 88.5 15.5t69.5 53.5
q17 24 27 60.5t10 102.5v420zM360 743v1l122 138h120v-6l-227 -133h-15z" />
    <glyph glyph-name="Ucircumflex" unicode="&#xdb;" 
d="M576 673h-101v19h231v-19h-101v-409q0 -38 -3 -68t-8.5 -53t-14 -41t-19.5 -33q-34 -45 -85.5 -63t-111.5 -18q-110 0 -173 48q-41 31 -60.5 82t-19.5 135v420h-100v19h301v-19h-101v-402q0 -81 8.5 -124t28.5 -69q20 -28 53 -42.5t81 -14.5q46 0 88.5 15.5t69.5 53.5
q17 24 27 60.5t10 102.5v420zM393 882q12 -48 47.5 -80.5t74.5 -50.5l-3 -9q-35 7 -69 20t-56 33q-22 -20 -56 -33t-69 -20l-3 9q39 18 74.5 50.5t47.5 80.5h12z" />
    <glyph glyph-name="Udieresis" unicode="&#xdc;" 
d="M576 673h-101v19h231v-19h-101v-409q0 -38 -3 -68t-8.5 -53t-14 -41t-19.5 -33q-34 -45 -85.5 -63t-111.5 -18q-110 0 -173 48q-41 31 -60.5 82t-19.5 135v420h-100v19h301v-19h-101v-402q0 -81 8.5 -124t28.5 -69q20 -28 53 -42.5t81 -14.5q46 0 88.5 15.5t69.5 53.5
q17 24 27 60.5t10 102.5v420zM543 814q0 -23 -16 -39.5t-40 -16.5q-23 0 -39.5 16.5t-16.5 39.5q0 24 16.5 40t39.5 16q24 0 40 -16t16 -40zM343 814q0 -23 -16 -39.5t-40 -16.5q-23 0 -39.5 16.5t-16.5 39.5q0 24 16.5 40t39.5 16q24 0 40 -16t16 -40z" />
    <glyph glyph-name="Yacute" unicode="&#xdd;" horiz-adv-x="640" 
d="M527 673h-83v19h196v-19h-84l-190 -366v-288h101v-19h-302v19h101v289l-175 365h-91v19h299v-19h-95l153 -334zM342 743v1l122 138h120v-6l-227 -133h-15z" />
    <glyph glyph-name="Thorn" unicode="&#xde;" horiz-adv-x="627" 
d="M333 197q40 0 70 7.5t50.5 27.5t31 54.5t10.5 89.5q0 51 -9.5 85t-29 54.5t-49.5 29t-70 8.5h-98v-356h94zM344 571q52 0 99.5 -12.5t84 -37.5t58 -61t21.5 -84q0 -46 -20 -82.5t-54 -62t-78.5 -39t-93.5 -13.5h-122v-160h111v-19h-312v19h101v654h-101v19h300v-19h-99
v-102h105z" />
    <glyph glyph-name="germandbls" unicode="&#xdf;" horiz-adv-x="595" 
d="M324 723q37 0 68 -10.5t53.5 -30.5t35 -48t12.5 -64q0 -60 -36 -104t-98 -58v-1q39 -8 74 -27t62 -46.5t42.5 -62t15.5 -73.5q0 -41 -15.5 -79t-41.5 -67t-61.5 -46.5t-74.5 -17.5q-26 0 -49 7.5t-40 21t-27 31.5t-10 39q0 26 15.5 39.5t34.5 13.5q17 0 29 -10.5
t12 -26.5q0 -13 -4.5 -20.5t-10.5 -13.5t-10.5 -11.5t-4.5 -13.5q0 -17 18.5 -27.5t41.5 -10.5q30 0 49 11.5t29 35.5t13.5 60.5t3.5 86.5q0 104 -39.5 151.5t-110.5 47.5h-20v19h24q39 0 70 12.5t52.5 33.5t33 48.5t11.5 57.5q0 34 -12 59.5t-32.5 42t-47 24.5t-55.5 8
q-27 0 -50.5 -8.5t-41 -28.5t-27.5 -54t-10 -86v-527h-166v19h76v392h-76v19h76v12q0 53 10.5 103.5t36 90t67.5 63.5t105 24z" />
    <glyph glyph-name="agrave" unicode="&#xe0;" horiz-adv-x="489" 
d="M308 210q-85 8 -125 -17t-40 -88q0 -44 14.5 -70t46.5 -26q19 0 38 10.5t33.5 33.5t23.5 59.5t9 88.5v9zM314 88q-6 -19 -16.5 -37t-25.5 -32t-35 -22.5t-44 -8.5q-29 0 -56 7t-49 21.5t-35 35.5t-13 50q0 36 23.5 61.5t61 40.5t85 21t95.5 4v83q0 36 -6.5 58.5t-18.5 35
t-29 16.5t-37 4q-37 0 -62 -9.5t-25 -25.5q0 -9 6 -14t12.5 -10.5t12.5 -13t6 -21.5q0 -18 -13 -31t-33 -13t-35.5 15.5t-15.5 40.5q0 21 12 39t33 31.5t50 21.5t63 8q35 0 66 -5.5t54 -22t36 -46t13 -76.5l-1 -229q0 -26 6 -38t24 -12q14 0 29 12t21 42l17 -4
q-8 -38 -32 -56.5t-59 -18.5q-17 0 -32.5 5t-26.5 16.5t-17.5 30t-6.5 46.5h-2zM261 520l-177 152v9h110l82 -160v-1h-15z" />
    <glyph glyph-name="aacute" unicode="&#xe1;" horiz-adv-x="489" 
d="M308 210q-85 8 -125 -17t-40 -88q0 -44 14.5 -70t46.5 -26q19 0 38 10.5t33.5 33.5t23.5 59.5t9 88.5v9zM314 88q-6 -19 -16.5 -37t-25.5 -32t-35 -22.5t-44 -8.5q-29 0 -56 7t-49 21.5t-35 35.5t-13 50q0 36 23.5 61.5t61 40.5t85 21t95.5 4v83q0 36 -6.5 58.5t-18.5 35
t-29 16.5t-37 4q-37 0 -62 -9.5t-25 -25.5q0 -9 6 -14t12.5 -10.5t12.5 -13t6 -21.5q0 -18 -13 -31t-33 -13t-35.5 15.5t-15.5 40.5q0 21 12 39t33 31.5t50 21.5t63 8q35 0 66 -5.5t54 -22t36 -46t13 -76.5l-1 -229q0 -26 6 -38t24 -12q14 0 29 12t21 42l17 -4
q-8 -38 -32 -56.5t-59 -18.5q-17 0 -32.5 5t-26.5 16.5t-17.5 30t-6.5 46.5h-2zM202 520l82 161h110v-6l-177 -155h-15z" />
    <glyph glyph-name="acircumflex" unicode="&#xe2;" horiz-adv-x="489" 
d="M308 210q-85 8 -125 -17t-40 -88q0 -44 14.5 -70t46.5 -26q19 0 38 10.5t33.5 33.5t23.5 59.5t9 88.5v9zM314 88q-6 -19 -16.5 -37t-25.5 -32t-35 -22.5t-44 -8.5q-29 0 -56 7t-49 21.5t-35 35.5t-13 50q0 36 23.5 61.5t61 40.5t85 21t95.5 4v83q0 36 -6.5 58.5t-18.5 35
t-29 16.5t-37 4q-37 0 -62 -9.5t-25 -25.5q0 -9 6 -14t12.5 -10.5t12.5 -13t6 -21.5q0 -18 -13 -31t-33 -13t-35.5 15.5t-15.5 40.5q0 21 12 39t33 31.5t50 21.5t63 8q35 0 66 -5.5t54 -22t36 -46t13 -76.5l-1 -229q0 -26 6 -38t24 -12q14 0 29 12t21 42l17 -4
q-8 -38 -32 -56.5t-59 -18.5q-17 0 -32.5 5t-26.5 16.5t-17.5 30t-6.5 46.5h-2zM242 681q6 -24 20 -48.5t31.5 -46t36 -39t33.5 -27.5l-5 -7q-31 10 -64.5 29.5t-57.5 46.5q-24 -27 -57.5 -46.5t-64.5 -29.5l-5 7q15 10 33.5 27.5t36 39t31.5 46t20 48.5h12z" />
    <glyph glyph-name="atilde" unicode="&#xe3;" horiz-adv-x="489" 
d="M308 210q-85 8 -125 -17t-40 -88q0 -44 14.5 -70t46.5 -26q19 0 38 10.5t33.5 33.5t23.5 59.5t9 88.5v9zM314 88q-6 -19 -16.5 -37t-25.5 -32t-35 -22.5t-44 -8.5q-29 0 -56 7t-49 21.5t-35 35.5t-13 50q0 36 23.5 61.5t61 40.5t85 21t95.5 4v83q0 36 -6.5 58.5t-18.5 35
t-29 16.5t-37 4q-37 0 -62 -9.5t-25 -25.5q0 -9 6 -14t12.5 -10.5t12.5 -13t6 -21.5q0 -18 -13 -31t-33 -13t-35.5 15.5t-15.5 40.5q0 21 12 39t33 31.5t50 21.5t63 8q35 0 66 -5.5t54 -22t36 -46t13 -76.5l-1 -229q0 -26 6 -38t24 -12q14 0 29 12t21 42l17 -4
q-8 -38 -32 -56.5t-59 -18.5q-17 0 -32.5 5t-26.5 16.5t-17.5 30t-6.5 46.5h-2zM76 531q0 23 5 47t15.5 44t28 32.5t42.5 12.5q21 0 41 -11.5t39 -25t36.5 -25t34.5 -11.5q27 0 40 19t15 51h15q0 -41 -7 -66.5t-18.5 -39.5t-26 -19.5t-30.5 -5.5q-25 0 -45.5 11.5t-39 25
t-36 25t-37.5 11.5q-24 0 -39 -22t-17 -53h-16z" />
    <glyph glyph-name="adieresis" unicode="&#xe4;" horiz-adv-x="489" 
d="M308 210q-85 8 -125 -17t-40 -88q0 -44 14.5 -70t46.5 -26q19 0 38 10.5t33.5 33.5t23.5 59.5t9 88.5v9zM314 88q-6 -19 -16.5 -37t-25.5 -32t-35 -22.5t-44 -8.5q-29 0 -56 7t-49 21.5t-35 35.5t-13 50q0 36 23.5 61.5t61 40.5t85 21t95.5 4v83q0 36 -6.5 58.5t-18.5 35
t-29 16.5t-37 4q-37 0 -62 -9.5t-25 -25.5q0 -9 6 -14t12.5 -10.5t12.5 -13t6 -21.5q0 -18 -13 -31t-33 -13t-35.5 15.5t-15.5 40.5q0 21 12 39t33 31.5t50 21.5t63 8q35 0 66 -5.5t54 -22t36 -46t13 -76.5l-1 -229q0 -26 6 -38t24 -12q14 0 29 12t21 42l17 -4
q-8 -38 -32 -56.5t-59 -18.5q-17 0 -32.5 5t-26.5 16.5t-17.5 30t-6.5 46.5h-2zM390 600q0 -23 -16 -39.5t-40 -16.5q-23 0 -39.5 16.5t-16.5 39.5q0 24 16.5 40t39.5 16q24 0 40 -16t16 -40zM190 600q0 -23 -16 -39.5t-40 -16.5q-23 0 -39.5 16.5t-16.5 39.5q0 24 16.5 40
t39.5 16q24 0 40 -16t16 -40z" />
    <glyph glyph-name="aring" unicode="&#xe5;" horiz-adv-x="489" 
d="M308 210q-85 8 -125 -17t-40 -88q0 -44 14.5 -70t46.5 -26q19 0 38 10.5t33.5 33.5t23.5 59.5t9 88.5v9zM314 88q-6 -19 -16.5 -37t-25.5 -32t-35 -22.5t-44 -8.5q-29 0 -56 7t-49 21.5t-35 35.5t-13 50q0 36 23.5 61.5t61 40.5t85 21t95.5 4v83q0 36 -6.5 58.5t-18.5 35
t-29 16.5t-37 4q-37 0 -62 -9.5t-25 -25.5q0 -9 6 -14t12.5 -10.5t12.5 -13t6 -21.5q0 -18 -13 -31t-33 -13t-35.5 15.5t-15.5 40.5q0 21 12 39t33 31.5t50 21.5t63 8q35 0 66 -5.5t54 -22t36 -46t13 -76.5l-1 -229q0 -26 6 -38t24 -12q14 0 29 12t21 42l17 -4
q-8 -38 -32 -56.5t-59 -18.5q-17 0 -32.5 5t-26.5 16.5t-17.5 30t-6.5 46.5h-2zM232 706q19 0 35.5 -7t29 -20t19.5 -30t7 -36q0 -40 -26.5 -65.5t-64.5 -25.5t-64.5 25.5t-26.5 65.5q0 19 7 36t19.5 30t29 20t35.5 7zM232 543q11 0 23 4t21.5 12.5t15.5 21.5t6 32t-6 32.5
t-15.5 22t-21.5 12.5t-23 4t-23 -4t-21.5 -12.5t-15.5 -22t-6 -32.5t6 -32t15.5 -21.5t21.5 -12.5t23 -4z" />
    <glyph glyph-name="ae" unicode="&#xe6;" horiz-adv-x="694" 
d="M386 234v-2v-20q0 -92 26.5 -147.5t85.5 -55.5q46 0 81 29.5t46 91.5l22 -4q-12 -67 -54 -102.5t-104 -35.5q-66 0 -110.5 36t-64.5 96q-10 -60 -44.5 -96t-82.5 -36q-29 0 -55.5 7.5t-46.5 22.5t-32.5 36.5t-12.5 50.5q0 36 19 60t53.5 38t81 20t102.5 6v50
q0 33 -2 57.5t-7 41.5q-9 27 -28.5 37.5t-45.5 10.5q-33 0 -53.5 -10t-20.5 -29q0 -8 6 -12t12.5 -9t12.5 -12.5t6 -21.5q0 -18 -13 -31t-33 -13t-35.5 15.5t-15.5 40.5q0 21 10.5 39t30 31.5t45.5 21.5t58 8q44 0 79 -12.5t56 -49.5q24 29 56 45t70 16q31 0 61.5 -12
t54 -34.5t38 -55t14.5 -73.5v-15.5t-2 -18.5h-264zM484 427q-24 0 -41.5 -13t-30 -36.5t-19 -55.5t-7.5 -69h183v32q0 66 -21.5 104t-63.5 38zM299 210h-4q-45 0 -74 -4.5t-46.5 -16.5t-24.5 -32.5t-7 -51.5q0 -44 11.5 -70t43.5 -26q19 0 37.5 10.5t32.5 33.5t22.5 59.5
t8.5 88.5v9z" />
    <glyph glyph-name="ccedilla" unicode="&#xe7;" horiz-adv-x="449" 
d="M145 215q0 -95 28 -150.5t87 -55.5q46 0 81 29.5t46 91.5l22 -4q-12 -67 -54 -102.5t-104 -35.5q-44 0 -82.5 17t-66.5 47t-44 71t-16 90q0 45 15.5 86.5t44.5 73.5t70 51t93 19q30 0 55.5 -8t44.5 -22.5t30 -34.5t11 -44t-16 -42.5t-40 -18.5q-21 0 -36 13t-15 34
q0 16 9.5 26.5t20.5 17.5q17 10 17 23t-20 25.5t-54 12.5q-39 0 -64 -21t-39 -52.5t-19 -68.5t-5 -68zM323 -167q0 -20 -9.5 -35.5t-25 -27t-35.5 -17.5t-41 -6q-35 0 -58.5 17t-34.5 48l17 7q9 -29 27 -42t43 -13q31 0 50 17.5t19 50.5q0 37 -18.5 51t-39.5 14
q-17 0 -27.5 -5t-17.5 -10l-14 15l56 103h22l-51 -97l1 -1q21 13 47 13q13 0 29 -4.5t29.5 -14.5t22.5 -25.5t9 -37.5z" />
    <glyph glyph-name="egrave" unicode="&#xe8;" horiz-adv-x="478" 
d="M145 234v-2v-20q0 -46 6.5 -83.5t21.5 -64t38.5 -41t57.5 -14.5q22 0 44 7.5t40.5 22.5t32.5 37.5t20 53.5l22 -4q-6 -33 -22 -59t-38.5 -43.5t-50.5 -26.5t-58 -9q-47 0 -86.5 16.5t-68.5 46.5t-45.5 71t-16.5 90q0 48 17 90t45.5 73.5t66 49.5t78.5 18q34 0 69 -13
t62 -39t42.5 -65.5t12.5 -91.5h-290zM249 427q-24 0 -43 -13t-32 -36.5t-20.5 -55.5t-8.5 -69h194q4 90 -20.5 132t-69.5 42zM275 520l-177 152v9h110l82 -160v-1h-15z" />
    <glyph glyph-name="eacute" unicode="&#xe9;" horiz-adv-x="478" 
d="M145 234v-2v-20q0 -46 6.5 -83.5t21.5 -64t38.5 -41t57.5 -14.5q22 0 44 7.5t40.5 22.5t32.5 37.5t20 53.5l22 -4q-6 -33 -22 -59t-38.5 -43.5t-50.5 -26.5t-58 -9q-47 0 -86.5 16.5t-68.5 46.5t-45.5 71t-16.5 90q0 48 17 90t45.5 73.5t66 49.5t78.5 18q34 0 69 -13
t62 -39t42.5 -65.5t12.5 -91.5h-290zM249 427q-24 0 -43 -13t-32 -36.5t-20.5 -55.5t-8.5 -69h194q4 90 -20.5 132t-69.5 42zM230 520l82 161h110v-6l-177 -155h-15z" />
    <glyph glyph-name="ecircumflex" unicode="&#xea;" horiz-adv-x="478" 
d="M145 234v-2v-20q0 -46 6.5 -83.5t21.5 -64t38.5 -41t57.5 -14.5q22 0 44 7.5t40.5 22.5t32.5 37.5t20 53.5l22 -4q-6 -33 -22 -59t-38.5 -43.5t-50.5 -26.5t-58 -9q-47 0 -86.5 16.5t-68.5 46.5t-45.5 71t-16.5 90q0 48 17 90t45.5 73.5t66 49.5t78.5 18q34 0 69 -13
t62 -39t42.5 -65.5t12.5 -91.5h-290zM249 427q-24 0 -43 -13t-32 -36.5t-20.5 -55.5t-8.5 -69h194q4 90 -20.5 132t-69.5 42zM255 681q6 -24 20 -48.5t31.5 -46t36 -39t33.5 -27.5l-5 -7q-31 10 -64.5 29.5t-57.5 46.5q-24 -27 -57.5 -46.5t-64.5 -29.5l-5 7
q15 10 33.5 27.5t36 39t31.5 46t20 48.5h12z" />
    <glyph glyph-name="edieresis" unicode="&#xeb;" horiz-adv-x="478" 
d="M145 234v-2v-20q0 -46 6.5 -83.5t21.5 -64t38.5 -41t57.5 -14.5q22 0 44 7.5t40.5 22.5t32.5 37.5t20 53.5l22 -4q-6 -33 -22 -59t-38.5 -43.5t-50.5 -26.5t-58 -9q-47 0 -86.5 16.5t-68.5 46.5t-45.5 71t-16.5 90q0 48 17 90t45.5 73.5t66 49.5t78.5 18q34 0 69 -13
t62 -39t42.5 -65.5t12.5 -91.5h-290zM249 427q-24 0 -43 -13t-32 -36.5t-20.5 -55.5t-8.5 -69h194q4 90 -20.5 132t-69.5 42zM406 600q0 -23 -16 -39.5t-40 -16.5q-23 0 -39.5 16.5t-16.5 39.5q0 24 16.5 40t39.5 16q24 0 40 -16t16 -40zM206 600q0 -23 -16 -39.5t-40 -16.5
q-23 0 -39.5 16.5t-16.5 39.5q0 24 16.5 40t39.5 16q24 0 40 -16t16 -40z" />
    <glyph glyph-name="igrave" unicode="&#xec;" horiz-adv-x="297" 
d="M154 520l-177 152v9h110l82 -160v-1h-15zM29 0v19h76v392h-76v19h166v-411h76v-19h-242z" />
    <glyph glyph-name="iacute" unicode="&#xed;" horiz-adv-x="297" 
d="M92 520l82 161h110v-6l-177 -155h-15zM29 0v19h76v392h-76v19h166v-411h76v-19h-242z" />
    <glyph glyph-name="icircumflex" unicode="&#xee;" horiz-adv-x="297" 
d="M153 681q6 -24 20 -48.5t31.5 -46t36 -39t33.5 -27.5l-5 -7q-31 10 -64.5 29.5t-57.5 46.5q-24 -27 -57.5 -46.5t-64.5 -29.5l-5 7q15 10 33.5 27.5t36 39t31.5 46t20 48.5h12zM29 0v19h76v392h-76v19h166v-411h76v-19h-242z" />
    <glyph glyph-name="idieresis" unicode="&#xef;" horiz-adv-x="297" 
d="M29 0v19h76v392h-76v19h166v-411h76v-19h-242zM298 600q0 -23 -16 -39.5t-40 -16.5q-23 0 -39.5 16.5t-16.5 39.5q0 24 16.5 40t39.5 16q24 0 40 -16t16 -40zM98 600q0 -23 -16 -39.5t-40 -16.5q-23 0 -39.5 16.5t-16.5 39.5q0 24 16.5 40t39.5 16q24 0 40 -16t16 -40z
" />
    <glyph glyph-name="eth" unicode="&#xf0;" horiz-adv-x="539" 
d="M217 574l61 66q-32 26 -68 41t-68 23l6 19q81 -15 152 -60l57 61l14 -15l-53 -57q55 -38 92 -87q37 -50 58 -112.5t21 -138.5q0 -81 -17 -142t-48 -102t-75 -61.5t-97 -20.5q-39 0 -77 15.5t-68.5 44t-49.5 68.5t-19 89q0 52 17 92t45.5 67.5t65 41.5t74.5 14
q55 0 94 -27.5t56 -79.5h3v5q0 75 -10 129.5t-28 94.5q-12 26 -27.5 47t-33.5 38l-63 -67zM384 202q0 54 -11.5 91t-29.5 60.5t-40 34t-44 10.5q-24 0 -45.5 -8t-38 -29.5t-26 -59t-9.5 -96.5q0 -60 9.5 -99t25.5 -62t37 -32t44 -9q25 0 48.5 13t41 38.5t28 62.5t10.5 85z
" />
    <glyph glyph-name="ntilde" unicode="&#xf1;" horiz-adv-x="554" 
d="M29 19h76v392h-76v19h159l2 -107h1q20 52 57.5 85t89.5 33q39 0 64 -13.5t38.5 -36t18.5 -51.5t5 -61v-260h76v-19h-238v19h72v244q0 30 -0.5 57.5t-6 48.5t-17.5 33.5t-36 12.5q-27 0 -49 -17.5t-37.5 -42t-24 -50.5t-8.5 -42v-244h72v-19h-238v19zM139 531q0 23 5 47
t15.5 44t28 32.5t42.5 12.5q21 0 41 -11.5t39 -25t36.5 -25t34.5 -11.5q27 0 40 19t15 51h15q0 -41 -7 -66.5t-18.5 -39.5t-26 -19.5t-30.5 -5.5q-25 0 -45.5 11.5t-39 25t-36 25t-37.5 11.5q-24 0 -39 -22t-17 -53h-16z" />
    <glyph glyph-name="ograve" unicode="&#xf2;" horiz-adv-x="504" 
d="M42 215q0 44 16.5 85.5t45 73t67 50.5t81.5 19t81.5 -19t67 -50.5t45 -73t16.5 -85.5t-16.5 -85t-45 -72.5t-67 -50.5t-81.5 -19t-81.5 19t-67 50.5t-45 72.5t-16.5 85zM146 215q0 -46 4.5 -84.5t16.5 -66.5t32.5 -44t52.5 -16t52.5 16t32.5 44t16.5 66.5t4.5 84.5
t-4.5 84.5t-16.5 67t-32.5 44.5t-52.5 16t-52.5 -16t-32.5 -44.5t-16.5 -67t-4.5 -84.5zM270 520l-177 152v9h110l82 -160v-1h-15z" />
    <glyph glyph-name="oacute" unicode="&#xf3;" horiz-adv-x="504" 
d="M42 215q0 44 16.5 85.5t45 73t67 50.5t81.5 19t81.5 -19t67 -50.5t45 -73t16.5 -85.5t-16.5 -85t-45 -72.5t-67 -50.5t-81.5 -19t-81.5 19t-67 50.5t-45 72.5t-16.5 85zM146 215q0 -46 4.5 -84.5t16.5 -66.5t32.5 -44t52.5 -16t52.5 16t32.5 44t16.5 66.5t4.5 84.5
t-4.5 84.5t-16.5 67t-32.5 44.5t-52.5 16t-52.5 -16t-32.5 -44.5t-16.5 -67t-4.5 -84.5zM240 520l82 161h110v-6l-177 -155h-15z" />
    <glyph glyph-name="ocircumflex" unicode="&#xf4;" horiz-adv-x="504" 
d="M42 215q0 44 16.5 85.5t45 73t67 50.5t81.5 19t81.5 -19t67 -50.5t45 -73t16.5 -85.5t-16.5 -85t-45 -72.5t-67 -50.5t-81.5 -19t-81.5 19t-67 50.5t-45 72.5t-16.5 85zM146 215q0 -46 4.5 -84.5t16.5 -66.5t32.5 -44t52.5 -16t52.5 16t32.5 44t16.5 66.5t4.5 84.5
t-4.5 84.5t-16.5 67t-32.5 44.5t-52.5 16t-52.5 -16t-32.5 -44.5t-16.5 -67t-4.5 -84.5zM258 681q6 -24 20 -48.5t31.5 -46t36 -39t33.5 -27.5l-5 -7q-31 10 -64.5 29.5t-57.5 46.5q-24 -27 -57.5 -46.5t-64.5 -29.5l-5 7q15 10 33.5 27.5t36 39t31.5 46t20 48.5h12z" />
    <glyph glyph-name="otilde" unicode="&#xf5;" horiz-adv-x="504" 
d="M42 215q0 44 16.5 85.5t45 73t67 50.5t81.5 19t81.5 -19t67 -50.5t45 -73t16.5 -85.5t-16.5 -85t-45 -72.5t-67 -50.5t-81.5 -19t-81.5 19t-67 50.5t-45 72.5t-16.5 85zM146 215q0 -46 4.5 -84.5t16.5 -66.5t32.5 -44t52.5 -16t52.5 16t32.5 44t16.5 66.5t4.5 84.5
t-4.5 84.5t-16.5 67t-32.5 44.5t-52.5 16t-52.5 -16t-32.5 -44.5t-16.5 -67t-4.5 -84.5zM100 531q0 23 5 47t15.5 44t28 32.5t42.5 12.5q21 0 41 -11.5t39 -25t36.5 -25t34.5 -11.5q27 0 40 19t15 51h15q0 -41 -7 -66.5t-18.5 -39.5t-26 -19.5t-30.5 -5.5q-25 0 -45.5 11.5
t-39 25t-36 25t-37.5 11.5q-24 0 -39 -22t-17 -53h-16z" />
    <glyph glyph-name="odieresis" unicode="&#xf6;" horiz-adv-x="504" 
d="M42 215q0 44 16.5 85.5t45 73t67 50.5t81.5 19t81.5 -19t67 -50.5t45 -73t16.5 -85.5t-16.5 -85t-45 -72.5t-67 -50.5t-81.5 -19t-81.5 19t-67 50.5t-45 72.5t-16.5 85zM146 215q0 -46 4.5 -84.5t16.5 -66.5t32.5 -44t52.5 -16t52.5 16t32.5 44t16.5 66.5t4.5 84.5
t-4.5 84.5t-16.5 67t-32.5 44.5t-52.5 16t-52.5 -16t-32.5 -44.5t-16.5 -67t-4.5 -84.5zM408 600q0 -23 -16 -39.5t-40 -16.5q-23 0 -39.5 16.5t-16.5 39.5q0 24 16.5 40t39.5 16q24 0 40 -16t16 -40zM208 600q0 -23 -16 -39.5t-40 -16.5q-23 0 -39.5 16.5t-16.5 39.5
q0 24 16.5 40t39.5 16q24 0 40 -16t16 -40z" />
    <glyph glyph-name="divide" unicode="&#xf7;" horiz-adv-x="536" 
d="M340 371q0 -31 -20.5 -52.5t-51.5 -21.5t-52.5 21.5t-21.5 51.5q0 32 21.5 52.5t51.5 20.5q32 0 52.5 -20.5t20.5 -51.5zM340 62q0 -31 -20.5 -52.5t-51.5 -21.5t-52.5 21.5t-21.5 51.5q0 32 21.5 52.5t51.5 20.5q32 0 52.5 -20.5t20.5 -51.5zM30 212v23h476v-23h-476z
" />
    <glyph glyph-name="oslash" unicode="&#xf8;" horiz-adv-x="504" 
d="M42 215q0 44 16.5 85.5t45 73t67 50.5t81.5 19q31 0 59.5 -10.5t53.5 -28.5l55 80l18 -12l-56 -82q37 -32 58.5 -78t21.5 -97q0 -44 -16.5 -85t-45 -72.5t-67 -50.5t-81.5 -19q-33 0 -62.5 10.5t-55.5 30.5l-49 -72l-17 12l50 73q-35 32 -55.5 77t-20.5 96zM358 215
q0 35 -2.5 66t-9.5 57l-182 -266q11 -32 32 -50t56 -18q32 0 52.5 16t32.5 44t16.5 66.5t4.5 84.5zM146 215q0 -33 2.5 -62.5t7.5 -54.5l182 266q-12 29 -33 46t-53 17t-52.5 -16t-32.5 -44.5t-16.5 -67t-4.5 -84.5z" />
    <glyph glyph-name="ugrave" unicode="&#xf9;" horiz-adv-x="525" 
d="M174 140q0 -35 2.5 -59t8.5 -39t17.5 -21.5t29.5 -6.5q27 0 48 18t35.5 42.5t22 51.5t7.5 45v240h-72v19h162v-411h76v-19h-159l-1 106h-1q-20 -52 -54 -85t-87 -33q-24 0 -46.5 6t-40 22t-28 44.5t-10.5 72.5v278h-76v19h166v-290zM275 520l-177 152v9h110l82 -160v-1
h-15z" />
    <glyph glyph-name="uacute" unicode="&#xfa;" horiz-adv-x="525" 
d="M174 140q0 -35 2.5 -59t8.5 -39t17.5 -21.5t29.5 -6.5q27 0 48 18t35.5 42.5t22 51.5t7.5 45v240h-72v19h162v-411h76v-19h-159l-1 106h-1q-20 -52 -54 -85t-87 -33q-24 0 -46.5 6t-40 22t-28 44.5t-10.5 72.5v278h-76v19h166v-290zM236 520l82 161h110v-6l-177 -155h-15
z" />
    <glyph glyph-name="ucircumflex" unicode="&#xfb;" horiz-adv-x="525" 
d="M174 140q0 -35 2.5 -59t8.5 -39t17.5 -21.5t29.5 -6.5q27 0 48 18t35.5 42.5t22 51.5t7.5 45v240h-72v19h162v-411h76v-19h-159l-1 106h-1q-20 -52 -54 -85t-87 -33q-24 0 -46.5 6t-40 22t-28 44.5t-10.5 72.5v278h-76v19h166v-290zM270 681q6 -24 20 -48.5t31.5 -46
t36 -39t33.5 -27.5l-5 -7q-31 10 -64.5 29.5t-57.5 46.5q-24 -27 -57.5 -46.5t-64.5 -29.5l-5 7q15 10 33.5 27.5t36 39t31.5 46t20 48.5h12z" />
    <glyph glyph-name="udieresis" unicode="&#xfc;" horiz-adv-x="525" 
d="M174 140q0 -35 2.5 -59t8.5 -39t17.5 -21.5t29.5 -6.5q27 0 48 18t35.5 42.5t22 51.5t7.5 45v240h-72v19h162v-411h76v-19h-159l-1 106h-1q-20 -52 -54 -85t-87 -33q-24 0 -46.5 6t-40 22t-28 44.5t-10.5 72.5v278h-76v19h166v-290zM415 600q0 -23 -16 -39.5t-40 -16.5
q-23 0 -39.5 16.5t-16.5 39.5q0 24 16.5 40t39.5 16q24 0 40 -16t16 -40zM215 600q0 -23 -16 -39.5t-40 -16.5q-23 0 -39.5 16.5t-16.5 39.5q0 24 16.5 40t39.5 16q24 0 40 -16t16 -40z" />
    <glyph glyph-name="yacute" unicode="&#xfd;" horiz-adv-x="489" 
d="M61 411h-56v19h215v-19h-62l118 -358h1l122 358h-61v19h146v-19h-59l-120 -353q-7 -19 -12 -50.5t-5 -71.5v-15q0 -80 -36.5 -127t-114.5 -47q-22 0 -41.5 8.5t-34 23t-23 32.5t-8.5 38q0 29 15.5 45t38.5 16q20 0 34 -12t14 -32q0 -13 -6 -21t-13.5 -15t-13.5 -14.5
t-6 -19.5q0 -16 13.5 -25.5t33.5 -9.5q11 0 23.5 4.5t23 18.5t17.5 40t7 70v33q0 15 -1 27t-4 25.5t-8 30.5t-13 40zM259 520l82 161h110v-6l-177 -155h-15z" />
    <glyph glyph-name="thorn" unicode="&#xfe;" horiz-adv-x="537" 
d="M181 358q7 14 17 29t25 28t34.5 21t45.5 8q39 0 73.5 -17.5t61 -48.5t42 -72.5t15.5 -89.5t-15.5 -89.5t-42 -72.5t-61 -48.5t-73.5 -17.5q-26 0 -45.5 8t-34.5 21t-25 28t-17 29h-2q0 -9 0.5 -25.5t0.5 -31.5v-238h100v-19h-263v19h73v913h-76v19h165v-353h2zM172 216
q0 -39 7.5 -76t22.5 -66.5t37 -47t51 -17.5q26 0 45 16t31.5 44t18.5 65.5t6 81.5q0 43 -6 81t-18.5 66t-31.5 44t-45 16q-29 0 -51 -17.5t-37 -47t-22.5 -66.5t-7.5 -76z" />
    <glyph glyph-name="ydieresis" unicode="&#xff;" horiz-adv-x="489" 
d="M61 411h-56v19h215v-19h-62l118 -358h1l122 358h-61v19h146v-19h-59l-120 -353q-7 -19 -12 -50.5t-5 -71.5v-15q0 -80 -36.5 -127t-114.5 -47q-22 0 -41.5 8.5t-34 23t-23 32.5t-8.5 38q0 29 15.5 45t38.5 16q20 0 34 -12t14 -32q0 -13 -6 -21t-13.5 -15t-13.5 -14.5
t-6 -19.5q0 -16 13.5 -25.5t33.5 -9.5q11 0 23.5 4.5t23 18.5t17.5 40t7 70v33q0 15 -1 27t-4 25.5t-8 30.5t-13 40zM425 600q0 -23 -16 -39.5t-40 -16.5q-23 0 -39.5 16.5t-16.5 39.5q0 24 16.5 40t39.5 16q24 0 40 -16t16 -40zM225 600q0 -23 -16 -39.5t-40 -16.5
q-23 0 -39.5 16.5t-16.5 39.5q0 24 16.5 40t39.5 16q24 0 40 -16t16 -40z" />
    <glyph glyph-name="Abreve" unicode="&#x102;" horiz-adv-x="677" 
d="M265 627q11 34 23.5 55t44.5 21q14 0 23.5 -5.5t17 -16.5t14 -28.5t14.5 -41.5l199 -592h76v-19h-274v19h92l-82 248h-233l-76 -248h87v-19h-191v19h77zM187 290h219l-113 344h-1zM324 794q49 0 73.5 20t29.5 68h16q-1 -27 -8 -52t-21 -44.5t-36.5 -31t-53.5 -11.5
q-32 0 -54 11.5t-36 31t-21 44.5t-8 52h16q5 -48 29.5 -68t73.5 -20z" />
    <glyph glyph-name="Amacron" unicode="&#x100;" horiz-adv-x="677" 
d="M265 627q11 34 23.5 55t44.5 21q14 0 23.5 -5.5t17 -16.5t14 -28.5t14.5 -41.5l199 -592h76v-19h-274v19h92l-82 248h-233l-76 -248h87v-19h-191v19h77zM187 290h219l-113 344h-1zM213 784v49h234v-49h-234z" />
    <glyph glyph-name="Aogonek" unicode="&#x104;" horiz-adv-x="677" 
d="M265 627q11 34 23.5 55t44.5 21q14 0 23.5 -5.5t17 -16.5t14 -28.5t14.5 -41.5l199 -592h76v-19h-274v19h92l-82 248h-233l-76 -248h87v-19h-191v19h77zM187 290h219l-113 344h-1zM409 -125q0 20 11.5 38t31.5 33.5t46.5 28.5t56.5 25h13q-33 -20 -53 -37.5t-30.5 -32.5
t-14 -28t-3.5 -23q0 -23 12.5 -36.5t30.5 -13.5t32 6t26 15l7 -12q-35 -32 -82 -32q-34 0 -59 18.5t-25 50.5z" />
    <glyph glyph-name="Cacute" unicode="&#x106;" horiz-adv-x="691" 
d="M377 703q40 0 70 -8.5t52 -18t37.5 -18t27.5 -8.5q11 0 16.5 7t10.5 15.5t10.5 15.5t16.5 7h3v-240h-4q-11 0 -20.5 11.5t-17 28.5t-14 36.5t-12.5 35.5q-19 52 -62.5 83.5t-108.5 31.5q-96 0 -154 -84.5t-58 -251.5q0 -84 16 -146.5t45 -104.5t69.5 -63t90.5 -21
q103 0 161.5 56.5t70.5 156.5l23 -4q-3 -34 -17 -74.5t-44 -75.5t-78.5 -58.5t-121.5 -23.5q-65 0 -125 26.5t-105.5 74t-72.5 113.5t-27 144t26.5 144t70.5 113t102.5 73.5t122.5 26.5zM348 743v1l122 138h120v-6l-227 -133h-15z" />
    <glyph glyph-name="Ccaron" unicode="&#x10c;" horiz-adv-x="691" 
d="M377 703q40 0 70 -8.5t52 -18t37.5 -18t27.5 -8.5q11 0 16.5 7t10.5 15.5t10.5 15.5t16.5 7h3v-240h-4q-11 0 -20.5 11.5t-17 28.5t-14 36.5t-12.5 35.5q-19 52 -62.5 83.5t-108.5 31.5q-96 0 -154 -84.5t-58 -251.5q0 -84 16 -146.5t45 -104.5t69.5 -63t90.5 -21
q103 0 161.5 56.5t70.5 156.5l23 -4q-3 -34 -17 -74.5t-44 -75.5t-78.5 -58.5t-121.5 -23.5q-65 0 -125 26.5t-105.5 74t-72.5 113.5t-27 144t26.5 144t70.5 113t102.5 73.5t122.5 26.5zM389 742q-12 48 -47.5 80.5t-74.5 50.5l3 9q35 -7 69 -20t56 -33q22 20 56 33t69 20
l3 -9q-39 -18 -74.5 -50.5t-47.5 -80.5h-12z" />
    <glyph glyph-name="Ccircumflex" unicode="&#x108;" horiz-adv-x="691" 
d="M377 703q40 0 70 -8.5t52 -18t37.5 -18t27.5 -8.5q11 0 16.5 7t10.5 15.5t10.5 15.5t16.5 7h3v-240h-4q-11 0 -20.5 11.5t-17 28.5t-14 36.5t-12.5 35.5q-19 52 -62.5 83.5t-108.5 31.5q-96 0 -154 -84.5t-58 -251.5q0 -84 16 -146.5t45 -104.5t69.5 -63t90.5 -21
q103 0 161.5 56.5t70.5 156.5l23 -4q-3 -34 -17 -74.5t-44 -75.5t-78.5 -58.5t-121.5 -23.5q-65 0 -125 26.5t-105.5 74t-72.5 113.5t-27 144t26.5 144t70.5 113t102.5 73.5t122.5 26.5zM397 882q12 -48 47.5 -80.5t74.5 -50.5l-3 -9q-35 7 -69 20t-56 33q-22 -20 -56 -33
t-69 -20l-3 9q39 18 74.5 50.5t47.5 80.5h12z" />
    <glyph glyph-name="Cdotaccent" unicode="&#x10a;" horiz-adv-x="691" 
d="M377 703q40 0 70 -8.5t52 -18t37.5 -18t27.5 -8.5q11 0 16.5 7t10.5 15.5t10.5 15.5t16.5 7h3v-240h-4q-11 0 -20.5 11.5t-17 28.5t-14 36.5t-12.5 35.5q-19 52 -62.5 83.5t-108.5 31.5q-96 0 -154 -84.5t-58 -251.5q0 -84 16 -146.5t45 -104.5t69.5 -63t90.5 -21
q103 0 161.5 56.5t70.5 156.5l23 -4q-3 -34 -17 -74.5t-44 -75.5t-78.5 -58.5t-121.5 -23.5q-65 0 -125 26.5t-105.5 74t-72.5 113.5t-27 144t26.5 144t70.5 113t102.5 73.5t122.5 26.5zM441 814q0 -23 -16 -39.5t-40 -16.5q-23 0 -39.5 16.5t-16.5 39.5q0 24 16.5 40
t39.5 16q24 0 40 -16t16 -40z" />
    <glyph glyph-name="Dcaron" unicode="&#x10e;" horiz-adv-x="746" 
d="M691 339q0 -86 -29.5 -150t-80 -106.5t-117 -63.5t-140.5 -21q-19 0 -45.5 0.5t-54.5 0.5t-53.5 0.5t-43.5 0.5h-89v19h101v654h-101v19h90q13 0 38 0.5t52 0.5t51.5 0.5t38.5 0.5q81 0 150.5 -23.5t121.5 -68.5t81.5 -111t29.5 -152zM577 339q0 87 -18 150.5
t-52.5 104.5t-84 60.5t-112.5 19.5h-71v-656h77q64 0 112.5 17.5t81.5 55.5t50 99.5t17 148.5zM332 742q-12 48 -47.5 80.5t-74.5 50.5l3 9q35 -7 69 -20t56 -33q22 20 56 33t69 20l3 -9q-39 -18 -74.5 -50.5t-47.5 -80.5h-12z" />
    <glyph glyph-name="Dcroat" unicode="&#x110;" horiz-adv-x="756" 
d="M50 377h99v296h-101v19h90q13 0 38 0.5t52 0.5t51.5 0.5t38.5 0.5q81 0 150.5 -23.5t121.5 -68.5t81.5 -111t29.5 -152t-29.5 -150t-80 -106.5t-117 -63.5t-140.5 -21q-19 0 -45.5 0.5t-54.5 0.5t-53.5 0.5t-43.5 0.5h-89v19h101v339h-99v19zM587 339q0 87 -18 150.5
t-52.5 104.5t-84 60.5t-112.5 19.5h-71v-297h102v-19h-102v-340h77q64 0 112.5 17.5t81.5 55.5t50 99.5t17 148.5z" />
    <glyph glyph-name="Ebreve" unicode="&#x114;" horiz-adv-x="674" 
d="M285 375q27 0 44.5 3t28.5 9.5t18 17.5t14 26q12 28 19 48t23 20h5v-267h-5q-16 0 -23 20t-19 48q-8 17 -15 28t-18 17t-28 8.5t-44 2.5h-46v-337h152q39 0 64.5 6t42 17t26.5 28t19 39t13.5 43t9 38t11 27.5t18.5 10.5h4v-228h-561v19h101v654h-101v19h531v-213h-4
q-12 0 -18 8.5t-10 23.5t-8 34.5t-13 41.5q-9 23 -19 39.5t-26.5 27t-41.5 15t-65 4.5h-125v-298h46zM360 794q49 0 73.5 20t29.5 68h16q-1 -27 -8 -52t-21 -44.5t-36.5 -31t-53.5 -11.5q-32 0 -54 11.5t-36 31t-21 44.5t-8 52h16q5 -48 29.5 -68t73.5 -20z" />
    <glyph glyph-name="Ecaron" unicode="&#x11a;" horiz-adv-x="674" 
d="M285 375q27 0 44.5 3t28.5 9.5t18 17.5t14 26q12 28 19 48t23 20h5v-267h-5q-16 0 -23 20t-19 48q-8 17 -15 28t-18 17t-28 8.5t-44 2.5h-46v-337h152q39 0 64.5 6t42 17t26.5 28t19 39t13.5 43t9 38t11 27.5t18.5 10.5h4v-228h-561v19h101v654h-101v19h531v-213h-4
q-12 0 -18 8.5t-10 23.5t-8 34.5t-13 41.5q-9 23 -19 39.5t-26.5 27t-41.5 15t-65 4.5h-125v-298h46zM354 742q-12 48 -47.5 80.5t-74.5 50.5l3 9q35 -7 69 -20t56 -33q22 20 56 33t69 20l3 -9q-39 -18 -74.5 -50.5t-47.5 -80.5h-12z" />
    <glyph glyph-name="Emacron" unicode="&#x112;" horiz-adv-x="674" 
d="M285 375q27 0 44.5 3t28.5 9.5t18 17.5t14 26q12 28 19 48t23 20h5v-267h-5q-16 0 -23 20t-19 48q-8 17 -15 28t-18 17t-28 8.5t-44 2.5h-46v-337h152q39 0 64.5 6t42 17t26.5 28t19 39t13.5 43t9 38t11 27.5t18.5 10.5h4v-228h-561v19h101v654h-101v19h531v-213h-4
q-12 0 -18 8.5t-10 23.5t-8 34.5t-13 41.5q-9 23 -19 39.5t-26.5 27t-41.5 15t-65 4.5h-125v-298h46zM238 784v49h234v-49h-234z" />
    <glyph glyph-name="Eogonek" unicode="&#x118;" horiz-adv-x="674" 
d="M285 375q27 0 44.5 3t28.5 9.5t18 17.5t14 26q12 28 19 48t23 20h5v-267h-5q-16 0 -23 20t-19 48q-8 17 -15 28t-18 17t-28 8.5t-44 2.5h-46v-337h152q39 0 64.5 6t42 17t26.5 28t19 39t13.5 43t9 38t11 27.5t18.5 10.5h4v-228h-561v19h101v654h-101v19h531v-213h-4
q-12 0 -18 8.5t-10 23.5t-8 34.5t-13 41.5q-9 23 -19 39.5t-26.5 27t-41.5 15t-65 4.5h-125v-298h46zM440 -125q0 20 11.5 38t31.5 33.5t46.5 28.5t56.5 25h13q-33 -20 -53 -37.5t-30.5 -32.5t-14 -28t-3.5 -23q0 -23 12.5 -36.5t30.5 -13.5t32 6t26 15l7 -12
q-35 -32 -82 -32q-34 0 -59 18.5t-25 50.5z" />
    <glyph glyph-name="Edotaccent" unicode="&#x116;" horiz-adv-x="674" 
d="M285 375q27 0 44.5 3t28.5 9.5t18 17.5t14 26q12 28 19 48t23 20h5v-267h-5q-16 0 -23 20t-19 48q-8 17 -15 28t-18 17t-28 8.5t-44 2.5h-46v-337h152q39 0 64.5 6t42 17t26.5 28t19 39t13.5 43t9 38t11 27.5t18.5 10.5h4v-228h-561v19h101v654h-101v19h531v-213h-4
q-12 0 -18 8.5t-10 23.5t-8 34.5t-13 41.5q-9 23 -19 39.5t-26.5 27t-41.5 15t-65 4.5h-125v-298h46zM402 814q0 -23 -16 -39.5t-40 -16.5q-23 0 -39.5 16.5t-16.5 39.5q0 24 16.5 40t39.5 16q24 0 40 -16t16 -40z" />
    <glyph glyph-name="Gbreve" unicode="&#x11e;" horiz-adv-x="750" 
d="M386 703q40 0 69 -8.5t49.5 -18t34.5 -18t26 -8.5q11 0 16.5 7t10.5 15.5t10.5 15.5t16.5 7h3v-240h-4q-11 0 -20.5 11.5t-17 28.5t-14 36.5t-12.5 35.5q-19 52 -59 83.5t-105 31.5q-102 0 -161 -84t-59 -252q0 -84 15.5 -147t43.5 -105t67.5 -63.5t87.5 -21.5q27 0 57 6
t55 20.5t41 39t16 62.5v145h-82v18h254v-18h-72v-286h-5q-20 0 -30 8.5t-16.5 18t-13 18t-18.5 8.5q-11 0 -25.5 -9.5t-36.5 -21t-53 -21t-75 -9.5q-64 0 -123 26.5t-104 74t-71.5 113.5t-26.5 144t26.5 144t71.5 113t105 73.5t128 26.5zM381 794q49 0 73.5 20t29.5 68h16
q-1 -27 -8 -52t-21 -44.5t-36.5 -31t-53.5 -11.5q-32 0 -54 11.5t-36 31t-21 44.5t-8 52h16q5 -48 29.5 -68t73.5 -20z" />
    <glyph glyph-name="Gcircumflex" unicode="&#x11c;" horiz-adv-x="750" 
d="M386 703q40 0 69 -8.5t49.5 -18t34.5 -18t26 -8.5q11 0 16.5 7t10.5 15.5t10.5 15.5t16.5 7h3v-240h-4q-11 0 -20.5 11.5t-17 28.5t-14 36.5t-12.5 35.5q-19 52 -59 83.5t-105 31.5q-102 0 -161 -84t-59 -252q0 -84 15.5 -147t43.5 -105t67.5 -63.5t87.5 -21.5q27 0 57 6
t55 20.5t41 39t16 62.5v145h-82v18h254v-18h-72v-286h-5q-20 0 -30 8.5t-16.5 18t-13 18t-18.5 8.5q-11 0 -25.5 -9.5t-36.5 -21t-53 -21t-75 -9.5q-64 0 -123 26.5t-104 74t-71.5 113.5t-26.5 144t26.5 144t71.5 113t105 73.5t128 26.5zM390 882q12 -48 47.5 -80.5
t74.5 -50.5l-3 -9q-35 7 -69 20t-56 33q-22 -20 -56 -33t-69 -20l-3 9q39 18 74.5 50.5t47.5 80.5h12z" />
    <glyph glyph-name="Gcommaaccent" unicode="&#x122;" horiz-adv-x="750" 
d="M386 703q40 0 69 -8.5t49.5 -18t34.5 -18t26 -8.5q11 0 16.5 7t10.5 15.5t10.5 15.5t16.5 7h3v-240h-4q-11 0 -20.5 11.5t-17 28.5t-14 36.5t-12.5 35.5q-19 52 -59 83.5t-105 31.5q-102 0 -161 -84t-59 -252q0 -84 15.5 -147t43.5 -105t67.5 -63.5t87.5 -21.5q27 0 57 6
t55 20.5t41 39t16 62.5v145h-82v18h254v-18h-72v-286h-5q-20 0 -30 8.5t-16.5 18t-13 18t-18.5 8.5q-11 0 -25.5 -9.5t-36.5 -21t-53 -21t-75 -9.5q-64 0 -123 26.5t-104 74t-71.5 113.5t-26.5 144t26.5 144t71.5 113t105 73.5t128 26.5zM310 -146q0 20 15 35t37 15
q35 0 52 -24.5t17 -56.5q0 -29 -7.5 -52.5t-20 -42.5t-28.5 -33.5t-34 -26.5l-9 12q28 22 50 50.5t22 67.5q0 10 -4 16.5t-13 6.5q-5 0 -8 -2.5t-6.5 -5t-8.5 -5t-13 -2.5q-20 0 -30.5 14t-10.5 34z" />
    <glyph glyph-name="Gdotaccent" unicode="&#x120;" horiz-adv-x="750" 
d="M386 703q40 0 69 -8.5t49.5 -18t34.5 -18t26 -8.5q11 0 16.5 7t10.5 15.5t10.5 15.5t16.5 7h3v-240h-4q-11 0 -20.5 11.5t-17 28.5t-14 36.5t-12.5 35.5q-19 52 -59 83.5t-105 31.5q-102 0 -161 -84t-59 -252q0 -84 15.5 -147t43.5 -105t67.5 -63.5t87.5 -21.5q27 0 57 6
t55 20.5t41 39t16 62.5v145h-82v18h254v-18h-72v-286h-5q-20 0 -30 8.5t-16.5 18t-13 18t-18.5 8.5q-11 0 -25.5 -9.5t-36.5 -21t-53 -21t-75 -9.5q-64 0 -123 26.5t-104 74t-71.5 113.5t-26.5 144t26.5 144t71.5 113t105 73.5t128 26.5zM435 814q0 -23 -16 -39.5t-40 -16.5
q-23 0 -39.5 16.5t-16.5 39.5q0 24 16.5 40t39.5 16q24 0 40 -16t16 -40z" />
    <glyph glyph-name="Hbar" unicode="&#x126;" horiz-adv-x="811" 
d="M471 0v19h101v339h-333v-339h101v-19h-302v19h101v654h-101v19h302v-19h-101v-140h333v140h-101v19h302v-19h-101v-654h101v-19h-302zM572 381v129h-333v-129h333z" />
    <glyph glyph-name="Hcircumflex" unicode="&#x124;" horiz-adv-x="811" 
d="M471 0v19h101v339h-333v-339h101v-19h-302v19h101v654h-101v19h302v-19h-101v-292h333v292h-101v19h302v-19h-101v-654h101v-19h-302zM410 882q12 -48 47.5 -80.5t74.5 -50.5l-3 -9q-35 7 -69 20t-56 33q-22 -20 -56 -33t-69 -20l-3 9q39 18 74.5 50.5t47.5 80.5h12z" />
    <glyph glyph-name="Ibreve" unicode="&#x12c;" horiz-adv-x="378" 
d="M38 0v19h101v654h-101v19h302v-19h-101v-654h101v-19h-302zM189 794q49 0 73.5 20t29.5 68h16q-1 -27 -8 -52t-21 -44.5t-36.5 -31t-53.5 -11.5q-32 0 -54 11.5t-36 31t-21 44.5t-8 52h16q5 -48 29.5 -68t73.5 -20z" />
    <glyph glyph-name="Idotaccent" unicode="&#x130;" horiz-adv-x="378" 
d="M38 0v19h101v654h-101v19h302v-19h-101v-654h101v-19h-302zM245 814q0 -23 -16 -39.5t-40 -16.5q-23 0 -39.5 16.5t-16.5 39.5q0 24 16.5 40t39.5 16q24 0 40 -16t16 -40z" />
    <glyph glyph-name="Imacron" unicode="&#x12a;" horiz-adv-x="378" 
d="M38 0v19h101v654h-101v19h302v-19h-101v-654h101v-19h-302zM72 784v49h234v-49h-234z" />
    <glyph glyph-name="Iogonek" unicode="&#x12e;" horiz-adv-x="378" 
d="M67 -125q0 20 11.5 38t31.5 33.5t46.5 28.5t56.5 25h13q-33 -20 -53 -37.5t-30.5 -32.5t-14 -28t-3.5 -23q0 -23 12.5 -36.5t30.5 -13.5t32 6t26 15l7 -12q-35 -32 -82 -32q-34 0 -59 18.5t-25 50.5zM38 0v19h101v654h-101v19h302v-19h-101v-654h101v-19h-302z" />
    <glyph glyph-name="Itilde" unicode="&#x128;" horiz-adv-x="378" 
d="M33 754q0 23 5 47t15.5 44t28 32.5t42.5 12.5q21 0 41 -11.5t39 -25t36.5 -25t34.5 -11.5q27 0 40 19t15 51h15q0 -41 -7 -66.5t-18.5 -39.5t-26 -19.5t-30.5 -5.5q-25 0 -45.5 11.5t-39 25t-36 25t-37.5 11.5q-24 0 -39 -22t-17 -53h-16zM38 0v19h101v654h-101v19h302
v-19h-101v-654h101v-19h-302z" />
    <glyph glyph-name="uni1ECA" unicode="&#x1eca;" horiz-adv-x="378" 
d="M38 0v19h101v654h-101v19h302v-19h-101v-654h101v-19h-302zM245 -152q0 -23 -16 -39.5t-40 -16.5q-23 0 -39.5 16.5t-16.5 39.5q0 24 16.5 40t39.5 16q24 0 40 -16t16 -40z" />
    <glyph glyph-name="Jcircumflex" unicode="&#x134;" horiz-adv-x="495" 
d="M166 6q57 0 80.5 42t23.5 124v501h-116v19h317v-19h-101v-371q0 -84 -10.5 -143.5t-34.5 -97.5t-62.5 -55.5t-93.5 -17.5q-36 0 -65 12t-50 32t-32.5 46t-11.5 54q0 38 20 62.5t53 24.5q18 0 34.5 -12t16.5 -37q0 -18 -10 -28t-22.5 -18t-22.5 -17.5t-10 -26.5
q0 -15 8 -28.5t21 -23.5t30.5 -16t37.5 -6zM325 882q12 -48 47.5 -80.5t74.5 -50.5l-3 -9q-35 7 -69 20t-56 33q-22 -20 -56 -33t-69 -20l-3 9q39 18 74.5 50.5t47.5 80.5h12z" />
    <glyph glyph-name="Kcommaaccent" unicode="&#x136;" horiz-adv-x="732" 
d="M38 0v19h101v654h-101v19h302v-19h-101v-302h46q24 0 43 3t37 15.5t38.5 38t47.5 71.5l102 174h-93v19h213v-19h-92l-126 -214q-27 -46 -49 -66.5t-41 -27.5v-2q30 -3 55 -19t56 -61l179 -264h77v-19h-295v19h97l-220 333h-75v-333h101v-19h-302zM319 -146q0 20 15 35
t37 15q35 0 52 -24.5t17 -56.5q0 -29 -7.5 -52.5t-20 -42.5t-28.5 -33.5t-34 -26.5l-9 12q28 22 50 50.5t22 67.5q0 10 -4 16.5t-13 6.5q-5 0 -8 -2.5t-6.5 -5t-8.5 -5t-13 -2.5q-20 0 -30.5 14t-10.5 34z" />
    <glyph glyph-name="Lacute" unicode="&#x139;" horiz-adv-x="629" 
d="M38 0v19h101v654h-101v19h316v-19h-115v-654h132q39 0 64.5 6t42 17t26.5 28t19 39t13.5 44.5t9 41.5t11 31t18.5 12h4v-238h-541zM150 743v1l122 138h120v-6l-227 -133h-15z" />
    <glyph glyph-name="Lcaron" unicode="&#x13d;" horiz-adv-x="629" 
d="M38 0v19h101v654h-101v19h316v-19h-115v-654h132q39 0 64.5 6t42 17t26.5 28t19 39t13.5 44.5t9 41.5t11 31t18.5 12h4v-238h-541zM401 653q0 20 15 35t37 15q35 0 52 -24.5t17 -56.5q0 -29 -7.5 -52.5t-20 -42.5t-28.5 -33.5t-34 -26.5l-9 12q28 22 50 50.5t22 67.5
q0 10 -4 16.5t-13 6.5q-5 0 -8 -2.5t-6.5 -5t-8.5 -5t-13 -2.5q-20 0 -30.5 14t-10.5 34z" />
    <glyph glyph-name="Lcommaaccent" unicode="&#x13b;" horiz-adv-x="629" 
d="M38 0v19h101v654h-101v19h316v-19h-115v-654h132q39 0 64.5 6t42 17t26.5 28t19 39t13.5 44.5t9 41.5t11 31t18.5 12h4v-238h-541zM273 -146q0 20 15 35t37 15q35 0 52 -24.5t17 -56.5q0 -29 -7.5 -52.5t-20 -42.5t-28.5 -33.5t-34 -26.5l-9 12q28 22 50 50.5t22 67.5
q0 10 -4 16.5t-13 6.5q-5 0 -8 -2.5t-6.5 -5t-8.5 -5t-13 -2.5q-20 0 -30.5 14t-10.5 34z" />
    <glyph glyph-name="Ldot" unicode="&#x13f;" horiz-adv-x="629" 
d="M444 367q0 -23 -16 -39.5t-40 -16.5q-23 0 -39.5 16.5t-16.5 39.5q0 24 16.5 40t39.5 16q24 0 40 -16t16 -40zM38 0v19h101v654h-101v19h316v-19h-115v-654h132q39 0 64.5 6t42 17t26.5 28t19 39t13.5 44.5t9 41.5t11 31t18.5 12h4v-238h-541z" />
    <glyph glyph-name="Lslash" unicode="&#x141;" horiz-adv-x="629" 
d="M43 344l96 26v303h-101v19h316v-19h-115v-276l94 26l5 -20l-99 -27v-357h132q39 0 64.5 6t42 17t26.5 28t19 39t13.5 44.5t9 41.5t11 31t18.5 12h4v-238h-541v19h101v330l-91 -25z" />
    <glyph glyph-name="Nacute" unicode="&#x143;" horiz-adv-x="743" 
d="M629 94q0 -20 -1 -39t-6 -34t-15.5 -24t-30.5 -9q-26 0 -46.5 18t-45.5 62l-317 538h-1v-587h101v-19h-229v19h101v654h-101v19h100q35 0 56 -4t36 -15.5t27 -30.5t30 -49l314 -526h1v606h-101v19h229v-19h-101v-579zM358 743v1l122 138h120v-6l-227 -133h-15z" />
    <glyph glyph-name="Ncaron" unicode="&#x147;" horiz-adv-x="743" 
d="M629 94q0 -20 -1 -39t-6 -34t-15.5 -24t-30.5 -9q-26 0 -46.5 18t-45.5 62l-317 538h-1v-587h101v-19h-229v19h101v654h-101v19h100q35 0 56 -4t36 -15.5t27 -30.5t30 -49l314 -526h1v606h-101v19h229v-19h-101v-579zM391 742q-12 48 -47.5 80.5t-74.5 50.5l3 9
q35 -7 69 -20t56 -33q22 20 56 33t69 20l3 -9q-39 -18 -74.5 -50.5t-47.5 -80.5h-12z" />
    <glyph glyph-name="Ncommaaccent" unicode="&#x145;" horiz-adv-x="743" 
d="M629 94q0 -20 -1 -39t-6 -34t-15.5 -24t-30.5 -9q-26 0 -46.5 18t-45.5 62l-317 538h-1v-587h101v-19h-229v19h101v654h-101v19h100q35 0 56 -4t36 -15.5t27 -30.5t30 -49l314 -526h1v606h-101v19h229v-19h-101v-579zM338 -146q0 20 15 35t37 15q35 0 52 -24.5t17 -56.5
q0 -29 -7.5 -52.5t-20 -42.5t-28.5 -33.5t-34 -26.5l-9 12q28 22 50 50.5t22 67.5q0 10 -4 16.5t-13 6.5q-5 0 -8 -2.5t-6.5 -5t-8.5 -5t-13 -2.5q-20 0 -30.5 14t-10.5 34z" />
    <glyph glyph-name="OE" unicode="&#x152;" horiz-adv-x="1114" 
d="M55 346q0 76 25.5 141.5t70 113.5t104.5 75t130 27q62 0 110.5 -22t83.5 -60v71h430v-213h-4q-12 0 -18 8.5t-10 23.5t-8 34.5t-13 41.5q-9 23 -19 39.5t-26.5 27t-41.5 15t-65 4.5h-125v-298h46q27 0 44.5 3t28.5 9.5t18 17.5t14 26q12 28 19 48t23 20h5v-267h-5
q-16 0 -23 20t-19 48q-8 17 -15 28t-18 17t-28 8.5t-44 2.5h-46v-337h152q39 0 64.5 6t42 17t26.5 28t19 39t13.5 43t9 38t11 27.5t18.5 10.5h4v-228h-460v70q-35 -38 -83.5 -60t-110.5 -22q-70 0 -130 27.5t-104.5 75.5t-70 113.5t-25.5 141.5zM170 346q0 -80 15 -143
t43 -107t68 -67t89 -23t87 23t64.5 67t40 107t13.5 143t-13.5 143t-40 106.5t-64.5 66.5t-87 23t-89 -23t-68 -66.5t-43 -106.5t-15 -143z" />
    <glyph glyph-name="Obreve" unicode="&#x14e;" horiz-adv-x="770" 
d="M170 346q0 -80 15 -143t43 -107t68 -67t89 -23t89 23t68 67t43 107t15 143t-15 143t-43 106.5t-68 66.5t-89 23t-89 -23t-68 -66.5t-43 -106.5t-15 -143zM55 346q0 76 25.5 141.5t70 113.5t104.5 75t130 27t130 -27t104.5 -75t70 -113.5t25.5 -141.5t-25.5 -141.5
t-70 -113.5t-104.5 -75.5t-130 -27.5t-130 27.5t-104.5 75.5t-70 113.5t-25.5 141.5zM385 794q49 0 73.5 20t29.5 68h16q-1 -27 -8 -52t-21 -44.5t-36.5 -31t-53.5 -11.5q-32 0 -54 11.5t-36 31t-21 44.5t-8 52h16q5 -48 29.5 -68t73.5 -20z" />
    <glyph glyph-name="Ohungarumlaut" unicode="&#x150;" horiz-adv-x="770" 
d="M170 346q0 -80 15 -143t43 -107t68 -67t89 -23t89 23t68 67t43 107t15 143t-15 143t-43 106.5t-68 66.5t-89 23t-89 -23t-68 -66.5t-43 -106.5t-15 -143zM55 346q0 76 25.5 141.5t70 113.5t104.5 75t130 27t130 -27t104.5 -75t70 -113.5t25.5 -141.5t-25.5 -141.5
t-70 -113.5t-104.5 -75.5t-130 -27.5t-130 27.5t-104.5 75.5t-70 113.5t-25.5 141.5zM433 743v1l122 138h120v-6l-227 -133h-15zM290 743v1l122 138h120v-6l-227 -133h-15z" />
    <glyph glyph-name="Omacron" unicode="&#x14c;" horiz-adv-x="770" 
d="M170 346q0 -80 15 -143t43 -107t68 -67t89 -23t89 23t68 67t43 107t15 143t-15 143t-43 106.5t-68 66.5t-89 23t-89 -23t-68 -66.5t-43 -106.5t-15 -143zM55 346q0 76 25.5 141.5t70 113.5t104.5 75t130 27t130 -27t104.5 -75t70 -113.5t25.5 -141.5t-25.5 -141.5
t-70 -113.5t-104.5 -75.5t-130 -27.5t-130 27.5t-104.5 75.5t-70 113.5t-25.5 141.5zM268 784v49h234v-49h-234z" />
    <glyph glyph-name="uni1ECC" unicode="&#x1ecc;" horiz-adv-x="770" 
d="M170 346q0 -80 15 -143t43 -107t68 -67t89 -23t89 23t68 67t43 107t15 143t-15 143t-43 106.5t-68 66.5t-89 23t-89 -23t-68 -66.5t-43 -106.5t-15 -143zM55 346q0 76 25.5 141.5t70 113.5t104.5 75t130 27t130 -27t104.5 -75t70 -113.5t25.5 -141.5t-25.5 -141.5
t-70 -113.5t-104.5 -75.5t-130 -27.5t-130 27.5t-104.5 75.5t-70 113.5t-25.5 141.5zM441 -152q0 -23 -16 -39.5t-40 -16.5q-23 0 -39.5 16.5t-16.5 39.5q0 24 16.5 40t39.5 16q24 0 40 -16t16 -40z" />
    <glyph glyph-name="Racute" unicode="&#x154;" horiz-adv-x="720" 
d="M38 692h93q17 0 40.5 0.5t49 0.5t51.5 0.5t48 0.5q47 0 94 -9t84.5 -29.5t61 -52t23.5 -76.5q0 -36 -14 -63.5t-38 -48t-57 -33.5t-71 -20v-2q76 -11 126 -59.5t55 -143.5l1 -21q3 -66 14 -94.5t37 -28.5q40 0 56 64l18 -5q-11 -38 -33.5 -61t-71.5 -23q-57 0 -90 37.5
t-39 118.5l-3 39q-5 60 -16 93t-29 49t-43.5 19.5t-58.5 3.5h-87v-329h94v-19h-295v19h101v654h-101v19zM471 526q0 45 -12 74t-33 45.5t-50 22.5t-63 6h-74v-308h92q28 0 53.5 6t44.5 23t30.5 48.5t11.5 82.5zM298 743v1l122 138h120v-6l-227 -133h-15z" />
    <glyph glyph-name="Rcaron" unicode="&#x158;" horiz-adv-x="720" 
d="M38 692h93q17 0 40.5 0.5t49 0.5t51.5 0.5t48 0.5q47 0 94 -9t84.5 -29.5t61 -52t23.5 -76.5q0 -36 -14 -63.5t-38 -48t-57 -33.5t-71 -20v-2q76 -11 126 -59.5t55 -143.5l1 -21q3 -66 14 -94.5t37 -28.5q40 0 56 64l18 -5q-11 -38 -33.5 -61t-71.5 -23q-57 0 -90 37.5
t-39 118.5l-3 39q-5 60 -16 93t-29 49t-43.5 19.5t-58.5 3.5h-87v-329h94v-19h-295v19h101v654h-101v19zM471 526q0 45 -12 74t-33 45.5t-50 22.5t-63 6h-74v-308h92q28 0 53.5 6t44.5 23t30.5 48.5t11.5 82.5zM313 742q-12 48 -47.5 80.5t-74.5 50.5l3 9q35 -7 69 -20
t56 -33q22 20 56 33t69 20l3 -9q-39 -18 -74.5 -50.5t-47.5 -80.5h-12z" />
    <glyph glyph-name="Rcommaaccent" unicode="&#x156;" horiz-adv-x="720" 
d="M38 692h93q17 0 40.5 0.5t49 0.5t51.5 0.5t48 0.5q47 0 94 -9t84.5 -29.5t61 -52t23.5 -76.5q0 -36 -14 -63.5t-38 -48t-57 -33.5t-71 -20v-2q76 -11 126 -59.5t55 -143.5l1 -21q3 -66 14 -94.5t37 -28.5q40 0 56 64l18 -5q-11 -38 -33.5 -61t-71.5 -23q-57 0 -90 37.5
t-39 118.5l-3 39q-5 60 -16 93t-29 49t-43.5 19.5t-58.5 3.5h-87v-329h94v-19h-295v19h101v654h-101v19zM471 526q0 45 -12 74t-33 45.5t-50 22.5t-63 6h-74v-308h92q28 0 53.5 6t44.5 23t30.5 48.5t11.5 82.5zM307 -146q0 20 15 35t37 15q35 0 52 -24.5t17 -56.5
q0 -29 -7.5 -52.5t-20 -42.5t-28.5 -33.5t-34 -26.5l-9 12q28 22 50 50.5t22 67.5q0 10 -4 16.5t-13 6.5q-5 0 -8 -2.5t-6.5 -5t-8.5 -5t-13 -2.5q-20 0 -30.5 14t-10.5 34z" />
    <glyph glyph-name="Sacute" unicode="&#x15a;" horiz-adv-x="598" 
d="M476 467q-10 0 -17 7.5t-12.5 20t-10.5 29.5t-12 36q-8 21 -18.5 42.5t-28 39t-43 29t-63.5 11.5q-24 0 -47 -7t-40 -21.5t-27.5 -35t-10.5 -47.5t10 -48.5t28.5 -38t44 -29.5t56.5 -24l58 -21q44 -16 79 -35t59 -44.5t37 -59t13 -78.5q0 -44 -15.5 -81.5t-44 -65
t-67.5 -43t-87 -15.5q-41 0 -70.5 9t-51 19.5t-36 19.5t-25.5 9t-17 -8t-10.5 -18t-10.5 -18t-17 -8h-4v239h4q17 0 30 -22.5t27 -67.5q19 -62 63.5 -97.5t124.5 -35.5q25 0 51.5 7t48 23t35 41t13.5 60q0 52 -37 89t-115 66l-63 23q-84 31 -125.5 86t-41.5 127
q0 36 14 67.5t39 54.5t58.5 36.5t71.5 13.5q36 0 62 -9t44 -19.5t29 -19t18 -8.5q8 0 13.5 7.5t10.5 16.5t11.5 16.5t17.5 7.5h2v-228h-5zM277 743v1l122 138h120v-6l-227 -133h-15z" />
    <glyph glyph-name="Scaron" unicode="&#x160;" horiz-adv-x="598" 
d="M476 467q-10 0 -17 7.5t-12.5 20t-10.5 29.5t-12 36q-8 21 -18.5 42.5t-28 39t-43 29t-63.5 11.5q-24 0 -47 -7t-40 -21.5t-27.5 -35t-10.5 -47.5t10 -48.5t28.5 -38t44 -29.5t56.5 -24l58 -21q44 -16 79 -35t59 -44.5t37 -59t13 -78.5q0 -44 -15.5 -81.5t-44 -65
t-67.5 -43t-87 -15.5q-41 0 -70.5 9t-51 19.5t-36 19.5t-25.5 9t-17 -8t-10.5 -18t-10.5 -18t-17 -8h-4v239h4q17 0 30 -22.5t27 -67.5q19 -62 63.5 -97.5t124.5 -35.5q25 0 51.5 7t48 23t35 41t13.5 60q0 52 -37 89t-115 66l-63 23q-84 31 -125.5 86t-41.5 127
q0 36 14 67.5t39 54.5t58.5 36.5t71.5 13.5q36 0 62 -9t44 -19.5t29 -19t18 -8.5q8 0 13.5 7.5t10.5 16.5t11.5 16.5t17.5 7.5h2v-228h-5zM280 742q-12 48 -47.5 80.5t-74.5 50.5l3 9q35 -7 69 -20t56 -33q22 20 56 33t69 20l3 -9q-39 -18 -74.5 -50.5t-47.5 -80.5h-12z" />
    <glyph glyph-name="Scedilla" unicode="&#x15e;" horiz-adv-x="598" 
d="M476 467q-10 0 -17 7.5t-12.5 20t-10.5 29.5t-12 36q-8 21 -18.5 42.5t-28 39t-43 29t-63.5 11.5q-24 0 -47 -7t-40 -21.5t-27.5 -35t-10.5 -47.5t10 -48.5t28.5 -38t44 -29.5t56.5 -24l58 -21q44 -16 79 -35t59 -44.5t37 -59t13 -78.5q0 -44 -15.5 -81.5t-44 -65
t-67.5 -43t-87 -15.5q-41 0 -70.5 9t-51 19.5t-36 19.5t-25.5 9t-17 -8t-10.5 -18t-10.5 -18t-17 -8h-4v239h4q17 0 30 -22.5t27 -67.5q19 -62 63.5 -97.5t124.5 -35.5q25 0 51.5 7t48 23t35 41t13.5 60q0 52 -37 89t-115 66l-63 23q-84 31 -125.5 86t-41.5 127
q0 36 14 67.5t39 54.5t58.5 36.5t71.5 13.5q36 0 62 -9t44 -19.5t29 -19t18 -8.5q8 0 13.5 7.5t10.5 16.5t11.5 16.5t17.5 7.5h2v-228h-5zM394 -167q0 -20 -9.5 -35.5t-25 -27t-35.5 -17.5t-41 -6q-35 0 -58.5 17t-34.5 48l17 7q9 -29 27 -42t43 -13q31 0 50 17.5t19 50.5
q0 37 -18.5 51t-39.5 14q-17 0 -27.5 -5t-17.5 -10l-14 15l56 103h22l-51 -97l1 -1q21 13 47 13q13 0 29 -4.5t29.5 -14.5t22.5 -25.5t9 -37.5z" />
    <glyph glyph-name="Scircumflex" unicode="&#x15c;" horiz-adv-x="598" 
d="M476 467q-10 0 -17 7.5t-12.5 20t-10.5 29.5t-12 36q-8 21 -18.5 42.5t-28 39t-43 29t-63.5 11.5q-24 0 -47 -7t-40 -21.5t-27.5 -35t-10.5 -47.5t10 -48.5t28.5 -38t44 -29.5t56.5 -24l58 -21q44 -16 79 -35t59 -44.5t37 -59t13 -78.5q0 -44 -15.5 -81.5t-44 -65
t-67.5 -43t-87 -15.5q-41 0 -70.5 9t-51 19.5t-36 19.5t-25.5 9t-17 -8t-10.5 -18t-10.5 -18t-17 -8h-4v239h4q17 0 30 -22.5t27 -67.5q19 -62 63.5 -97.5t124.5 -35.5q25 0 51.5 7t48 23t35 41t13.5 60q0 52 -37 89t-115 66l-63 23q-84 31 -125.5 86t-41.5 127
q0 36 14 67.5t39 54.5t58.5 36.5t71.5 13.5q36 0 62 -9t44 -19.5t29 -19t18 -8.5q8 0 13.5 7.5t10.5 16.5t11.5 16.5t17.5 7.5h2v-228h-5zM302 882q12 -48 47.5 -80.5t74.5 -50.5l-3 -9q-35 7 -69 20t-56 33q-22 -20 -56 -33t-69 -20l-3 9q39 18 74.5 50.5t47.5 80.5h12z
" />
    <glyph glyph-name="Scommaaccent" unicode="&#x218;" horiz-adv-x="598" 
d="M476 467q-10 0 -17 7.5t-12.5 20t-10.5 29.5t-12 36q-8 21 -18.5 42.5t-28 39t-43 29t-63.5 11.5q-24 0 -47 -7t-40 -21.5t-27.5 -35t-10.5 -47.5t10 -48.5t28.5 -38t44 -29.5t56.5 -24l58 -21q44 -16 79 -35t59 -44.5t37 -59t13 -78.5q0 -44 -15.5 -81.5t-44 -65
t-67.5 -43t-87 -15.5q-41 0 -70.5 9t-51 19.5t-36 19.5t-25.5 9t-17 -8t-10.5 -18t-10.5 -18t-17 -8h-4v239h4q17 0 30 -22.5t27 -67.5q19 -62 63.5 -97.5t124.5 -35.5q25 0 51.5 7t48 23t35 41t13.5 60q0 52 -37 89t-115 66l-63 23q-84 31 -125.5 86t-41.5 127
q0 36 14 67.5t39 54.5t58.5 36.5t71.5 13.5q36 0 62 -9t44 -19.5t29 -19t18 -8.5q8 0 13.5 7.5t10.5 16.5t11.5 16.5t17.5 7.5h2v-228h-5zM237 -146q0 20 15 35t37 15q35 0 52 -24.5t17 -56.5q0 -29 -7.5 -52.5t-20 -42.5t-28.5 -33.5t-34 -26.5l-9 12q28 22 50 50.5
t22 67.5q0 10 -4 16.5t-13 6.5q-5 0 -8 -2.5t-6.5 -5t-8.5 -5t-13 -2.5q-20 0 -30.5 14t-10.5 34z" />
    <glyph glyph-name="Tcaron" unicode="&#x164;" horiz-adv-x="658" 
d="M633 692v-228h-4q-12 0 -19 11t-12 28.5t-10 39.5t-14 44q-9 23 -19 39.5t-26.5 27t-41.5 15.5t-65 5h-43v-655h111v-19h-322v19h111v655h-43q-40 0 -65 -5t-41.5 -15.5t-26.5 -27t-19 -39.5q-9 -22 -14 -44t-10 -39.5t-12 -28.5t-19 -11h-4v228h608zM323 742
q-12 48 -47.5 80.5t-74.5 50.5l3 9q35 -7 69 -20t56 -33q22 20 56 33t69 20l3 -9q-39 -18 -74.5 -50.5t-47.5 -80.5h-12z" />
    <glyph glyph-name="uni0162" unicode="&#x162;" horiz-adv-x="658" 
d="M269 -146q0 20 15 35t37 15q35 0 52 -24.5t17 -56.5q0 -29 -7.5 -52.5t-20 -42.5t-28.5 -33.5t-34 -26.5l-9 12q28 22 50 50.5t22 67.5q0 10 -4 16.5t-13 6.5q-5 0 -8 -2.5t-6.5 -5t-8.5 -5t-13 -2.5q-20 0 -30.5 14t-10.5 34zM633 692v-228h-4q-12 0 -19 11t-12 28.5
t-10 39.5t-14 44q-9 23 -19 39.5t-26.5 27t-41.5 15.5t-65 5h-43v-655h111v-19h-322v19h111v655h-43q-40 0 -65 -5t-41.5 -15.5t-26.5 -27t-19 -39.5q-9 -22 -14 -44t-10 -39.5t-12 -28.5t-19 -11h-4v228h608z" />
    <glyph glyph-name="Tcommaaccent" unicode="&#x21a;" horiz-adv-x="658" 
d="M269 -146q0 20 15 35t37 15q35 0 52 -24.5t17 -56.5q0 -29 -7.5 -52.5t-20 -42.5t-28.5 -33.5t-34 -26.5l-9 12q28 22 50 50.5t22 67.5q0 10 -4 16.5t-13 6.5q-5 0 -8 -2.5t-6.5 -5t-8.5 -5t-13 -2.5q-20 0 -30.5 14t-10.5 34zM633 692v-228h-4q-12 0 -19 11t-12 28.5
t-10 39.5t-14 44q-9 23 -19 39.5t-26.5 27t-41.5 15.5t-65 5h-43v-655h111v-19h-322v19h111v655h-43q-40 0 -65 -5t-41.5 -15.5t-26.5 -27t-19 -39.5q-9 -22 -14 -44t-10 -39.5t-12 -28.5t-19 -11h-4v228h608z" />
    <glyph glyph-name="Ubreve" unicode="&#x16c;" 
d="M576 673h-101v19h231v-19h-101v-409q0 -38 -3 -68t-8.5 -53t-14 -41t-19.5 -33q-34 -45 -85.5 -63t-111.5 -18q-110 0 -173 48q-41 31 -60.5 82t-19.5 135v420h-100v19h301v-19h-101v-402q0 -81 8.5 -124t28.5 -69q20 -28 53 -42.5t81 -14.5q46 0 88.5 15.5t69.5 53.5
q17 24 27 60.5t10 102.5v420zM385 794q49 0 73.5 20t29.5 68h16q-1 -27 -8 -52t-21 -44.5t-36.5 -31t-53.5 -11.5q-32 0 -54 11.5t-36 31t-21 44.5t-8 52h16q5 -48 29.5 -68t73.5 -20z" />
    <glyph glyph-name="Uhungarumlaut" unicode="&#x170;" 
d="M576 673h-101v19h231v-19h-101v-409q0 -38 -3 -68t-8.5 -53t-14 -41t-19.5 -33q-34 -45 -85.5 -63t-111.5 -18q-110 0 -173 48q-41 31 -60.5 82t-19.5 135v420h-100v19h301v-19h-101v-402q0 -81 8.5 -124t28.5 -69q20 -28 53 -42.5t81 -14.5q46 0 88.5 15.5t69.5 53.5
q17 24 27 60.5t10 102.5v420zM433 743v1l122 138h120v-6l-227 -133h-15zM290 743v1l122 138h120v-6l-227 -133h-15z" />
    <glyph glyph-name="Umacron" unicode="&#x16a;" 
d="M260 784v49h234v-49h-234zM576 673h-101v19h231v-19h-101v-409q0 -38 -3 -68t-8.5 -53t-14 -41t-19.5 -33q-34 -45 -85.5 -63t-111.5 -18q-110 0 -173 48q-41 31 -60.5 82t-19.5 135v420h-100v19h301v-19h-101v-402q0 -81 8.5 -124t28.5 -69q20 -28 53 -42.5t81 -14.5
q46 0 88.5 15.5t69.5 53.5q17 24 27 60.5t10 102.5v420z" />
    <glyph glyph-name="Uogonek" unicode="&#x172;" 
d="M576 673h-101v19h231v-19h-101v-409q0 -38 -3 -68t-8.5 -53t-14 -41t-19.5 -33q-34 -45 -85.5 -63t-111.5 -18q-110 0 -173 48q-41 31 -60.5 82t-19.5 135v420h-100v19h301v-19h-101v-402q0 -81 8.5 -124t28.5 -69q20 -28 53 -42.5t81 -14.5q46 0 88.5 15.5t69.5 53.5
q17 24 27 60.5t10 102.5v420zM252 -125q0 20 11.5 38t31.5 33.5t46.5 28.5t56.5 25h13q-33 -20 -53 -37.5t-30.5 -32.5t-14 -28t-3.5 -23q0 -23 12.5 -36.5t30.5 -13.5t32 6t26 15l7 -12q-35 -32 -82 -32q-34 0 -59 18.5t-25 50.5z" />
    <glyph glyph-name="Uring" unicode="&#x16e;" 
d="M576 673h-101v19h231v-19h-101v-409q0 -38 -3 -68t-8.5 -53t-14 -41t-19.5 -33q-34 -45 -85.5 -63t-111.5 -18q-110 0 -173 48q-41 31 -60.5 82t-19.5 135v420h-100v19h301v-19h-101v-402q0 -81 8.5 -124t28.5 -69q20 -28 53 -42.5t81 -14.5q46 0 88.5 15.5t69.5 53.5
q17 24 27 60.5t10 102.5v420zM389 927q19 0 35.5 -7t29 -20t19.5 -30t7 -36q0 -40 -26.5 -65.5t-64.5 -25.5t-64.5 25.5t-26.5 65.5q0 19 7 36t19.5 30t29 20t35.5 7zM389 764q11 0 23 4t21.5 12.5t15.5 21.5t6 32t-6 32.5t-15.5 22t-21.5 12.5t-23 4t-23 -4t-21.5 -12.5
t-15.5 -22t-6 -32.5t6 -32t15.5 -21.5t21.5 -12.5t23 -4z" />
    <glyph glyph-name="Utilde" unicode="&#x168;" 
d="M576 673h-101v19h231v-19h-101v-409q0 -38 -3 -68t-8.5 -53t-14 -41t-19.5 -33q-34 -45 -85.5 -63t-111.5 -18q-110 0 -173 48q-41 31 -60.5 82t-19.5 135v420h-100v19h301v-19h-101v-402q0 -81 8.5 -124t28.5 -69q20 -28 53 -42.5t81 -14.5q46 0 88.5 15.5t69.5 53.5
q17 24 27 60.5t10 102.5v420zM223 754q0 23 5 47t15.5 44t28 32.5t42.5 12.5q21 0 41 -11.5t39 -25t36.5 -25t34.5 -11.5q27 0 40 19t15 51h15q0 -41 -7 -66.5t-18.5 -39.5t-26 -19.5t-30.5 -5.5q-25 0 -45.5 11.5t-39 25t-36 25t-37.5 11.5q-24 0 -39 -22t-17 -53h-16z" />
    <glyph glyph-name="uni1EE4" unicode="&#x1ee4;" 
d="M576 673h-101v19h231v-19h-101v-409q0 -38 -3 -68t-8.5 -53t-14 -41t-19.5 -33q-34 -45 -85.5 -63t-111.5 -18q-110 0 -173 48q-41 31 -60.5 82t-19.5 135v420h-100v19h301v-19h-101v-402q0 -81 8.5 -124t28.5 -69q20 -28 53 -42.5t81 -14.5q46 0 88.5 15.5t69.5 53.5
q17 24 27 60.5t10 102.5v420zM422 -152q0 -23 -16 -39.5t-40 -16.5q-23 0 -39.5 16.5t-16.5 39.5q0 24 16.5 40t39.5 16q24 0 40 -16t16 -40z" />
    <glyph glyph-name="Wacute" unicode="&#x1e82;" horiz-adv-x="892" 
d="M912 692v-19h-93l-116 -609q-8 -41 -22 -58.5t-40 -17.5q-17 0 -29 5.5t-20.5 18t-15 33.5t-13.5 52l-115 511h-1l-108 -541q-3 -17 -7 -31.5t-11 -25t-18 -16.5t-29 -6q-29 0 -44.5 21.5t-26.5 76.5l-119 587h-84v19h274v-19h-81l117 -618h1l105 538q9 47 24 63.5
t46 16.5q17 0 28 -6.5t18.5 -19.5t13.5 -33.5t12 -48.5l115 -517h1l117 625h-94v19h215zM426 743v1l122 138h120v-6l-227 -133h-15z" />
    <glyph glyph-name="Wcircumflex" unicode="&#x174;" horiz-adv-x="892" 
d="M912 692v-19h-93l-116 -609q-8 -41 -22 -58.5t-40 -17.5q-17 0 -29 5.5t-20.5 18t-15 33.5t-13.5 52l-115 511h-1l-108 -541q-3 -17 -7 -31.5t-11 -25t-18 -16.5t-29 -6q-29 0 -44.5 21.5t-26.5 76.5l-119 587h-84v19h274v-19h-81l117 -618h1l105 538q9 47 24 63.5
t46 16.5q17 0 28 -6.5t18.5 -19.5t13.5 -33.5t12 -48.5l115 -517h1l117 625h-94v19h215zM478 882q12 -48 47.5 -80.5t74.5 -50.5l-3 -9q-35 7 -69 20t-56 33q-22 -20 -56 -33t-69 -20l-3 9q39 18 74.5 50.5t47.5 80.5h12z" />
    <glyph glyph-name="Wdieresis" unicode="&#x1e84;" horiz-adv-x="892" 
d="M912 692v-19h-93l-116 -609q-8 -41 -22 -58.5t-40 -17.5q-17 0 -29 5.5t-20.5 18t-15 33.5t-13.5 52l-115 511h-1l-108 -541q-3 -17 -7 -31.5t-11 -25t-18 -16.5t-29 -6q-29 0 -44.5 21.5t-26.5 76.5l-119 587h-84v19h274v-19h-81l117 -618h1l105 538q9 47 24 63.5
t46 16.5q17 0 28 -6.5t18.5 -19.5t13.5 -33.5t12 -48.5l115 -517h1l117 625h-94v19h215zM640 814q0 -23 -16 -39.5t-40 -16.5q-23 0 -39.5 16.5t-16.5 39.5q0 24 16.5 40t39.5 16q24 0 40 -16t16 -40zM440 814q0 -23 -16 -39.5t-40 -16.5q-23 0 -39.5 16.5t-16.5 39.5
q0 24 16.5 40t39.5 16q24 0 40 -16t16 -40z" />
    <glyph glyph-name="Wgrave" unicode="&#x1e80;" horiz-adv-x="892" 
d="M912 692v-19h-93l-116 -609q-8 -41 -22 -58.5t-40 -17.5q-17 0 -29 5.5t-20.5 18t-15 33.5t-13.5 52l-115 511h-1l-108 -541q-3 -17 -7 -31.5t-11 -25t-18 -16.5t-29 -6q-29 0 -44.5 21.5t-26.5 76.5l-119 587h-84v19h274v-19h-81l117 -618h1l105 538q9 47 24 63.5
t46 16.5q17 0 28 -6.5t18.5 -19.5t13.5 -33.5t12 -48.5l115 -517h1l117 625h-94v19h215zM495 743l-227 133v6h120l122 -138v-1h-15z" />
    <glyph glyph-name="Ycircumflex" unicode="&#x176;" horiz-adv-x="640" 
d="M527 673h-83v19h196v-19h-84l-190 -366v-288h101v-19h-302v19h101v289l-175 365h-91v19h299v-19h-95l153 -334zM358 882q12 -48 47.5 -80.5t74.5 -50.5l-3 -9q-35 7 -69 20t-56 33q-22 -20 -56 -33t-69 -20l-3 9q39 18 74.5 50.5t47.5 80.5h12z" />
    <glyph glyph-name="Ydieresis" unicode="&#x178;" horiz-adv-x="640" 
d="M527 673h-83v19h196v-19h-84l-190 -366v-288h101v-19h-302v19h101v289l-175 365h-91v19h299v-19h-95l153 -334zM510 814q0 -23 -16 -39.5t-40 -16.5q-23 0 -39.5 16.5t-16.5 39.5q0 24 16.5 40t39.5 16q24 0 40 -16t16 -40zM310 814q0 -23 -16 -39.5t-40 -16.5
q-23 0 -39.5 16.5t-16.5 39.5q0 24 16.5 40t39.5 16q24 0 40 -16t16 -40z" />
    <glyph glyph-name="Ygrave" unicode="&#x1ef2;" horiz-adv-x="640" 
d="M527 673h-83v19h196v-19h-84l-190 -366v-288h101v-19h-302v19h101v289l-175 365h-91v19h299v-19h-95l153 -334zM383 743l-227 133v6h120l122 -138v-1h-15z" />
    <glyph glyph-name="uni0232" unicode="&#x232;" horiz-adv-x="640" 
d="M527 673h-83v19h196v-19h-84l-190 -366v-288h101v-19h-302v19h101v289l-175 365h-91v19h299v-19h-95l153 -334zM236 784v49h234v-49h-234z" />
    <glyph glyph-name="Zacute" unicode="&#x179;" horiz-adv-x="647" 
d="M363 19q39 0 64.5 6t42 17t26.5 28t19 39t14.5 43t11 38t13 27.5t19.5 10.5h4v-228h-532l425 673h-153q-39 0 -64.5 -4.5t-42 -14.5t-26.5 -25.5t-19 -37.5t-14.5 -42.5t-11 -36.5t-13 -25.5t-19.5 -9.5h-4v215h489l-427 -673h198zM300 743v1l122 138h120v-6l-227 -133
h-15z" />
    <glyph glyph-name="Zcaron" unicode="&#x17d;" horiz-adv-x="647" 
d="M363 19q39 0 64.5 6t42 17t26.5 28t19 39t14.5 43t11 38t13 27.5t19.5 10.5h4v-228h-532l425 673h-153q-39 0 -64.5 -4.5t-42 -14.5t-26.5 -25.5t-19 -37.5t-14.5 -42.5t-11 -36.5t-13 -25.5t-19.5 -9.5h-4v215h489l-427 -673h198zM344 742q-12 48 -47.5 80.5t-74.5 50.5
l3 9q35 -7 69 -20t56 -33q22 20 56 33t69 20l3 -9q-39 -18 -74.5 -50.5t-47.5 -80.5h-12z" />
    <glyph glyph-name="Zdotaccent" unicode="&#x17b;" horiz-adv-x="647" 
d="M363 19q39 0 64.5 6t42 17t26.5 28t19 39t14.5 43t11 38t13 27.5t19.5 10.5h4v-228h-532l425 673h-153q-39 0 -64.5 -4.5t-42 -14.5t-26.5 -25.5t-19 -37.5t-14.5 -42.5t-11 -36.5t-13 -25.5t-19.5 -9.5h-4v215h489l-427 -673h198zM412 814q0 -23 -16 -39.5t-40 -16.5
q-23 0 -39.5 16.5t-16.5 39.5q0 24 16.5 40t39.5 16q24 0 40 -16t16 -40z" />
    <glyph glyph-name="abreve" unicode="&#x103;" horiz-adv-x="489" 
d="M308 210q-85 8 -125 -17t-40 -88q0 -44 14.5 -70t46.5 -26q19 0 38 10.5t33.5 33.5t23.5 59.5t9 88.5v9zM314 88q-6 -19 -16.5 -37t-25.5 -32t-35 -22.5t-44 -8.5q-29 0 -56 7t-49 21.5t-35 35.5t-13 50q0 36 23.5 61.5t61 40.5t85 21t95.5 4v83q0 36 -6.5 58.5t-18.5 35
t-29 16.5t-37 4q-37 0 -62 -9.5t-25 -25.5q0 -9 6 -14t12.5 -10.5t12.5 -13t6 -21.5q0 -18 -13 -31t-33 -13t-35.5 15.5t-15.5 40.5q0 21 12 39t33 31.5t50 21.5t63 8q35 0 66 -5.5t54 -22t36 -46t13 -76.5l-1 -229q0 -26 6 -38t24 -12q14 0 29 12t21 42l17 -4
q-8 -38 -32 -56.5t-59 -18.5q-17 0 -32.5 5t-26.5 16.5t-17.5 30t-6.5 46.5h-2zM226 576q49 0 73.5 23.5t29.5 71.5h16q-1 -27 -8 -53t-21 -47t-36.5 -33.5t-53.5 -12.5q-32 0 -54 12.5t-36 33.5t-21 47t-8 53h16q5 -48 29.5 -71.5t73.5 -23.5z" />
    <glyph glyph-name="amacron" unicode="&#x101;" horiz-adv-x="489" 
d="M308 210q-85 8 -125 -17t-40 -88q0 -44 14.5 -70t46.5 -26q19 0 38 10.5t33.5 33.5t23.5 59.5t9 88.5v9zM314 88q-6 -19 -16.5 -37t-25.5 -32t-35 -22.5t-44 -8.5q-29 0 -56 7t-49 21.5t-35 35.5t-13 50q0 36 23.5 61.5t61 40.5t85 21t95.5 4v83q0 36 -6.5 58.5t-18.5 35
t-29 16.5t-37 4q-37 0 -62 -9.5t-25 -25.5q0 -9 6 -14t12.5 -10.5t12.5 -13t6 -21.5q0 -18 -13 -31t-33 -13t-35.5 15.5t-15.5 40.5q0 21 12 39t33 31.5t50 21.5t63 8q35 0 66 -5.5t54 -22t36 -46t13 -76.5l-1 -229q0 -26 6 -38t24 -12q14 0 29 12t21 42l17 -4
q-8 -38 -32 -56.5t-59 -18.5q-17 0 -32.5 5t-26.5 16.5t-17.5 30t-6.5 46.5h-2zM113 568v49h234v-49h-234z" />
    <glyph glyph-name="aogonek" unicode="&#x105;" horiz-adv-x="489" 
d="M308 210q-85 8 -125 -17t-40 -88q0 -44 14.5 -70t46.5 -26q19 0 38 10.5t33.5 33.5t23.5 59.5t9 88.5v9zM314 88q-6 -19 -16.5 -37t-25.5 -32t-35 -22.5t-44 -8.5q-29 0 -56 7t-49 21.5t-35 35.5t-13 50q0 36 23.5 61.5t61 40.5t85 21t95.5 4v83q0 36 -6.5 58.5t-18.5 35
t-29 16.5t-37 4q-37 0 -62 -9.5t-25 -25.5q0 -9 6 -14t12.5 -10.5t12.5 -13t6 -21.5q0 -18 -13 -31t-33 -13t-35.5 15.5t-15.5 40.5q0 21 12 39t33 31.5t50 21.5t63 8q35 0 66 -5.5t54 -22t36 -46t13 -76.5l-1 -229q0 -26 6 -38t24 -12q14 0 29 12t21 42l17 -4
q-8 -38 -32 -56.5t-59 -18.5q-17 0 -32.5 5t-26.5 16.5t-17.5 30t-6.5 46.5h-2zM255 -125q0 20 11.5 38t31.5 33.5t46.5 28.5t56.5 25h13q-33 -20 -53 -37.5t-30.5 -32.5t-14 -28t-3.5 -23q0 -23 12.5 -36.5t30.5 -13.5t32 6t26 15l7 -12q-35 -32 -82 -32q-34 0 -59 18.5
t-25 50.5z" />
    <glyph glyph-name="cacute" unicode="&#x107;" horiz-adv-x="449" 
d="M231 520l82 161h110v-6l-177 -155h-15zM145 215q0 -95 28 -150.5t87 -55.5q46 0 81 29.5t46 91.5l22 -4q-12 -67 -54 -102.5t-104 -35.5q-44 0 -82.5 17t-66.5 47t-44 71t-16 90q0 45 15.5 86.5t44.5 73.5t70 51t93 19q30 0 55.5 -8t44.5 -22.5t30 -34.5t11 -44
t-16 -42.5t-40 -18.5q-21 0 -36 13t-15 34q0 16 9.5 26.5t20.5 17.5q17 10 17 23t-20 25.5t-54 12.5q-39 0 -64 -21t-39 -52.5t-19 -68.5t-5 -68z" />
    <glyph glyph-name="ccaron" unicode="&#x10d;" horiz-adv-x="449" 
d="M145 215q0 -95 28 -150.5t87 -55.5q46 0 81 29.5t46 91.5l22 -4q-12 -67 -54 -102.5t-104 -35.5q-44 0 -82.5 17t-66.5 47t-44 71t-16 90q0 45 15.5 86.5t44.5 73.5t70 51t93 19q30 0 55.5 -8t44.5 -22.5t30 -34.5t11 -44t-16 -42.5t-40 -18.5q-21 0 -36 13t-15 34
q0 16 9.5 26.5t20.5 17.5q17 10 17 23t-20 25.5t-54 12.5q-39 0 -64 -21t-39 -52.5t-19 -68.5t-5 -68zM243 513q-6 24 -20 48.5t-31.5 46t-36 39t-33.5 27.5l5 7q31 -10 64.5 -29.5t57.5 -46.5q24 27 57.5 46.5t64.5 29.5l5 -7q-15 -10 -33.5 -27.5t-36 -39t-31.5 -46
t-20 -48.5h-12z" />
    <glyph glyph-name="ccircumflex" unicode="&#x109;" horiz-adv-x="449" 
d="M145 215q0 -95 28 -150.5t87 -55.5q46 0 81 29.5t46 91.5l22 -4q-12 -67 -54 -102.5t-104 -35.5q-44 0 -82.5 17t-66.5 47t-44 71t-16 90q0 45 15.5 86.5t44.5 73.5t70 51t93 19q30 0 55.5 -8t44.5 -22.5t30 -34.5t11 -44t-16 -42.5t-40 -18.5q-21 0 -36 13t-15 34
q0 16 9.5 26.5t20.5 17.5q17 10 17 23t-20 25.5t-54 12.5q-39 0 -64 -21t-39 -52.5t-19 -68.5t-5 -68zM252 681q6 -24 20 -48.5t31.5 -46t36 -39t33.5 -27.5l-5 -7q-31 10 -64.5 29.5t-57.5 46.5q-24 -27 -57.5 -46.5t-64.5 -29.5l-5 7q15 10 33.5 27.5t36 39t31.5 46
t20 48.5h12z" />
    <glyph glyph-name="cdotaccent" unicode="&#x10b;" horiz-adv-x="449" 
d="M145 215q0 -95 28 -150.5t87 -55.5q46 0 81 29.5t46 91.5l22 -4q-12 -67 -54 -102.5t-104 -35.5q-44 0 -82.5 17t-66.5 47t-44 71t-16 90q0 45 15.5 86.5t44.5 73.5t70 51t93 19q30 0 55.5 -8t44.5 -22.5t30 -34.5t11 -44t-16 -42.5t-40 -18.5q-21 0 -36 13t-15 34
q0 16 9.5 26.5t20.5 17.5q17 10 17 23t-20 25.5t-54 12.5q-39 0 -64 -21t-39 -52.5t-19 -68.5t-5 -68zM305 600q0 -23 -16 -39.5t-40 -16.5q-23 0 -39.5 16.5t-16.5 39.5q0 24 16.5 40t39.5 16q24 0 40 -16t16 -40z" />
    <glyph glyph-name="dcaron" unicode="&#x10f;" horiz-adv-x="599" 
d="M365 216q0 39 -7.5 76t-22.5 66.5t-37 47t-51 17.5q-26 0 -45 -16t-31.5 -44t-18.5 -66t-6 -81q0 -44 6 -81.5t18.5 -65.5t31.5 -44t45 -16q29 0 51 17.5t37 47t22.5 66.5t7.5 76zM358 358q-1 12 -1 24v24v286h-80v19h170v-692h76v-19h-159l-3 43l-3 31h-2
q-7 -14 -17 -29t-25 -28t-35 -21t-45 -8q-39 0 -73.5 17.5t-61 48.5t-42 72.5t-15.5 89.5t15.5 89.5t42 72.5t61 48.5t73.5 17.5q25 0 45 -8t35 -21t25 -28t17 -29h2zM499 668q0 20 15 35t37 15q35 0 52 -24.5t17 -56.5q0 -29 -7.5 -52.5t-20 -42.5t-28.5 -33.5t-34 -26.5
l-9 12q28 22 50 50.5t22 67.5q0 10 -4 16.5t-13 6.5q-5 0 -8 -2.5t-6.5 -5t-8.5 -5t-13 -2.5q-20 0 -30.5 14t-10.5 34z" />
    <glyph glyph-name="dcroat" unicode="&#x111;" horiz-adv-x="551" 
d="M358 358q-1 12 -1 24v24v132h-92v19h92v135h-80v19h170v-154h70v-19h-70v-519h76v-19h-159l-3 43l-3 31h-2q-7 -14 -17 -29t-25 -28t-35 -21t-45 -8q-39 0 -73.5 17.5t-61 48.5t-42 72.5t-15.5 89.5t15.5 89.5t42 72.5t61 48.5t73.5 17.5q25 0 45 -8t35 -21t25 -28
t17 -29h2zM365 216q0 39 -7.5 76t-22.5 66.5t-37 47t-51 17.5q-26 0 -45 -16t-31.5 -44t-18.5 -66t-6 -81q0 -44 6 -81.5t18.5 -65.5t31.5 -44t45 -16q29 0 51 17.5t37 47t22.5 66.5t7.5 76z" />
    <glyph glyph-name="ebreve" unicode="&#x115;" horiz-adv-x="478" 
d="M145 234v-2v-20q0 -46 6.5 -83.5t21.5 -64t38.5 -41t57.5 -14.5q22 0 44 7.5t40.5 22.5t32.5 37.5t20 53.5l22 -4q-6 -33 -22 -59t-38.5 -43.5t-50.5 -26.5t-58 -9q-47 0 -86.5 16.5t-68.5 46.5t-45.5 71t-16.5 90q0 48 17 90t45.5 73.5t66 49.5t78.5 18q34 0 69 -13
t62 -39t42.5 -65.5t12.5 -91.5h-290zM249 427q-24 0 -43 -13t-32 -36.5t-20.5 -55.5t-8.5 -69h194q4 90 -20.5 132t-69.5 42zM240 576q49 0 73.5 23.5t29.5 71.5h16q-1 -27 -8 -53t-21 -47t-36.5 -33.5t-53.5 -12.5q-32 0 -54 12.5t-36 33.5t-21 47t-8 53h16
q5 -48 29.5 -71.5t73.5 -23.5z" />
    <glyph glyph-name="ecaron" unicode="&#x11b;" horiz-adv-x="478" 
d="M145 234v-2v-20q0 -46 6.5 -83.5t21.5 -64t38.5 -41t57.5 -14.5q22 0 44 7.5t40.5 22.5t32.5 37.5t20 53.5l22 -4q-6 -33 -22 -59t-38.5 -43.5t-50.5 -26.5t-58 -9q-47 0 -86.5 16.5t-68.5 46.5t-45.5 71t-16.5 90q0 48 17 90t45.5 73.5t66 49.5t78.5 18q34 0 69 -13
t62 -39t42.5 -65.5t12.5 -91.5h-290zM249 427q-24 0 -43 -13t-32 -36.5t-20.5 -55.5t-8.5 -69h194q4 90 -20.5 132t-69.5 42zM240 513q-6 24 -20 48.5t-31.5 46t-36 39t-33.5 27.5l5 7q31 -10 64.5 -29.5t57.5 -46.5q24 27 57.5 46.5t64.5 29.5l5 -7q-15 -10 -33.5 -27.5
t-36 -39t-31.5 -46t-20 -48.5h-12z" />
    <glyph glyph-name="emacron" unicode="&#x113;" horiz-adv-x="478" 
d="M145 234v-2v-20q0 -46 6.5 -83.5t21.5 -64t38.5 -41t57.5 -14.5q22 0 44 7.5t40.5 22.5t32.5 37.5t20 53.5l22 -4q-6 -33 -22 -59t-38.5 -43.5t-50.5 -26.5t-58 -9q-47 0 -86.5 16.5t-68.5 46.5t-45.5 71t-16.5 90q0 48 17 90t45.5 73.5t66 49.5t78.5 18q34 0 69 -13
t62 -39t42.5 -65.5t12.5 -91.5h-290zM249 427q-24 0 -43 -13t-32 -36.5t-20.5 -55.5t-8.5 -69h194q4 90 -20.5 132t-69.5 42zM132 568v49h234v-49h-234z" />
    <glyph glyph-name="eogonek" unicode="&#x119;" horiz-adv-x="478" 
d="M145 234v-2v-20q0 -46 6.5 -83.5t21.5 -64t38.5 -41t57.5 -14.5q22 0 44 7.5t40.5 22.5t32.5 37.5t20 53.5l22 -4q-6 -33 -22 -59t-38.5 -43.5t-50.5 -26.5t-58 -9q-47 0 -86.5 16.5t-68.5 46.5t-45.5 71t-16.5 90q0 48 17 90t45.5 73.5t66 49.5t78.5 18q34 0 69 -13
t62 -39t42.5 -65.5t12.5 -91.5h-290zM249 427q-24 0 -43 -13t-32 -36.5t-20.5 -55.5t-8.5 -69h194q4 90 -20.5 132t-69.5 42zM153 -125q0 20 11.5 38t31.5 33.5t46.5 28.5t56.5 25h13q-33 -20 -53 -37.5t-30.5 -32.5t-14 -28t-3.5 -23q0 -23 12.5 -36.5t30.5 -13.5t32 6
t26 15l7 -12q-35 -32 -82 -32q-34 0 -59 18.5t-25 50.5z" />
    <glyph glyph-name="edotaccent" unicode="&#x117;" horiz-adv-x="478" 
d="M145 234v-2v-20q0 -46 6.5 -83.5t21.5 -64t38.5 -41t57.5 -14.5q22 0 44 7.5t40.5 22.5t32.5 37.5t20 53.5l22 -4q-6 -33 -22 -59t-38.5 -43.5t-50.5 -26.5t-58 -9q-47 0 -86.5 16.5t-68.5 46.5t-45.5 71t-16.5 90q0 48 17 90t45.5 73.5t66 49.5t78.5 18q34 0 69 -13
t62 -39t42.5 -65.5t12.5 -91.5h-290zM249 427q-24 0 -43 -13t-32 -36.5t-20.5 -55.5t-8.5 -69h194q4 90 -20.5 132t-69.5 42zM306 600q0 -23 -16 -39.5t-40 -16.5q-23 0 -39.5 16.5t-16.5 39.5q0 24 16.5 40t39.5 16q24 0 40 -16t16 -40z" />
    <glyph glyph-name="gbreve" unicode="&#x11f;" horiz-adv-x="556" 
d="M431 277q0 -29 -10.5 -53t-27.5 -43.5t-40 -33.5t-48 -22q20 -1 39.5 -4t34.5 -9.5t24.5 -16.5t9.5 -25q0 -21 -24.5 -35.5t-75.5 -18.5v-1q24 -2 51 -9t49.5 -21t37.5 -35.5t15 -52.5q0 -34 -19.5 -62t-51.5 -47.5t-72.5 -30t-82.5 -10.5q-41 0 -78 12t-65 34.5
t-45 53.5t-17 70q0 27 9.5 50.5t24.5 41t34.5 27.5t39.5 10q19 0 32 -10.5t13 -27.5q0 -23 -15 -33t-39 -16q-23 -6 -44 -21.5t-21 -44.5t14 -52.5t37 -40t53.5 -25t62.5 -8.5q60 0 97.5 31t37.5 97q0 34 -8 56t-22.5 34.5t-34.5 17.5t-44 5h-5l9 17h13q37 0 53 13t16 35
q0 23 -15.5 33.5t-43.5 13.5q-12 -2 -24 -3.5t-23 -1.5q-33 0 -67 11.5t-61 32.5t-44 51t-17 67q0 36 17 66.5t44 52.5t61 34t67 12q39 0 78 -17t67 -46q12 27 33.5 47t53.5 20q10 0 20.5 -3t19.5 -9.5t14.5 -16.5t5.5 -24q0 -17 -10 -31t-29 -14q-14 0 -24 9.5t-10 23.5
t6.5 22t6.5 15t-4.5 9t-9.5 2q-19 0 -36 -20t-25 -43q15 -19 23.5 -41t8.5 -48zM334 277q0 69 -23.5 109.5t-68.5 40.5t-68 -40.5t-23 -109.5q0 -70 22 -108.5t69 -38.5q45 0 68.5 38.5t23.5 108.5zM245 576q49 0 73.5 23.5t29.5 71.5h16q-1 -27 -8 -53t-21 -47t-36.5 -33.5
t-53.5 -12.5q-32 0 -54 12.5t-36 33.5t-21 47t-8 53h16q5 -48 29.5 -71.5t73.5 -23.5z" />
    <glyph glyph-name="gcircumflex" unicode="&#x11d;" horiz-adv-x="556" 
d="M431 277q0 -29 -10.5 -53t-27.5 -43.5t-40 -33.5t-48 -22q20 -1 39.5 -4t34.5 -9.5t24.5 -16.5t9.5 -25q0 -21 -24.5 -35.5t-75.5 -18.5v-1q24 -2 51 -9t49.5 -21t37.5 -35.5t15 -52.5q0 -34 -19.5 -62t-51.5 -47.5t-72.5 -30t-82.5 -10.5q-41 0 -78 12t-65 34.5
t-45 53.5t-17 70q0 27 9.5 50.5t24.5 41t34.5 27.5t39.5 10q19 0 32 -10.5t13 -27.5q0 -23 -15 -33t-39 -16q-23 -6 -44 -21.5t-21 -44.5t14 -52.5t37 -40t53.5 -25t62.5 -8.5q60 0 97.5 31t37.5 97q0 34 -8 56t-22.5 34.5t-34.5 17.5t-44 5h-5l9 17h13q37 0 53 13t16 35
q0 23 -15.5 33.5t-43.5 13.5q-12 -2 -24 -3.5t-23 -1.5q-33 0 -67 11.5t-61 32.5t-44 51t-17 67q0 36 17 66.5t44 52.5t61 34t67 12q39 0 78 -17t67 -46q12 27 33.5 47t53.5 20q10 0 20.5 -3t19.5 -9.5t14.5 -16.5t5.5 -24q0 -17 -10 -31t-29 -14q-14 0 -24 9.5t-10 23.5
t6.5 22t6.5 15t-4.5 9t-9.5 2q-19 0 -36 -20t-25 -43q15 -19 23.5 -41t8.5 -48zM334 277q0 69 -23.5 109.5t-68.5 40.5t-68 -40.5t-23 -109.5q0 -70 22 -108.5t69 -38.5q45 0 68.5 38.5t23.5 108.5zM250 681q6 -24 20 -48.5t31.5 -46t36 -39t33.5 -27.5l-5 -7
q-31 10 -64.5 29.5t-57.5 46.5q-24 -27 -57.5 -46.5t-64.5 -29.5l-5 7q15 10 33.5 27.5t36 39t31.5 46t20 48.5h12z" />
    <glyph glyph-name="gcommaaccent" unicode="&#x123;" horiz-adv-x="556" 
d="M315 576q0 -20 -15 -35t-37 -15q-35 0 -52 24.5t-17 56.5q0 29 7.5 52.5t20 42.5t28.5 33.5t34 26.5l9 -12q-28 -22 -50 -50.5t-22 -67.5q0 -10 4 -16.5t13 -6.5q4 0 7.5 2.5l7 5t8.5 5t13 2.5q20 0 30.5 -14t10.5 -34zM431 277q0 -29 -10.5 -53t-27.5 -43.5t-40 -33.5
t-48 -22q20 -1 39.5 -4t34.5 -9.5t24.5 -16.5t9.5 -25q0 -21 -24.5 -35.5t-75.5 -18.5v-1q24 -2 51 -9t49.5 -21t37.5 -35.5t15 -52.5q0 -34 -19.5 -62t-51.5 -47.5t-72.5 -30t-82.5 -10.5q-41 0 -78 12t-65 34.5t-45 53.5t-17 70q0 27 9.5 50.5t24.5 41t34.5 27.5t39.5 10
q19 0 32 -10.5t13 -27.5q0 -23 -15 -33t-39 -16q-23 -6 -44 -21.5t-21 -44.5t14 -52.5t37 -40t53.5 -25t62.5 -8.5q60 0 97.5 31t37.5 97q0 34 -8 56t-22.5 34.5t-34.5 17.5t-44 5h-5l9 17h13q37 0 53 13t16 35q0 23 -15.5 33.5t-43.5 13.5q-12 -2 -24 -3.5t-23 -1.5
q-33 0 -67 11.5t-61 32.5t-44 51t-17 67q0 36 17 66.5t44 52.5t61 34t67 12q39 0 78 -17t67 -46q12 27 33.5 47t53.5 20q10 0 20.5 -3t19.5 -9.5t14.5 -16.5t5.5 -24q0 -17 -10 -31t-29 -14q-14 0 -24 9.5t-10 23.5t6.5 22t6.5 15t-4.5 9t-9.5 2q-19 0 -36 -20t-25 -43
q15 -19 23.5 -41t8.5 -48zM334 277q0 69 -23.5 109.5t-68.5 40.5t-68 -40.5t-23 -109.5q0 -70 22 -108.5t69 -38.5q45 0 68.5 38.5t23.5 108.5z" />
    <glyph glyph-name="gdotaccent" unicode="&#x121;" horiz-adv-x="556" 
d="M431 277q0 -29 -10.5 -53t-27.5 -43.5t-40 -33.5t-48 -22q20 -1 39.5 -4t34.5 -9.5t24.5 -16.5t9.5 -25q0 -21 -24.5 -35.5t-75.5 -18.5v-1q24 -2 51 -9t49.5 -21t37.5 -35.5t15 -52.5q0 -34 -19.5 -62t-51.5 -47.5t-72.5 -30t-82.5 -10.5q-41 0 -78 12t-65 34.5
t-45 53.5t-17 70q0 27 9.5 50.5t24.5 41t34.5 27.5t39.5 10q19 0 32 -10.5t13 -27.5q0 -23 -15 -33t-39 -16q-23 -6 -44 -21.5t-21 -44.5t14 -52.5t37 -40t53.5 -25t62.5 -8.5q60 0 97.5 31t37.5 97q0 34 -8 56t-22.5 34.5t-34.5 17.5t-44 5h-5l9 17h13q37 0 53 13t16 35
q0 23 -15.5 33.5t-43.5 13.5q-12 -2 -24 -3.5t-23 -1.5q-33 0 -67 11.5t-61 32.5t-44 51t-17 67q0 36 17 66.5t44 52.5t61 34t67 12q39 0 78 -17t67 -46q12 27 33.5 47t53.5 20q10 0 20.5 -3t19.5 -9.5t14.5 -16.5t5.5 -24q0 -17 -10 -31t-29 -14q-14 0 -24 9.5t-10 23.5
t6.5 22t6.5 15t-4.5 9t-9.5 2q-19 0 -36 -20t-25 -43q15 -19 23.5 -41t8.5 -48zM334 277q0 69 -23.5 109.5t-68.5 40.5t-68 -40.5t-23 -109.5q0 -70 22 -108.5t69 -38.5q45 0 68.5 38.5t23.5 108.5zM300 600q0 -23 -16 -39.5t-40 -16.5q-23 0 -39.5 16.5t-16.5 39.5
q0 24 16.5 40t39.5 16q24 0 40 -16t16 -40z" />
    <glyph glyph-name="hbar" unicode="&#x127;" horiz-adv-x="544" 
d="M19 19h76v519h-76v19h76v135h-76v19h166v-154h76v-19h-76v-142l-5 -73h1q20 52 57.5 85t89.5 33q39 0 64 -13.5t38.5 -36t18.5 -51.5t5 -61v-260h76v-19h-238v19h72v244q0 30 -0.5 57.5t-6 48.5t-17.5 33.5t-36 12.5q-27 0 -49 -17.5t-37.5 -42t-24 -50.5t-8.5 -42v-244
h72v-19h-238v19z" />
    <glyph glyph-name="hcircumflex" unicode="&#x125;" horiz-adv-x="544" 
d="M19 19h76v673h-76v19h166v-315l-5 -73h1q20 52 57.5 85t89.5 33q39 0 64 -13.5t38.5 -36t18.5 -51.5t5 -61v-260h76v-19h-238v19h72v244q0 30 -0.5 57.5t-6 48.5t-17.5 33.5t-36 12.5q-27 0 -49 -17.5t-37.5 -42t-24 -50.5t-8.5 -42v-244h72v-19h-238v19zM127 882
q12 -48 47.5 -80.5t74.5 -50.5l-3 -9q-35 7 -69 20t-56 33q-22 -20 -56 -33t-69 -20l-3 9q39 18 74.5 50.5t47.5 80.5h12z" />
    <glyph glyph-name="dotlessi" unicode="&#x131;" horiz-adv-x="297" 
d="M29 0v19h76v392h-76v19h166v-411h76v-19h-242z" />
    <glyph glyph-name="ibreve" unicode="&#x12d;" horiz-adv-x="297" 
d="M149 576q49 0 73.5 23.5t29.5 71.5h16q-1 -27 -8 -53t-21 -47t-36.5 -33.5t-53.5 -12.5q-32 0 -54 12.5t-36 33.5t-21 47t-8 53h16q5 -48 29.5 -71.5t73.5 -23.5zM29 0v19h76v392h-76v19h166v-411h76v-19h-242z" />
    <glyph glyph-name="imacron" unicode="&#x12b;" horiz-adv-x="297" 
d="M18 568v49h234v-49h-234zM29 0v19h76v392h-76v19h166v-411h76v-19h-242z" />
    <glyph glyph-name="iogonek" unicode="&#x12f;" horiz-adv-x="297" 
d="M23 -125q0 20 11.5 38t31.5 33.5t46.5 28.5t56.5 25h13q-33 -20 -53 -37.5t-30.5 -32.5t-14 -28t-3.5 -23q0 -23 12.5 -36.5t30.5 -13.5t32 6t26 15l7 -12q-35 -32 -82 -32q-34 0 -59 18.5t-25 50.5zM29 0v19h76v392h-76v19h166v-411h76v-19h-242zM207 634q0 -25 -17 -42
t-42 -17t-42 17t-17 42t17 42t42 17t42 -17t17 -42z" />
    <glyph glyph-name="itilde" unicode="&#x129;" horiz-adv-x="297" 
d="M9 531q0 23 4 47t12.5 44t22.5 32.5t34 12.5q17 0 33 -11.5t31 -25t29.5 -25t27.5 -11.5q22 0 32.5 19t11.5 51h12q0 -41 -6 -66.5t-15 -39.5t-20.5 -19.5t-23.5 -5.5q-20 0 -36.5 11.5t-31.5 25t-29 25t-30 11.5q-20 0 -31.5 -22t-13.5 -53h-13zM29 0v19h76v392h-76v19
h166v-411h76v-19h-242z" />
    <glyph glyph-name="uni1ECB" unicode="&#x1ecb;" horiz-adv-x="297" 
d="M202 -152q0 -23 -16 -39.5t-40 -16.5q-23 0 -39.5 16.5t-16.5 39.5q0 24 16.5 40t39.5 16q24 0 40 -16t16 -40zM29 0v19h76v392h-76v19h166v-411h76v-19h-242zM207 634q0 -25 -17 -42t-42 -17t-42 17t-17 42t17 42t42 17t42 -17t17 -42z" />
    <glyph glyph-name="dotlessj" unicode="&#x237;" horiz-adv-x="295" 
d="M18 -239q17 0 33 5.5t29 22.5t20.5 50t7.5 89v483h-91v19h181v-422q0 -63 -14 -111.5t-38.5 -81.5t-57.5 -50.5t-71 -17.5q-21 0 -40.5 7.5t-34 20t-23.5 29t-9 35.5q0 29 17.5 45t38.5 16q22 0 34.5 -13t12.5 -33q0 -15 -6.5 -23t-14.5 -13.5t-14.5 -11.5t-6.5 -16
q0 -14 13.5 -21.5t33.5 -7.5z" />
    <glyph glyph-name="jcircumflex" unicode="&#x135;" horiz-adv-x="295" 
d="M150 682q6 -24 20 -48.5t31.5 -46t36 -39t33.5 -27.5l-5 -7q-31 10 -64.5 29.5t-57.5 46.5q-24 -27 -57.5 -46.5t-64.5 -29.5l-5 7q15 10 33.5 27.5t36 39t31.5 46t20 48.5h12zM18 -239q17 0 33 5.5t29 22.5t20.5 50t7.5 89v483h-91v19h181v-422q0 -63 -14 -111.5
t-38.5 -81.5t-57.5 -50.5t-71 -17.5q-21 0 -40.5 7.5t-34 20t-23.5 29t-9 35.5q0 29 17.5 45t38.5 16q22 0 34.5 -13t12.5 -33q0 -15 -6.5 -23t-14.5 -13.5t-14.5 -11.5t-6.5 -16q0 -14 13.5 -21.5t33.5 -7.5z" />
    <glyph glyph-name="kcommaaccent" unicode="&#x137;" horiz-adv-x="548" 
d="M245 0h-226v19h76v673h-74v19h164v-456h34q35 0 62 11t51 46l66 99h-83v19h180v-19h-69l-72 -106q-17 -25 -31.5 -37t-32.5 -17v-1q30 -2 49 -16.5t42 -50.5l103 -164h59v-19h-229v19h68l-130 217h-67v-217h60v-19zM212 -146q0 20 15 35t37 15q35 0 52 -24.5t17 -56.5
q0 -29 -7.5 -52.5t-20 -42.5t-28.5 -33.5t-34 -26.5l-9 12q28 22 50 50.5t22 67.5q0 10 -4 16.5t-13 6.5q-5 0 -8 -2.5t-6.5 -5t-8.5 -5t-13 -2.5q-20 0 -30.5 14t-10.5 34z" />
    <glyph glyph-name="lacute" unicode="&#x13a;" horiz-adv-x="287" 
d="M47 743v1l122 138h120v-6l-227 -133h-15zM19 0v19h76v673h-76v19h166v-692h76v-19h-242z" />
    <glyph glyph-name="lcaron" unicode="&#x13e;" horiz-adv-x="343" 
d="M243 668q0 20 15 35t37 15q35 0 52 -24.5t17 -56.5q0 -29 -7.5 -52.5t-20 -42.5t-28.5 -33.5t-34 -26.5l-9 12q28 22 50 50.5t22 67.5q0 10 -4 16.5t-13 6.5q-5 0 -8 -2.5t-6.5 -5t-8.5 -5t-13 -2.5q-20 0 -30.5 14t-10.5 34zM19 0v19h76v673h-76v19h166v-692h76v-19
h-242z" />
    <glyph glyph-name="lcommaaccent" unicode="&#x13c;" horiz-adv-x="287" 
d="M80 -146q0 20 15 35t37 15q35 0 52 -24.5t17 -56.5q0 -29 -7.5 -52.5t-20 -42.5t-28.5 -33.5t-34 -26.5l-9 12q28 22 50 50.5t22 67.5q0 10 -4 16.5t-13 6.5q-5 0 -8 -2.5t-6.5 -5t-8.5 -5t-13 -2.5q-20 0 -30.5 14t-10.5 34zM19 0v19h76v673h-76v19h166v-692h76v-19
h-242z" />
    <glyph glyph-name="ldot" unicode="&#x140;" horiz-adv-x="346" 
d="M369 355q0 -23 -16 -39.5t-40 -16.5q-23 0 -39.5 16.5t-16.5 39.5q0 24 16.5 40t39.5 16q24 0 40 -16t16 -40zM19 0v19h76v673h-76v19h166v-692h76v-19h-242z" />
    <glyph glyph-name="lslash" unicode="&#x142;" horiz-adv-x="287" 
d="M14 346l81 22v324h-76v19h166v-319l77 21l5 -19l-82 -22v-353h76v-19h-242v19h76v328l-76 -20z" />
    <glyph glyph-name="nacute" unicode="&#x144;" horiz-adv-x="554" 
d="M29 19h76v392h-76v19h159l2 -107h1q20 52 57.5 85t89.5 33q39 0 64 -13.5t38.5 -36t18.5 -51.5t5 -61v-260h76v-19h-238v19h72v244q0 30 -0.5 57.5t-6 48.5t-17.5 33.5t-36 12.5q-27 0 -49 -17.5t-37.5 -42t-24 -50.5t-8.5 -42v-244h72v-19h-238v19zM260 520l82 161h110
v-6l-177 -155h-15z" />
    <glyph glyph-name="ncaron" unicode="&#x148;" horiz-adv-x="554" 
d="M29 19h76v392h-76v19h159l2 -107h1q20 52 57.5 85t89.5 33q39 0 64 -13.5t38.5 -36t18.5 -51.5t5 -61v-260h76v-19h-238v19h72v244q0 30 -0.5 57.5t-6 48.5t-17.5 33.5t-36 12.5q-27 0 -49 -17.5t-37.5 -42t-24 -50.5t-8.5 -42v-244h72v-19h-238v19zM281 513
q-6 24 -20 48.5t-31.5 46t-36 39t-33.5 27.5l5 7q31 -10 64.5 -29.5t57.5 -46.5q24 27 57.5 46.5t64.5 29.5l5 -7q-15 -10 -33.5 -27.5t-36 -39t-31.5 -46t-20 -48.5h-12z" />
    <glyph glyph-name="ncommaaccent" unicode="&#x146;" horiz-adv-x="554" 
d="M29 19h76v392h-76v19h159l2 -107h1q20 52 57.5 85t89.5 33q39 0 64 -13.5t38.5 -36t18.5 -51.5t5 -61v-260h76v-19h-238v19h72v244q0 30 -0.5 57.5t-6 48.5t-17.5 33.5t-36 12.5q-27 0 -49 -17.5t-37.5 -42t-24 -50.5t-8.5 -42v-244h72v-19h-238v19zM226 -146q0 20 15 35
t37 15q35 0 52 -24.5t17 -56.5q0 -29 -7.5 -52.5t-20 -42.5t-28.5 -33.5t-34 -26.5l-9 12q28 22 50 50.5t22 67.5q0 10 -4 16.5t-13 6.5q-5 0 -8 -2.5t-6.5 -5t-8.5 -5t-13 -2.5q-20 0 -30.5 14t-10.5 34z" />
    <glyph glyph-name="oe" unicode="&#x153;" horiz-adv-x="774" 
d="M42 215q0 44 16.5 85t45 72.5t67 50.5t81.5 19q48 0 87 -23t65 -60q26 38 64.5 61t83.5 23q34 0 68.5 -14t60.5 -41t40.5 -66t9.5 -88h-277v-2v-20q0 -46 6 -83.5t20 -64t37 -41t57 -14.5q20 0 40.5 7.5t38.5 22.5t31.5 37.5t19.5 53.5l22 -4q-6 -33 -21.5 -59t-37 -43.5
t-48.5 -26.5t-55 -9q-54 0 -95 21t-67 59q-26 -36 -64.5 -58t-85.5 -22q-43 0 -81.5 19t-67 50.5t-45 72.5t-16.5 85zM146 215q0 -46 4.5 -84.5t16.5 -66.5t32.5 -44t52.5 -16t52.5 16t32.5 44t16.5 66.5t4.5 84.5t-4.5 84.5t-16.5 66.5t-32.5 44t-52.5 16t-52.5 -16
t-32.5 -44t-16.5 -66.5t-4.5 -84.5zM552 427q-24 0 -41.5 -13t-30 -36.5t-19 -55.5t-7.5 -69h183q4 90 -19.5 132t-65.5 42z" />
    <glyph glyph-name="obreve" unicode="&#x14f;" horiz-adv-x="504" 
d="M42 215q0 44 16.5 85.5t45 73t67 50.5t81.5 19t81.5 -19t67 -50.5t45 -73t16.5 -85.5t-16.5 -85t-45 -72.5t-67 -50.5t-81.5 -19t-81.5 19t-67 50.5t-45 72.5t-16.5 85zM146 215q0 -46 4.5 -84.5t16.5 -66.5t32.5 -44t52.5 -16t52.5 16t32.5 44t16.5 66.5t4.5 84.5
t-4.5 84.5t-16.5 67t-32.5 44.5t-52.5 16t-52.5 -16t-32.5 -44.5t-16.5 -67t-4.5 -84.5zM252 576q49 0 73.5 23.5t29.5 71.5h16q-1 -27 -8 -53t-21 -47t-36.5 -33.5t-53.5 -12.5q-32 0 -54 12.5t-36 33.5t-21 47t-8 53h16q5 -48 29.5 -71.5t73.5 -23.5z" />
    <glyph glyph-name="ohungarumlaut" unicode="&#x151;" horiz-adv-x="504" 
d="M42 215q0 44 16.5 85.5t45 73t67 50.5t81.5 19t81.5 -19t67 -50.5t45 -73t16.5 -85.5t-16.5 -85t-45 -72.5t-67 -50.5t-81.5 -19t-81.5 19t-67 50.5t-45 72.5t-16.5 85zM146 215q0 -46 4.5 -84.5t16.5 -66.5t32.5 -44t52.5 -16t52.5 16t32.5 44t16.5 66.5t4.5 84.5
t-4.5 84.5t-16.5 67t-32.5 44.5t-52.5 16t-52.5 -16t-32.5 -44.5t-16.5 -67t-4.5 -84.5zM315 520l82 161h110v-6l-177 -155h-15zM177 520l82 161h110v-6l-177 -155h-15z" />
    <glyph glyph-name="omacron" unicode="&#x14d;" horiz-adv-x="504" 
d="M42 215q0 44 16.5 85.5t45 73t67 50.5t81.5 19t81.5 -19t67 -50.5t45 -73t16.5 -85.5t-16.5 -85t-45 -72.5t-67 -50.5t-81.5 -19t-81.5 19t-67 50.5t-45 72.5t-16.5 85zM146 215q0 -46 4.5 -84.5t16.5 -66.5t32.5 -44t52.5 -16t52.5 16t32.5 44t16.5 66.5t4.5 84.5
t-4.5 84.5t-16.5 67t-32.5 44.5t-52.5 16t-52.5 -16t-32.5 -44.5t-16.5 -67t-4.5 -84.5zM135 568v49h234v-49h-234z" />
    <glyph glyph-name="uni1ECD" unicode="&#x1ecd;" horiz-adv-x="504" 
d="M42 215q0 44 16.5 85.5t45 73t67 50.5t81.5 19t81.5 -19t67 -50.5t45 -73t16.5 -85.5t-16.5 -85t-45 -72.5t-67 -50.5t-81.5 -19t-81.5 19t-67 50.5t-45 72.5t-16.5 85zM146 215q0 -46 4.5 -84.5t16.5 -66.5t32.5 -44t52.5 -16t52.5 16t32.5 44t16.5 66.5t4.5 84.5
t-4.5 84.5t-16.5 67t-32.5 44.5t-52.5 16t-52.5 -16t-32.5 -44.5t-16.5 -67t-4.5 -84.5zM308 -152q0 -23 -16 -39.5t-40 -16.5q-23 0 -39.5 16.5t-16.5 39.5q0 24 16.5 40t39.5 16q24 0 40 -16t16 -40z" />
    <glyph glyph-name="racute" unicode="&#x155;" horiz-adv-x="422" 
d="M188 318h1q6 22 18.5 43.5t29 38t38 26.5t45.5 10q34 0 58 -20.5t24 -58.5q0 -29 -16.5 -44.5t-37.5 -15.5q-18 0 -30.5 11t-12.5 29q0 12 4.5 19.5t10.5 14t10.5 12.5t4.5 14q0 19 -26 19q-18 0 -38 -12.5t-37 -35.5t-28 -55t-11 -72v-222h107v-19h-273v19h76v392h-74
v19h157v-112zM229 520l82 161h110v-6l-177 -155h-15z" />
    <glyph glyph-name="rcaron" unicode="&#x159;" horiz-adv-x="422" 
d="M188 318h1q6 22 18.5 43.5t29 38t38 26.5t45.5 10q34 0 58 -20.5t24 -58.5q0 -29 -16.5 -44.5t-37.5 -15.5q-18 0 -30.5 11t-12.5 29q0 12 4.5 19.5t10.5 14t10.5 12.5t4.5 14q0 19 -26 19q-18 0 -38 -12.5t-37 -35.5t-28 -55t-11 -72v-222h107v-19h-273v19h76v392h-74
v19h157v-112zM228 513q-6 24 -20 48.5t-31.5 46t-36 39t-33.5 27.5l5 7q31 -10 64.5 -29.5t57.5 -46.5q24 27 57.5 46.5t64.5 29.5l5 -7q-15 -10 -33.5 -27.5t-36 -39t-31.5 -46t-20 -48.5h-12z" />
    <glyph glyph-name="rcommaaccent" unicode="&#x157;" horiz-adv-x="422" 
d="M188 318h1q6 22 18.5 43.5t29 38t38 26.5t45.5 10q34 0 58 -20.5t24 -58.5q0 -29 -16.5 -44.5t-37.5 -15.5q-18 0 -30.5 11t-12.5 29q0 12 4.5 19.5t10.5 14t10.5 12.5t4.5 14q0 19 -26 19q-18 0 -38 -12.5t-37 -35.5t-28 -55t-11 -72v-222h107v-19h-273v19h76v392h-74
v19h157v-112zM85 -146q0 20 15 35t37 15q35 0 52 -24.5t17 -56.5q0 -29 -7.5 -52.5t-20 -42.5t-28.5 -33.5t-34 -26.5l-9 12q28 22 50 50.5t22 67.5q0 10 -4 16.5t-13 6.5q-5 0 -8 -2.5t-6.5 -5t-8.5 -5t-13 -2.5q-20 0 -30.5 14t-10.5 34z" />
    <glyph glyph-name="sacute" unicode="&#x15b;" horiz-adv-x="441" 
d="M389 119q0 -30 -13 -54t-34.5 -41t-50.5 -26.5t-61 -9.5q-29 0 -50 6t-35.5 13.5t-24.5 13.5t-17 6t-10.5 -5.5t-7 -12t-8.5 -12t-14 -5.5h-3v174h3q16 0 28 -23t22 -53q16 -45 46 -64t70 -19q18 0 37 4.5t34.5 14t25.5 24t10 34.5q0 35 -29.5 53t-78.5 35l-35 12
q-67 23 -97 58.5t-30 83.5q0 26 11 47.5t29.5 37t43.5 24t52 8.5q24 0 42.5 -6t32 -12.5t23.5 -12.5t16 -6q7 0 10.5 5.5t6.5 11.5t6 11.5t10 5.5h5v-153h-5q-11 0 -23 17t-20 43q-14 42 -44.5 59.5t-61.5 17.5q-15 0 -30.5 -4t-28.5 -11.5t-21.5 -20t-8.5 -28.5
q0 -22 21 -42.5t78 -40.5l40 -14q30 -11 55.5 -23.5t44 -29t29 -39t10.5 -52.5zM211 520l82 161h110v-6l-177 -155h-15z" />
    <glyph glyph-name="scaron" unicode="&#x161;" horiz-adv-x="441" 
d="M389 119q0 -30 -13 -54t-34.5 -41t-50.5 -26.5t-61 -9.5q-29 0 -50 6t-35.5 13.5t-24.5 13.5t-17 6t-10.5 -5.5t-7 -12t-8.5 -12t-14 -5.5h-3v174h3q16 0 28 -23t22 -53q16 -45 46 -64t70 -19q18 0 37 4.5t34.5 14t25.5 24t10 34.5q0 35 -29.5 53t-78.5 35l-35 12
q-67 23 -97 58.5t-30 83.5q0 26 11 47.5t29.5 37t43.5 24t52 8.5q24 0 42.5 -6t32 -12.5t23.5 -12.5t16 -6q7 0 10.5 5.5t6.5 11.5t6 11.5t10 5.5h5v-153h-5q-11 0 -23 17t-20 43q-14 42 -44.5 59.5t-61.5 17.5q-15 0 -30.5 -4t-28.5 -11.5t-21.5 -20t-8.5 -28.5
q0 -22 21 -42.5t78 -40.5l40 -14q30 -11 55.5 -23.5t44 -29t29 -39t10.5 -52.5zM214 513q-6 24 -20 48.5t-31.5 46t-36 39t-33.5 27.5l5 7q31 -10 64.5 -29.5t57.5 -46.5q24 27 57.5 46.5t64.5 29.5l5 -7q-15 -10 -33.5 -27.5t-36 -39t-31.5 -46t-20 -48.5h-12z" />
    <glyph glyph-name="scedilla" unicode="&#x15f;" horiz-adv-x="441" 
d="M389 119q0 -30 -13 -54t-34.5 -41t-50.5 -26.5t-61 -9.5q-29 0 -50 6t-35.5 13.5t-24.5 13.5t-17 6t-10.5 -5.5t-7 -12t-8.5 -12t-14 -5.5h-3v174h3q16 0 28 -23t22 -53q16 -45 46 -64t70 -19q18 0 37 4.5t34.5 14t25.5 24t10 34.5q0 35 -29.5 53t-78.5 35l-35 12
q-67 23 -97 58.5t-30 83.5q0 26 11 47.5t29.5 37t43.5 24t52 8.5q24 0 42.5 -6t32 -12.5t23.5 -12.5t16 -6q7 0 10.5 5.5t6.5 11.5t6 11.5t10 5.5h5v-153h-5q-11 0 -23 17t-20 43q-14 42 -44.5 59.5t-61.5 17.5q-15 0 -30.5 -4t-28.5 -11.5t-21.5 -20t-8.5 -28.5
q0 -22 21 -42.5t78 -40.5l40 -14q30 -11 55.5 -23.5t44 -29t29 -39t10.5 -52.5zM309 -167q0 -20 -9.5 -35.5t-25 -27t-35.5 -17.5t-41 -6q-35 0 -58.5 17t-34.5 48l17 7q9 -29 27 -42t43 -13q31 0 50 17.5t19 50.5q0 37 -18.5 51t-39.5 14q-17 0 -27.5 -5t-17.5 -10l-14 15
l56 103h22l-51 -97l1 -1q21 13 47 13q13 0 29 -4.5t29.5 -14.5t22.5 -25.5t9 -37.5z" />
    <glyph glyph-name="scircumflex" unicode="&#x15d;" horiz-adv-x="441" 
d="M389 119q0 -30 -13 -54t-34.5 -41t-50.5 -26.5t-61 -9.5q-29 0 -50 6t-35.5 13.5t-24.5 13.5t-17 6t-10.5 -5.5t-7 -12t-8.5 -12t-14 -5.5h-3v174h3q16 0 28 -23t22 -53q16 -45 46 -64t70 -19q18 0 37 4.5t34.5 14t25.5 24t10 34.5q0 35 -29.5 53t-78.5 35l-35 12
q-67 23 -97 58.5t-30 83.5q0 26 11 47.5t29.5 37t43.5 24t52 8.5q24 0 42.5 -6t32 -12.5t23.5 -12.5t16 -6q7 0 10.5 5.5t6.5 11.5t6 11.5t10 5.5h5v-153h-5q-11 0 -23 17t-20 43q-14 42 -44.5 59.5t-61.5 17.5q-15 0 -30.5 -4t-28.5 -11.5t-21.5 -20t-8.5 -28.5
q0 -22 21 -42.5t78 -40.5l40 -14q30 -11 55.5 -23.5t44 -29t29 -39t10.5 -52.5zM228 681q6 -24 20 -48.5t31.5 -46t36 -39t33.5 -27.5l-5 -7q-31 10 -64.5 29.5t-57.5 46.5q-24 -27 -57.5 -46.5t-64.5 -29.5l-5 7q15 10 33.5 27.5t36 39t31.5 46t20 48.5h12z" />
    <glyph glyph-name="scommaaccent" unicode="&#x219;" horiz-adv-x="441" 
d="M389 119q0 -30 -13 -54t-34.5 -41t-50.5 -26.5t-61 -9.5q-29 0 -50 6t-35.5 13.5t-24.5 13.5t-17 6t-10.5 -5.5t-7 -12t-8.5 -12t-14 -5.5h-3v174h3q16 0 28 -23t22 -53q16 -45 46 -64t70 -19q18 0 37 4.5t34.5 14t25.5 24t10 34.5q0 35 -29.5 53t-78.5 35l-35 12
q-67 23 -97 58.5t-30 83.5q0 26 11 47.5t29.5 37t43.5 24t52 8.5q24 0 42.5 -6t32 -12.5t23.5 -12.5t16 -6q7 0 10.5 5.5t6.5 11.5t6 11.5t10 5.5h5v-153h-5q-11 0 -23 17t-20 43q-14 42 -44.5 59.5t-61.5 17.5q-15 0 -30.5 -4t-28.5 -11.5t-21.5 -20t-8.5 -28.5
q0 -22 21 -42.5t78 -40.5l40 -14q30 -11 55.5 -23.5t44 -29t29 -39t10.5 -52.5zM159 -146q0 20 15 35t37 15q35 0 52 -24.5t17 -56.5q0 -29 -7.5 -52.5t-20 -42.5t-28.5 -33.5t-34 -26.5l-9 12q28 22 50 50.5t22 67.5q0 10 -4 16.5t-13 6.5q-5 0 -8 -2.5t-6.5 -5t-8.5 -5
t-13 -2.5q-20 0 -30.5 14t-10.5 34z" />
    <glyph glyph-name="tcaron" unicode="&#x165;" horiz-adv-x="374" 
d="M283 668q0 20 15 35t37 15q35 0 52 -24.5t17 -56.5q0 -29 -7.5 -52.5t-20 -42.5t-28.5 -33.5t-34 -26.5l-9 12q28 22 50 50.5t22 67.5q0 10 -4 16.5t-13 6.5q-5 0 -8 -2.5t-6.5 -5t-8.5 -5t-13 -2.5q-20 0 -30.5 14t-10.5 34zM207 -12q-20 0 -40 4.5t-36 17.5t-25.5 36
t-9.5 61v304h-86v19h86v67q24 21 42 41.5t35 44.5h13v-153h129v-19h-129v-319q0 -43 11.5 -61.5t38.5 -18.5q26 0 45.5 22t28.5 62l17 -4q-8 -34 -21.5 -54.5t-30 -31.5t-34.5 -14.5t-34 -3.5z" />
    <glyph glyph-name="uni0163" unicode="&#x163;" horiz-adv-x="342" 
d="M207 -12q-20 0 -40 4.5t-36 17.5t-25.5 36t-9.5 61v304h-86v19h86v67q24 21 42 41.5t35 44.5h13v-153h129v-19h-129v-319q0 -43 11.5 -61.5t38.5 -18.5q26 0 45.5 22t28.5 62l17 -4q-8 -34 -21.5 -54.5t-30 -31.5t-34.5 -14.5t-34 -3.5zM101 -146q0 20 15 35t37 15
q35 0 52 -24.5t17 -56.5q0 -29 -7.5 -52.5t-20 -42.5t-28.5 -33.5t-34 -26.5l-9 12q28 22 50 50.5t22 67.5q0 10 -4 16.5t-13 6.5q-5 0 -8 -2.5t-6.5 -5t-8.5 -5t-13 -2.5q-20 0 -30.5 14t-10.5 34z" />
    <glyph glyph-name="tcommaaccent" unicode="&#x21b;" horiz-adv-x="342" 
d="M207 -12q-20 0 -40 4.5t-36 17.5t-25.5 36t-9.5 61v304h-86v19h86v67q24 21 42 41.5t35 44.5h13v-153h129v-19h-129v-319q0 -43 11.5 -61.5t38.5 -18.5q26 0 45.5 22t28.5 62l17 -4q-8 -34 -21.5 -54.5t-30 -31.5t-34.5 -14.5t-34 -3.5zM101 -146q0 20 15 35t37 15
q35 0 52 -24.5t17 -56.5q0 -29 -7.5 -52.5t-20 -42.5t-28.5 -33.5t-34 -26.5l-9 12q28 22 50 50.5t22 67.5q0 10 -4 16.5t-13 6.5q-5 0 -8 -2.5t-6.5 -5t-8.5 -5t-13 -2.5q-20 0 -30.5 14t-10.5 34z" />
    <glyph glyph-name="ubreve" unicode="&#x16d;" horiz-adv-x="525" 
d="M174 140q0 -35 2.5 -59t8.5 -39t17.5 -21.5t29.5 -6.5q27 0 48 18t35.5 42.5t22 51.5t7.5 45v240h-72v19h162v-411h76v-19h-159l-1 106h-1q-20 -52 -54 -85t-87 -33q-24 0 -46.5 6t-40 22t-28 44.5t-10.5 72.5v278h-76v19h166v-290zM254 576q49 0 73.5 23.5t29.5 71.5h16
q-1 -27 -8 -53t-21 -47t-36.5 -33.5t-53.5 -12.5q-32 0 -54 12.5t-36 33.5t-21 47t-8 53h16q5 -48 29.5 -71.5t73.5 -23.5z" />
    <glyph glyph-name="uhungarumlaut" unicode="&#x171;" horiz-adv-x="525" 
d="M174 140q0 -35 2.5 -59t8.5 -39t17.5 -21.5t29.5 -6.5q27 0 48 18t35.5 42.5t22 51.5t7.5 45v240h-72v19h162v-411h76v-19h-159l-1 106h-1q-20 -52 -54 -85t-87 -33q-24 0 -46.5 6t-40 22t-28 44.5t-10.5 72.5v278h-76v19h166v-290zM311 520l82 161h110v-6l-177 -155h-15
zM173 520l82 161h110v-6l-177 -155h-15z" />
    <glyph glyph-name="umacron" unicode="&#x16b;" horiz-adv-x="525" 
d="M174 140q0 -35 2.5 -59t8.5 -39t17.5 -21.5t29.5 -6.5q27 0 48 18t35.5 42.5t22 51.5t7.5 45v240h-72v19h162v-411h76v-19h-159l-1 106h-1q-20 -52 -54 -85t-87 -33q-24 0 -46.5 6t-40 22t-28 44.5t-10.5 72.5v278h-76v19h166v-290zM140 568v49h234v-49h-234z" />
    <glyph glyph-name="uogonek" unicode="&#x173;" horiz-adv-x="525" 
d="M174 140q0 -35 2.5 -59t8.5 -39t17.5 -21.5t29.5 -6.5q27 0 48 18t35.5 42.5t22 51.5t7.5 45v240h-72v19h162v-411h76v-19h-159l-1 106h-1q-20 -52 -54 -85t-87 -33q-24 0 -46.5 6t-40 22t-28 44.5t-10.5 72.5v278h-76v19h166v-290zM296 -125q0 20 11.5 38t31.5 33.5
t46.5 28.5t56.5 25h13q-33 -20 -53 -37.5t-30.5 -32.5t-14 -28t-3.5 -23q0 -23 12.5 -36.5t30.5 -13.5t32 6t26 15l7 -12q-35 -32 -82 -32q-34 0 -59 18.5t-25 50.5z" />
    <glyph glyph-name="uring" unicode="&#x16f;" horiz-adv-x="525" 
d="M174 140q0 -35 2.5 -59t8.5 -39t17.5 -21.5t29.5 -6.5q27 0 48 18t35.5 42.5t22 51.5t7.5 45v240h-72v19h162v-411h76v-19h-159l-1 106h-1q-20 -52 -54 -85t-87 -33q-24 0 -46.5 6t-40 22t-28 44.5t-10.5 72.5v278h-76v19h166v-290zM250 706q19 0 35.5 -7t29 -20
t19.5 -30t7 -36q0 -40 -26.5 -65.5t-64.5 -25.5t-64.5 25.5t-26.5 65.5q0 19 7 36t19.5 30t29 20t35.5 7zM250 543q11 0 23 4t21.5 12.5t15.5 21.5t6 32t-6 32.5t-15.5 22t-21.5 12.5t-23 4t-23 -4t-21.5 -12.5t-15.5 -22t-6 -32.5t6 -32t15.5 -21.5t21.5 -12.5t23 -4z" />
    <glyph glyph-name="utilde" unicode="&#x169;" horiz-adv-x="525" 
d="M174 140q0 -35 2.5 -59t8.5 -39t17.5 -21.5t29.5 -6.5q27 0 48 18t35.5 42.5t22 51.5t7.5 45v240h-72v19h162v-411h76v-19h-159l-1 106h-1q-20 -52 -54 -85t-87 -33q-24 0 -46.5 6t-40 22t-28 44.5t-10.5 72.5v278h-76v19h166v-290zM105 531q0 23 5 47t15.5 44t28 32.5
t42.5 12.5q21 0 41 -11.5t39 -25t36.5 -25t34.5 -11.5q27 0 40 19t15 51h15q0 -41 -7 -66.5t-18.5 -39.5t-26 -19.5t-30.5 -5.5q-25 0 -45.5 11.5t-39 25t-36 25t-37.5 11.5q-24 0 -39 -22t-17 -53h-16z" />
    <glyph glyph-name="uni1EE5" unicode="&#x1ee5;" horiz-adv-x="525" 
d="M174 140q0 -35 2.5 -59t8.5 -39t17.5 -21.5t29.5 -6.5q27 0 48 18t35.5 42.5t22 51.5t7.5 45v240h-72v19h162v-411h76v-19h-159l-1 106h-1q-20 -52 -54 -85t-87 -33q-24 0 -46.5 6t-40 22t-28 44.5t-10.5 72.5v278h-76v19h166v-290zM306 -152q0 -23 -16 -39.5t-40 -16.5
q-23 0 -39.5 16.5t-16.5 39.5q0 24 16.5 40t39.5 16q24 0 40 -16t16 -40z" />
    <glyph glyph-name="wacute" unicode="&#x1e83;" 
d="M566 430h146v-19h-59l-99 -348q-12 -41 -23.5 -58t-38.5 -17q-15 0 -25.5 6.5t-18 18t-13 28.5t-12.5 38l-62 197l-75 -213q-14 -41 -24.5 -58t-37.5 -17q-31 0 -44 24.5t-25 66.5l-94 332h-56v19h215v-19h-62l98 -358h1l91 263l-35 114h97l114 -377h1l102 358h-61v19z
M329 520l82 161h110v-6l-177 -155h-15z" />
    <glyph glyph-name="wcircumflex" unicode="&#x175;" 
d="M566 430h146v-19h-59l-99 -348q-12 -41 -23.5 -58t-38.5 -17q-15 0 -25.5 6.5t-18 18t-13 28.5t-12.5 38l-62 197l-75 -213q-14 -41 -24.5 -58t-37.5 -17q-31 0 -44 24.5t-25 66.5l-94 332h-56v19h215v-19h-62l98 -358h1l91 263l-35 114h97l114 -377h1l102 358h-61v19z
M380 681q6 -24 20 -48.5t31.5 -46t36 -39t33.5 -27.5l-5 -7q-31 10 -64.5 29.5t-57.5 46.5q-24 -27 -57.5 -46.5t-64.5 -29.5l-5 7q15 10 33.5 27.5t36 39t31.5 46t20 48.5h12z" />
    <glyph glyph-name="wdieresis" unicode="&#x1e85;" 
d="M566 430h146v-19h-59l-99 -348q-12 -41 -23.5 -58t-38.5 -17q-15 0 -25.5 6.5t-18 18t-13 28.5t-12.5 38l-62 197l-75 -213q-14 -41 -24.5 -58t-37.5 -17q-31 0 -44 24.5t-25 66.5l-94 332h-56v19h215v-19h-62l98 -358h1l91 263l-35 114h97l114 -377h1l102 358h-61v19z
M518 600q0 -23 -16 -39.5t-40 -16.5q-23 0 -39.5 16.5t-16.5 39.5q0 24 16.5 40t39.5 16q24 0 40 -16t16 -40zM318 600q0 -23 -16 -39.5t-40 -16.5q-23 0 -39.5 16.5t-16.5 39.5q0 24 16.5 40t39.5 16q24 0 40 -16t16 -40z" />
    <glyph glyph-name="wgrave" unicode="&#x1e81;" 
d="M566 430h146v-19h-59l-99 -348q-12 -41 -23.5 -58t-38.5 -17q-15 0 -25.5 6.5t-18 18t-13 28.5t-12.5 38l-62 197l-75 -213q-14 -41 -24.5 -58t-37.5 -17q-31 0 -44 24.5t-25 66.5l-94 332h-56v19h215v-19h-62l98 -358h1l91 263l-35 114h97l114 -377h1l102 358h-61v19z
M366 520l-177 152v9h110l82 -160v-1h-15z" />
    <glyph glyph-name="ycircumflex" unicode="&#x177;" horiz-adv-x="489" 
d="M61 411h-56v19h215v-19h-62l118 -358h1l122 358h-61v19h146v-19h-59l-120 -353q-7 -19 -12 -50.5t-5 -71.5v-15q0 -80 -36.5 -127t-114.5 -47q-22 0 -41.5 8.5t-34 23t-23 32.5t-8.5 38q0 29 15.5 45t38.5 16q20 0 34 -12t14 -32q0 -13 -6 -21t-13.5 -15t-13.5 -14.5
t-6 -19.5q0 -16 13.5 -25.5t33.5 -9.5q11 0 23.5 4.5t23 18.5t17.5 40t7 70v33q0 15 -1 27t-4 25.5t-8 30.5t-13 40zM270 681q6 -24 20 -48.5t31.5 -46t36 -39t33.5 -27.5l-5 -7q-31 10 -64.5 29.5t-57.5 46.5q-24 -27 -57.5 -46.5t-64.5 -29.5l-5 7q15 10 33.5 27.5t36 39
t31.5 46t20 48.5h12z" />
    <glyph glyph-name="ygrave" unicode="&#x1ef3;" horiz-adv-x="489" 
d="M61 411h-56v19h215v-19h-62l118 -358h1l122 358h-61v19h146v-19h-59l-120 -353q-7 -19 -12 -50.5t-5 -71.5v-15q0 -80 -36.5 -127t-114.5 -47q-22 0 -41.5 8.5t-34 23t-23 32.5t-8.5 38q0 29 15.5 45t38.5 16q20 0 34 -12t14 -32q0 -13 -6 -21t-13.5 -15t-13.5 -14.5
t-6 -19.5q0 -16 13.5 -25.5t33.5 -9.5q11 0 23.5 4.5t23 18.5t17.5 40t7 70v33q0 15 -1 27t-4 25.5t-8 30.5t-13 40zM285 520l-177 152v9h110l82 -160v-1h-15z" />
    <glyph glyph-name="uni0233" unicode="&#x233;" horiz-adv-x="489" 
d="M61 411h-56v19h215v-19h-62l118 -358h1l122 358h-61v19h146v-19h-59l-120 -353q-7 -19 -12 -50.5t-5 -71.5v-15q0 -80 -36.5 -127t-114.5 -47q-22 0 -41.5 8.5t-34 23t-23 32.5t-8.5 38q0 29 15.5 45t38.5 16q20 0 34 -12t14 -32q0 -13 -6 -21t-13.5 -15t-13.5 -14.5
t-6 -19.5q0 -16 13.5 -25.5t33.5 -9.5q11 0 23.5 4.5t23 18.5t17.5 40t7 70v33q0 15 -1 27t-4 25.5t-8 30.5t-13 40zM146 568v49h234v-49h-234z" />
    <glyph glyph-name="zacute" unicode="&#x17a;" horiz-adv-x="474" 
d="M232 18q37 0 60 6t37 16.5t21 25t13 31.5l8 26t8.5 22.5t10.5 15.5t15 6h2v-167h-374v1l271 411h-88q-29 0 -47 -5t-30 -14.5t-19 -23t-13 -30.5q-5 -14 -8.5 -26.5t-8 -22t-10.5 -15.5t-15 -6h-2v161h349v-1l-272 -411h92zM214 520l82 161h110v-6l-177 -155h-15z" />
    <glyph glyph-name="zcaron" unicode="&#x17e;" horiz-adv-x="474" 
d="M232 18q37 0 60 6t37 16.5t21 25t13 31.5l8 26t8.5 22.5t10.5 15.5t15 6h2v-167h-374v1l271 411h-88q-29 0 -47 -5t-30 -14.5t-19 -23t-13 -30.5q-5 -14 -8.5 -26.5t-8 -22t-10.5 -15.5t-15 -6h-2v161h349v-1l-272 -411h92zM237 513q-6 24 -20 48.5t-31.5 46t-36 39
t-33.5 27.5l5 7q31 -10 64.5 -29.5t57.5 -46.5q24 27 57.5 46.5t64.5 29.5l5 -7q-15 -10 -33.5 -27.5t-36 -39t-31.5 -46t-20 -48.5h-12z" />
    <glyph glyph-name="zdotaccent" unicode="&#x17c;" horiz-adv-x="474" 
d="M232 18q37 0 60 6t37 16.5t21 25t13 31.5l8 26t8.5 22.5t10.5 15.5t15 6h2v-167h-374v1l271 411h-88q-29 0 -47 -5t-30 -14.5t-19 -23t-13 -30.5q-5 -14 -8.5 -26.5t-8 -22t-10.5 -15.5t-15 -6h-2v161h349v-1l-272 -411h92zM306 600q0 -23 -16 -39.5t-40 -16.5
q-23 0 -39.5 16.5t-16.5 39.5q0 24 16.5 40t39.5 16q24 0 40 -16t16 -40z" />
    <glyph glyph-name="ellipsis" unicode="&#x2026;" horiz-adv-x="630" 
d="M590 54q0 -28 -19 -47t-45 -19q-28 0 -47 19t-19 45q0 28 19 47t45 19q28 0 47 -19t19 -45zM380 54q0 -28 -19 -47t-45 -19q-28 0 -47 19t-19 45q0 28 19 47t45 19q28 0 47 -19t19 -45zM171 54q0 -28 -19 -47t-45 -19q-28 0 -47 19t-19 45q0 28 19 47t45 19q28 0 47 -19
t19 -45z" />
    <glyph glyph-name="endash" unicode="&#x2013;" horiz-adv-x="479" 
d="M30 214v23h419v-23h-419z" />
    <glyph glyph-name="emdash" unicode="&#x2014;" horiz-adv-x="628" 
d="M30 214v23h568v-23h-568z" />
    <glyph glyph-name="guilsinglleft" unicode="&#x2039;" horiz-adv-x="237" 
d="M40 223q0 28 8.5 53t22.5 45t30.5 35t33.5 23l10 -19q-38 -19 -58.5 -55t-20.5 -71q0 -26 15 -38t44 -15q38 -4 50 -20t12 -39q0 -19 -13.5 -33t-36.5 -14q-21 0 -39 11.5t-30.5 31.5t-20 47t-7.5 58z" />
    <glyph glyph-name="guilsinglright" unicode="&#x203a;" horiz-adv-x="237" 
d="M197 227q0 -28 -8.5 -53t-22.5 -45t-31 -35t-33 -23l-10 19q38 19 58.5 55t20.5 71q0 26 -15 38t-44 15q-38 4 -50 20t-12 39q0 19 13.5 33t36.5 14q21 0 39 -11.5t30.5 -31.5t20 -47t7.5 -58z" />
    <glyph glyph-name="quoteleft" unicode="&#x2018;" horiz-adv-x="213" 
d="M198 493q0 -25 -17.5 -43t-49.5 -18q-20 0 -35 8.5t-25.5 23.5t-15.5 34.5t-5 41.5q0 32 9 59t24 49.5t35 41t42 32.5l11 -16q-41 -28 -66.5 -64t-25.5 -79q0 -15 6 -21.5t15 -6.5q12 0 20.5 8.5t26.5 8.5q24 0 37.5 -17.5t13.5 -41.5z" />
    <glyph glyph-name="quoteright" unicode="&#x2019;" horiz-adv-x="213" 
d="M16 661q0 25 17.5 43t49.5 18q21 0 36.5 -8.5t25 -23.5t14.5 -34.5t5 -41.5q0 -32 -9 -59.5t-24 -50t-35 -40.5t-42 -32l-11 16q41 28 66.5 64t25.5 79q0 15 -6 21.5t-15 6.5q-12 0 -20.5 -8.5t-26.5 -8.5q-24 0 -37.5 17.5t-13.5 41.5z" />
    <glyph glyph-name="quotedblleft" unicode="&#x201c;" horiz-adv-x="384" 
d="M369 493q0 -25 -17.5 -43t-49.5 -18q-20 0 -35 8.5t-25.5 23.5t-15.5 34.5t-5 41.5q0 32 9 59t24 49.5t35 41t42 32.5l11 -16q-41 -28 -66.5 -64t-25.5 -79q0 -15 6 -21.5t15 -6.5q12 0 20.5 8.5t26.5 8.5q24 0 37.5 -17.5t13.5 -41.5zM198 493q0 -25 -17.5 -43
t-49.5 -18q-20 0 -35 8.5t-25.5 23.5t-15.5 34.5t-5 41.5q0 32 9 59t24 49.5t35 41t42 32.5l11 -16q-41 -28 -66.5 -64t-25.5 -79q0 -15 6 -21.5t15 -6.5q12 0 20.5 8.5t26.5 8.5q24 0 37.5 -17.5t13.5 -41.5z" />
    <glyph glyph-name="quotedblright" unicode="&#x201d;" horiz-adv-x="384" 
d="M186 661q0 25 17.5 43t49.5 18q21 0 36.5 -8.5t25 -23.5t14.5 -34.5t5 -41.5q0 -32 -9 -59.5t-24 -50t-35 -40.5t-42 -32l-11 16q41 28 66.5 64t25.5 79q0 15 -6 21.5t-15 6.5q-12 0 -20.5 -8.5t-26.5 -8.5q-24 0 -37.5 17.5t-13.5 41.5zM16 661q0 25 17.5 43t49.5 18
q21 0 36.5 -8.5t25 -23.5t14.5 -34.5t5 -41.5q0 -32 -9 -59.5t-24 -50t-35 -40.5t-42 -32l-11 16q41 28 66.5 64t25.5 79q0 15 -6 21.5t-15 6.5q-12 0 -20.5 -8.5t-26.5 -8.5q-24 0 -37.5 17.5t-13.5 41.5z" />
    <glyph glyph-name="quotesinglbase" unicode="&#x201a;" horiz-adv-x="213" 
d="M16 47q0 25 17.5 43t49.5 18q21 0 36.5 -8.5t25 -23.5t14.5 -34.5t5 -41.5q0 -32 -9 -59.5t-24 -50t-35 -40.5t-42 -32l-11 16q41 28 66.5 64t25.5 79q0 15 -6 21.5t-15 6.5q-12 0 -20.5 -8.5t-26.5 -8.5q-24 0 -37.5 17.5t-13.5 41.5z" />
    <glyph glyph-name="quotedblbase" unicode="&#x201e;" horiz-adv-x="384" 
d="M186 47q0 25 17.5 43t49.5 18q21 0 36.5 -8.5t25 -23.5t14.5 -34.5t5 -41.5q0 -32 -9 -59.5t-24 -50t-35 -40.5t-42 -32l-11 16q41 28 66.5 64t25.5 79q0 15 -6 21.5t-15 6.5q-12 0 -20.5 -8.5t-26.5 -8.5q-24 0 -37.5 17.5t-13.5 41.5zM16 47q0 25 17.5 43t49.5 18
q21 0 36.5 -8.5t25 -23.5t14.5 -34.5t5 -41.5q0 -32 -9 -59.5t-24 -50t-35 -40.5t-42 -32l-11 16q41 28 66.5 64t25.5 79q0 15 -6 21.5t-15 6.5q-12 0 -20.5 -8.5t-26.5 -8.5q-24 0 -37.5 17.5t-13.5 41.5z" />
    <glyph glyph-name="bullet" unicode="&#x2022;" horiz-adv-x="488" 
d="M408 224q0 -34 -13 -63.5t-35.5 -52t-52 -35.5t-63.5 -13t-63.5 13t-52 35.5t-35.5 52t-13 63.5t13 63.5t35.5 52t52 35.5t63.5 13t63.5 -13t52 -35.5t35.5 -52t13 -63.5z" />
    <glyph glyph-name="minus" unicode="&#x2212;" horiz-adv-x="536" 
d="M30 212v23h476v-23h-476z" />
    <glyph glyph-name="Euro" unicode="&#x20ac;" horiz-adv-x="606" 
d="M386 683q-81 0 -127 -67t-54 -205h173v-19h-174q-1 -11 -1 -23v-24v-26.5t1 -24.5h174v-19h-173q9 -136 54 -201t127 -65q58 0 100 33t56 104l24 -6q-6 -32 -20.5 -59.5t-37.5 -48t-55 -32.5t-72 -12q-114 0 -187.5 75t-89.5 212h-104v19h102q-2 12 -2 24.5v26.5
q0 12 0.5 23.5t1.5 23.5h-102v19h103q8 69 31.5 123.5t60 92t83.5 57t103 19.5q42 0 76.5 -12t58.5 -33t37 -49t13 -59q0 -41 -19 -62t-42 -21q-20 0 -33.5 11t-13.5 32q0 17 7.5 27.5t17.5 16.5q14 9 23.5 18t9.5 25q0 20 -11 36t-29 27t-41.5 17t-48.5 6z" />
    <glyph glyph-name="fi" unicode="&#xfb01;" horiz-adv-x="586" 
d="M318 0v19h76v392h-199v-392h83v-19h-249v19h76v392h-76v19h76v27q0 61 17 110.5t44.5 84t62.5 53t72 18.5q32 0 60 -9.5t47 -27.5q14 7 28 7q25 0 42 -17t17 -42t-17 -42t-42 -17t-42 17t-17 42v5q-2 36 -23 52.5t-53 16.5q-15 0 -40 -7.5t-46 -30t-32.5 -64t-0.5 -109.5
l11 -67h291v-411h76v-19h-242z" />
    <glyph glyph-name="fl" unicode="&#xfb02;" horiz-adv-x="599" 
d="M331 0v19h76v573q-1 34 -10.5 56t-24 35.5t-31.5 19t-33 5.5q-19 0 -45 -8t-47.5 -31t-33 -64.5t-0.5 -107.5l11 -67h130v-19h-128v-392h89v-19h-255v19h76v392h-76v19h76v27q0 61 16.5 110.5t45 84t65 53t77.5 18.5q36 0 72 -10t60 -33l56 31v-692h76v-19h-242z" />
    <glyph glyph-name="breve" unicode="&#x2d8;" horiz-adv-x="264" 
d="M132 576q49 0 73.5 23.5t29.5 71.5h16q-1 -27 -8 -53t-21 -47t-36.5 -33.5t-53.5 -12.5q-32 0 -54 12.5t-36 33.5t-21 47t-8 53h16q5 -48 29.5 -71.5t73.5 -23.5z" />
    <glyph glyph-name="caron" unicode="&#x2c7;" horiz-adv-x="314" 
d="M151 513q-6 24 -20 48.5t-31.5 46t-36 39t-33.5 27.5l5 7q31 -10 64.5 -29.5t57.5 -46.5q24 27 57.5 46.5t64.5 29.5l5 -7q-15 -10 -33.5 -27.5t-36 -39t-31.5 -46t-20 -48.5h-12z" />
    <glyph glyph-name="circumflex" unicode="&#x2c6;" horiz-adv-x="314" 
d="M163 681q6 -24 20 -48.5t31.5 -46t36 -39t33.5 -27.5l-5 -7q-31 10 -64.5 29.5t-57.5 46.5q-24 -27 -57.5 -46.5t-64.5 -29.5l-5 7q15 10 33.5 27.5t36 39t31.5 46t20 48.5h12z" />
    <glyph glyph-name="dotaccent" unicode="&#x2d9;" horiz-adv-x="212" 
d="M162 600q0 -23 -16 -39.5t-40 -16.5q-23 0 -39.5 16.5t-16.5 39.5q0 24 16.5 40t39.5 16q24 0 40 -16t16 -40z" />
    <glyph glyph-name="dot" horiz-adv-x="500" 
d="M309 634q0 -25 -17 -42t-42 -17t-42 17t-17 42t17 42t42 17t42 -17t17 -42z" />
    <glyph glyph-name="dotaccent.low" horiz-adv-x="212" 
d="M162 -152q0 -23 -16 -39.5t-40 -16.5q-23 0 -39.5 16.5t-16.5 39.5q0 24 16.5 40t39.5 16q24 0 40 -16t16 -40z" />
    <glyph glyph-name="hungarumlaut" unicode="&#x2dd;" horiz-adv-x="370" 
d="M168 520l82 161h110v-6l-177 -155h-15zM30 520l82 161h110v-6l-177 -155h-15z" />
    <glyph glyph-name="commaaccent" horiz-adv-x="181" 
d="M30 -146q0 20 15 35t37 15q35 0 52 -24.5t17 -56.5q0 -29 -7.5 -52.5t-20 -42.5t-28.5 -33.5t-34 -26.5l-9 12q28 22 50 50.5t22 67.5q0 10 -4 16.5t-13 6.5q-5 0 -8 -2.5t-6.5 -5t-8.5 -5t-13 -2.5q-20 0 -30.5 14t-10.5 34z" />
    <glyph glyph-name="ogonek" unicode="&#x2db;" horiz-adv-x="264" 
d="M72 -125q0 20 11.5 38t31.5 33.5t46.5 28.5t56.5 25h13q-33 -20 -53 -37.5t-30.5 -32.5t-14 -28t-3.5 -23q0 -23 12.5 -36.5t30.5 -13.5t32 6t26 15l7 -12q-35 -32 -82 -32q-34 0 -59 18.5t-25 50.5z" />
    <glyph glyph-name="ring" unicode="&#x2da;" horiz-adv-x="302" 
d="M151 706q19 0 35.5 -7t29 -20t19.5 -30t7 -36q0 -40 -26.5 -65.5t-64.5 -25.5t-64.5 25.5t-26.5 65.5q0 19 7 36t19.5 30t29 20t35.5 7zM151 543q11 0 23 4t21.5 12.5t15.5 21.5t6 32t-6 32.5t-15.5 22t-21.5 12.5t-23 4t-23 -4t-21.5 -12.5t-15.5 -22t-6 -32.5t6 -32
t15.5 -21.5t21.5 -12.5t23 -4z" />
    <glyph glyph-name="tilde" unicode="&#x2dc;" horiz-adv-x="332" 
d="M10 531q0 23 5 47t15.5 44t28 32.5t42.5 12.5q21 0 41 -11.5t39 -25t36.5 -25t34.5 -11.5q27 0 40 19t15 51h15q0 -41 -7 -66.5t-18.5 -39.5t-26 -19.5t-30.5 -5.5q-25 0 -45.5 11.5t-39 25t-36 25t-37.5 11.5q-24 0 -39 -22t-17 -53h-16z" />
    <glyph glyph-name="acute.case" horiz-adv-x="252" 
d="M20 743v1l122 138h120v-6l-227 -133h-15z" />
    <glyph glyph-name="breve.case" horiz-adv-x="280" 
d="M132 794q49 0 73.5 20t29.5 68h16q-1 -27 -8 -52t-21 -44.5t-36.5 -31t-53.5 -11.5q-32 0 -54 11.5t-36 31t-21 44.5t-8 52h16q5 -48 29.5 -68t73.5 -20z" />
    <glyph glyph-name="caron.case" horiz-adv-x="314" 
d="M151 742q-12 48 -47.5 80.5t-74.5 50.5l3 9q35 -7 69 -20t56 -33q22 20 56 33t69 20l3 -9q-39 -18 -74.5 -50.5t-47.5 -80.5h-12z" />
    <glyph glyph-name="cedilla.case" horiz-adv-x="268" 
d="M269 -167q0 -20 -9.5 -35.5t-25 -27t-35.5 -17.5t-41 -6q-35 0 -58.5 17t-34.5 48l17 7q9 -29 27 -42t43 -13q31 0 50 17.5t19 50.5q0 37 -18.5 51t-39.5 14q-17 0 -27.5 -5t-17.5 -10l-14 15l56 103h22l-51 -97l1 -1q21 13 47 13q13 0 29 -4.5t29.5 -14.5t22.5 -25.5
t9 -37.5z" />
    <glyph glyph-name="circumflex.case" horiz-adv-x="314" 
d="M163 882q12 -48 47.5 -80.5t74.5 -50.5l-3 -9q-35 7 -69 20t-56 33q-22 -20 -56 -33t-69 -20l-3 9q39 18 74.5 50.5t47.5 80.5h12z" />
    <glyph glyph-name="dieresis.case" horiz-adv-x="352" 
d="M332 814q0 -23 -16 -39.5t-40 -16.5q-23 0 -39.5 16.5t-16.5 39.5q0 24 16.5 40t39.5 16q24 0 40 -16t16 -40zM132 814q0 -23 -16 -39.5t-40 -16.5q-23 0 -39.5 16.5t-16.5 39.5q0 24 16.5 40t39.5 16q24 0 40 -16t16 -40z" />
    <glyph glyph-name="dotaccent.case" horiz-adv-x="152" 
d="M132 814q0 -23 -16 -39.5t-40 -16.5q-23 0 -39.5 16.5t-16.5 39.5q0 24 16.5 40t39.5 16q24 0 40 -16t16 -40z" />
    <glyph glyph-name="grave.case" horiz-adv-x="232" 
d="M217 743l-227 133v6h120l122 -138v-1h-15z" />
    <glyph glyph-name="hungarumlaut.case" horiz-adv-x="395" 
d="M163 743v1l122 138h120v-6l-227 -133h-15zM20 743v1l122 138h120v-6l-227 -133h-15z" />
    <glyph glyph-name="macron.case" horiz-adv-x="287" 
d="M22 784v49h234v-49h-234z" />
    <glyph glyph-name="ogonek.case" horiz-adv-x="264" 
d="M72 -125q0 20 11.5 38t31.5 33.5t46.5 28.5t56.5 25h13q-33 -20 -53 -37.5t-30.5 -32.5t-14 -28t-3.5 -23q0 -23 12.5 -36.5t30.5 -13.5t32 6t26 15l7 -12q-35 -32 -82 -32q-34 0 -59 18.5t-25 50.5z" />
    <glyph glyph-name="ring.case" horiz-adv-x="182" 
d="M91 927q19 0 35.5 -7t29 -20t19.5 -30t7 -36q0 -40 -26.5 -65.5t-64.5 -25.5t-64.5 25.5t-26.5 65.5q0 19 7 36t19.5 30t29 20t35.5 7zM91 764q11 0 23 4t21.5 12.5t15.5 21.5t6 32t-6 32.5t-15.5 22t-21.5 12.5t-23 4t-23 -4t-21.5 -12.5t-15.5 -22t-6 -32.5t6 -32
t15.5 -21.5t21.5 -12.5t23 -4z" />
    <glyph glyph-name="tilde.case" horiz-adv-x="332" 
d="M10 754q0 23 5 47t15.5 44t28 32.5t42.5 12.5q21 0 41 -11.5t39 -25t36.5 -25t34.5 -11.5q27 0 40 19t15 51h15q0 -41 -7 -66.5t-18.5 -39.5t-26 -19.5t-30.5 -5.5q-25 0 -45.5 11.5t-39 25t-36 25t-37.5 11.5q-24 0 -39 -22t-17 -53h-16z" />
    </font>
</defs>
</svg>
